<svg preserveAspectRatio="none" width="100%" height="100%" overflow="visible" style="display: block;" viewBox="0 0 20 84" fill="none" xmlns="http://www.w3.org/2000/svg">
<path id="Vector" d="M17.8216 77.73C18.2116 79.19 17.6516 86.23 10.1716 80.53C9.75857 80.2374 9.43261 79.8383 9.22834 79.3752C9.02408 78.9121 8.94917 78.4023 9.01158 77.9C9.11158 77.01 9.72156 76.04 9.90156 74.77C8.95156 68.77 7.31157 57.58 2.25157 36C0.0615683 26.65 1.41157 1 1.41157 1L16.4116 10.75C16.4116 10.75 18.8216 29.93 18.8216 36.98C18.83 45.4044 18.386 53.8232 17.4916 62.2C17.0838 66.146 16.9369 70.1147 17.0516 74.08C17.1097 75.3303 17.3697 76.5629 17.8216 77.73Z" fill="var(--fill-0, #263238)" stroke="var(--stroke-0, #263238)" stroke-linecap="round" stroke-linejoin="round"/>
</svg>
