<svg preserveAspectRatio="none" width="100%" height="100%" overflow="visible" style="display: block;" viewBox="0 0 420 191" fill="none" xmlns="http://www.w3.org/2000/svg">
<g id="freepik--Sea--inject-81">
<path id="Vector" d="M355.34 143.807C337.23 159.947 316.9 173.397 295.57 185.187L261.18 143.807H355.34Z" fill="var(--fill-0, white)"/>
<path id="Vector_2" d="M176.34 143.807L134.52 190.077C106.33 177.447 78.84 163.077 55.64 143.807H176.34Z" fill="var(--fill-0, white)" stroke="var(--stroke-0, #263238)" stroke-linecap="round" stroke-linejoin="round"/>
<path id="Vector_3" d="M419.62 107.187H230.69" stroke="var(--stroke-0, white)" stroke-opacity="0.1" stroke-miterlimit="10"/>
<path id="Vector_4" d="M89.11 112.767H117.9" stroke="var(--stroke-0, white)" stroke-opacity="0.1" stroke-miterlimit="10"/>
<path id="Vector_5" d="M79.02 112.767H84.76" stroke="var(--stroke-0, white)" stroke-opacity="0.1" stroke-miterlimit="10"/>
<path id="Vector_6" d="M65.13 112.767H73.79" stroke="var(--stroke-0, white)" stroke-opacity="0.1" stroke-miterlimit="10"/>
<path id="Vector_7" d="M347.04 112.407H375.84" stroke="var(--stroke-0, white)" stroke-opacity="0.1" stroke-miterlimit="10"/>
<path id="Vector_8" d="M336.95 112.407H342.69" stroke="var(--stroke-0, white)" stroke-opacity="0.1" stroke-miterlimit="10"/>
<path id="Vector_9" d="M323.07 112.407H331.73" stroke="var(--stroke-0, white)" stroke-opacity="0.1" stroke-miterlimit="10"/>
<path id="Vector_10" d="M117.17 120.787H145.96" stroke="var(--stroke-0, white)" stroke-opacity="0.1" stroke-miterlimit="10"/>
<path id="Vector_11" d="M107.08 120.787H112.82" stroke="var(--stroke-0, white)" stroke-opacity="0.1" stroke-miterlimit="10"/>
<path id="Vector_12" d="M93.19 120.787H101.85" stroke="var(--stroke-0, white)" stroke-opacity="0.1" stroke-miterlimit="10"/>
<path id="Vector_13" d="M299.48 118.697H338.22" stroke="var(--stroke-0, white)" stroke-opacity="0.1" stroke-miterlimit="10"/>
<path id="Vector_14" d="M209.41 107.187H0" stroke="var(--stroke-0, white)" stroke-opacity="0.1" stroke-miterlimit="10"/>
<path id="Vector_15" d="M246.18 24.1466C245.942 25.5158 245.404 26.8156 244.606 27.953C243.807 29.0905 242.767 30.0375 241.56 30.7266C240.896 30.4149 240.157 30.3004 239.43 30.3966C234.64 30.7366 229.99 32.1266 225.2 31.7966C222.28 31.5966 219.56 30.9066 216.6 31.0966C215.516 31.0644 214.431 31.1618 213.37 31.3866C213.234 31.4379 213.106 31.5086 212.99 31.5966C211.529 31.1993 210.184 30.4596 209.065 29.4388C207.947 28.418 207.088 27.1454 206.56 25.7266C205.956 24.1012 205.648 22.3807 205.65 20.6466C205.588 15.2648 207.654 10.0762 211.398 6.21017C215.143 2.34415 220.263 0.113665 225.644 0.00422501C231.025 -0.105215 236.231 1.91525 240.13 5.62582C244.028 9.3364 246.303 14.4367 246.46 19.8166C246.519 21.2657 246.425 22.7171 246.18 24.1466Z" fill="var(--fill-0, #92E3A9)"/>
<path id="Vector_16" d="M241.83 32.5566C241.91 32.9966 241.3 33.3466 240.72 33.5566C236.78 35.1566 231.84 35.1566 227.2 35.1066L216.31 34.9966C215.461 35.0305 214.612 34.9395 213.79 34.7266C212.68 34.3766 212.21 33.5666 212.99 33.0266C213.106 32.9386 213.234 32.8679 213.37 32.8166C214.431 32.5918 215.516 32.4945 216.6 32.5266C219.6 32.3366 222.28 33.0266 225.2 33.2266C229.99 33.5566 234.64 32.1666 239.43 31.8266C240.157 31.7304 240.896 31.845 241.56 32.1566C241.631 32.2 241.692 32.2581 241.739 32.3272C241.785 32.3962 241.816 32.4744 241.83 32.5566Z" fill="var(--fill-0, #92E3A9)"/>
<path id="Vector_17" d="M217.57 37.8066C218.597 38.2324 219.712 38.4072 220.82 38.3166C226.29 38.2666 229.95 38.3166 235.42 38.3166C237.33 38.3166 237.29 37.3166 237.33 36.9366C237.33 37.3166 224.33 36.4766 223.16 36.3266C221.99 36.1766 213 35.3566 217.57 37.8066Z" fill="var(--fill-0, #92E3A9)"/>
<path id="Vector_18" d="M223.55 41.1766C224.497 41.5164 225.507 41.6451 226.509 41.5535C227.511 41.462 228.48 41.1524 229.35 40.6466H228.35C226.742 40.7409 225.14 40.9178 223.55 41.1766Z" fill="var(--fill-0, #92E3A9)"/>
<g id="Group" opacity="0.9">
<path id="Vector_19" d="M246.18 24.1466C245.942 25.5158 245.404 26.8156 244.606 27.953C243.807 29.0905 242.767 30.0375 241.56 30.7266C240.896 30.4149 240.157 30.3004 239.43 30.3966C234.64 30.7366 229.99 32.1266 225.2 31.7966C222.28 31.5966 219.56 30.9066 216.6 31.0966C215.516 31.0644 214.431 31.1618 213.37 31.3866C213.234 31.4379 213.106 31.5086 212.99 31.5966C211.529 31.1993 210.184 30.4596 209.065 29.4388C207.947 28.418 207.088 27.1454 206.56 25.7266C205.956 24.1012 205.648 22.3807 205.65 20.6466C205.588 15.2648 207.654 10.0762 211.398 6.21017C215.143 2.34415 220.263 0.113665 225.644 0.00422501C231.025 -0.105215 236.231 1.91525 240.13 5.62582C244.028 9.3364 246.303 14.4367 246.46 19.8166C246.519 21.2657 246.425 22.7171 246.18 24.1466Z" fill="var(--fill-0, white)"/>
<path id="Vector_20" d="M241.83 32.5566C241.91 32.9966 241.3 33.3466 240.72 33.5566C236.78 35.1566 231.84 35.1566 227.2 35.1066L216.31 34.9966C215.461 35.0305 214.612 34.9395 213.79 34.7266C212.68 34.3766 212.21 33.5666 212.99 33.0266C213.106 32.9386 213.234 32.8679 213.37 32.8166C214.431 32.5918 215.516 32.4945 216.6 32.5266C219.6 32.3366 222.28 33.0266 225.2 33.2266C229.99 33.5566 234.64 32.1666 239.43 31.8266C240.157 31.7304 240.896 31.845 241.56 32.1566C241.631 32.2 241.692 32.2581 241.739 32.3272C241.785 32.3962 241.816 32.4744 241.83 32.5566Z" fill="var(--fill-0, white)"/>
<path id="Vector_21" d="M217.57 37.8066C218.597 38.2324 219.712 38.4072 220.82 38.3166C226.29 38.2666 229.95 38.3166 235.42 38.3166C237.33 38.3166 237.29 37.3166 237.33 36.9366C237.33 37.3166 224.33 36.4766 223.16 36.3266C221.99 36.1766 213 35.3566 217.57 37.8066Z" fill="var(--fill-0, white)"/>
<path id="Vector_22" d="M223.55 41.1766C224.497 41.5164 225.507 41.6451 226.509 41.5535C227.511 41.462 228.48 41.1524 229.35 40.6466H228.35C226.742 40.7409 225.14 40.9178 223.55 41.1766Z" fill="var(--fill-0, white)"/>
</g>
</g>
</svg>
