<svg preserveAspectRatio="none" width="100%" height="100%" overflow="visible" style="display: block;" viewBox="0 0 63 102" fill="none" xmlns="http://www.w3.org/2000/svg">
<g id="freepik--clip-path-3--inject-81">
<path id="Vector" d="M62.112 96.9719C48.242 101.192 23.232 105.392 0.511966 97.4419C0.601966 90.0619 2.75195 71.8619 3.03195 68.1119C6.35195 51.1119 -1.66804 21.6619 0.321963 13.1119C1.1754 12.0464 2.10447 11.0438 3.10196 10.1119L7.81195 7.69187C8.98195 7.08187 10.182 6.48187 11.342 5.87187C19.0476 1.84112 27.6477 -0.174746 36.342 0.0118737C39.652 0.0918737 49.932 2.44187 53.442 5.08187C56.952 7.72187 60.4419 20.6819 58.7719 27.6119C57.1019 34.5419 50.532 60.0619 50.532 60.0619C50.532 60.0619 58.072 79.4119 60.412 88.4819C61.1287 91.2797 61.6962 94.1137 62.112 96.9719Z" fill="var(--fill-0, black)"/>
</g>
</svg>
