<svg preserveAspectRatio="none" width="100%" height="100%" overflow="visible" style="display: block;" viewBox="0 0 11 5" fill="none" xmlns="http://www.w3.org/2000/svg">
<g id="Group 7198">
<path id="Vector" d="M7.94 4.51371L7.64 4.33372C7.45 4.21372 7.17 4.04372 6.83 3.86372C5.96453 3.39844 5.06131 3.00705 4.12999 2.69372C1.97999 1.92372 0.06 2.09371 0 1.76371C0 1.62371 0.439989 1.37372 1.26999 1.25372C2.36001 1.12382 3.46532 1.24701 4.5 1.61372C5.53595 1.97856 6.46178 2.60151 7.19 3.42371C7.40534 3.6666 7.59938 3.92756 7.76999 4.20371L7.94 4.51371Z" fill="var(--fill-0, #F4FCF6)"/>
<path id="Vector_2" d="M10.05 0.0736928L9.28001 0.523705L7.57 1.52371C6.27 2.2337 5.27001 3.0637 5.03001 2.8437C4.79001 2.6237 5.03001 2.3937 5.36001 1.9437C5.80788 1.35942 6.37339 0.875656 7.02 0.523705C7.67083 0.172588 8.40058 -0.00641109 9.14001 0.00370072C9.44506 -0.00980621 9.75061 0.0136905 10.05 0.0736928Z" fill="var(--fill-0, #F4FCF6)"/>
</g>
</svg>
