<svg preserveAspectRatio="none" width="100%" height="100%" overflow="visible" style="display: block;" viewBox="0 0 41 39" fill="none" xmlns="http://www.w3.org/2000/svg">
<path id="Vector" d="M34.3341 17.1597C31.0393 18.6827 27.8724 20.4685 24.8641 22.4997C23.9383 23.0367 23.1513 23.7832 22.566 24.6793C21.9808 25.5754 21.6137 26.5961 21.4941 27.6597C21.4341 28.8497 21.3741 29.9697 21.2241 31.0497C20.6741 28.4997 19.9841 23.2597 14.9141 25.6997C13.6141 26.3297 13.9141 28.3397 14.3641 29.6997C14.8141 31.0597 15.5441 32.4897 15.1441 33.8797C14.4626 35.5516 13.2316 36.9414 11.6541 37.8197C8.84137 35.8552 6.46421 33.3315 4.67129 30.4064C2.87837 27.4812 1.70825 24.2177 1.23411 20.8197C0.84346 18.7455 0.942759 16.6087 1.5241 14.5797C2.1796 12.7804 3.22451 11.1482 4.58412 9.79971C9.76412 4.36971 17.4541 2.09971 24.9041 1.25971C28.1941 0.889709 31.6241 0.759712 34.7041 1.94971C42.6041 4.98971 41.9241 14.1997 34.3341 17.1597Z" fill="var(--fill-0, #263238)" stroke="var(--stroke-0, #263238)" stroke-linecap="round" stroke-linejoin="round"/>
</svg>
