<svg preserveAspectRatio="none" width="100%" height="100%" overflow="visible" style="display: block;" viewBox="0 0 18 7" fill="none" xmlns="http://www.w3.org/2000/svg">
<g id="Group 7197">
<path id="Vector" d="M12.3409 6.61381C12.3409 6.61381 11.6109 6.3538 10.5009 5.8838C9.39088 5.4138 7.89088 4.7538 6.25088 4.2138C4.86794 3.74622 3.40866 3.546 1.95088 3.6238C0.83088 3.6838 0.110877 3.89381 0.0108772 3.69381C-0.0891228 3.49381 0.500877 2.9338 1.76088 2.5638C3.41119 2.13356 5.15246 2.20669 6.76088 2.7738C8.30063 3.31951 9.72009 4.15829 10.9409 5.2438C11.4307 5.67617 11.898 6.13345 12.3409 6.61381Z" fill="var(--fill-0, #F4FCF6)"/>
<path id="Vector_2" d="M17.2909 0.343785L16.8709 0.453785L15.7909 0.773785C14.6677 1.14578 13.566 1.57978 12.4909 2.07379C9.9909 3.19379 8.3909 4.85379 8.0409 4.58379C7.8809 4.46379 8.09089 3.85379 8.72089 3.06379C9.5771 2.05307 10.6459 1.24382 11.8509 0.693783C13.0614 0.151542 14.3885 -0.0788009 15.7109 0.0237849C16.1034 0.0508023 16.492 0.117813 16.8709 0.223782L17.2909 0.343785Z" fill="var(--fill-0, #F4FCF6)"/>
</g>
</svg>
