<svg preserveAspectRatio="none" width="100%" height="100%" overflow="visible" style="display: block;" viewBox="0 0 110 117" fill="none" xmlns="http://www.w3.org/2000/svg">
<g id="freepik--clip-path-2--inject-81">
<path id="Vector" d="M109.758 114.156L95.7583 116.626L89.2183 78.3958L87.7883 69.9958C86.9883 68.6058 86.1183 67.1058 85.2183 65.5758C82.0083 60.0758 78.4583 54.1958 76.1383 51.2958C75.4583 50.4458 74.9083 49.7458 74.5283 49.2958L73.8683 48.4658L73.4583 51.5758C71.7616 64.4289 72.2246 77.4753 74.8283 90.1758L76.9183 100.406C76.9183 100.406 60.5783 108.056 48.8183 109.406C21.9683 112.526 6.86826 104.716 6.86826 104.716C6.74327 99.7303 7.1963 94.747 8.21826 89.8658C15.4183 55.1358 -3.06174 11.8658 0.448257 6.39579C3.05826 2.33579 29.9683 0.0557957 29.9683 0.0557957C29.9683 0.0557957 50.0583 -0.524204 57.4083 2.0558L58.3083 2.62579C68.0783 6.01579 75.8383 9.62578 80.0583 12.7158C81.5698 14.4879 82.9091 16.3998 84.0583 18.4258C92.5089 31.8565 99.5018 46.1508 104.918 61.0658C105.678 63.1358 106.248 64.8158 106.528 65.7558C107.808 70.3158 109.758 114.156 109.758 114.156Z" fill="var(--fill-0, black)"/>
</g>
</svg>
