<svg preserveAspectRatio="none" width="100%" height="100%" overflow="visible" style="display: block;" viewBox="0 0 18 41" fill="none" xmlns="http://www.w3.org/2000/svg">
<path id="Vector" d="M1 8.83063C1.43435 10.9552 1.68528 13.1131 1.75 15.2806C1.75 18.1006 1.75 28.1006 3.03 32.2806C3.55894 33.7997 4.22851 35.266 5.03 36.6606C5.65424 37.809 6.64628 38.7143 7.84683 39.2312C9.04738 39.748 10.3868 39.8464 11.65 39.5106C12.0653 39.4427 12.44 39.2215 12.7 38.8906C13.22 37.8906 16.54 26.3506 15.52 22.2206C14.5 18.0906 13.73 16.0206 13.73 16.0206L15.73 15.0206C16.5446 13.0639 16.979 10.9699 17.01 8.85065C17.01 5.51065 12.66 1.85065 12.66 1.85065C6.09 -2.06935 1 8.83063 1 8.83063Z" fill="var(--fill-0, white)" stroke="var(--stroke-0, #263238)" stroke-linecap="round" stroke-linejoin="round"/>
</svg>
