<svg preserveAspectRatio="none" width="100%" height="100%" overflow="visible" style="display: block;" viewBox="0 0 34 142" fill="none" xmlns="http://www.w3.org/2000/svg">
<path id="Vector" d="M29.26 3.73999C25.321 6.89601 20.5379 8.81872 15.5105 9.26703C10.4831 9.71533 5.43523 8.66925 1 6.25998L1.50999 11.4C1.50999 11.4 5.58 59.24 5.62 60.05C6.43 78.18 6.91 87.31 6.62 94.51C6.32 102.96 6.08 104.7 5.83 109.87C5.58 115.04 4.03999 121.68 4.03999 124.25C4.03999 126.82 4.8 137.43 5.31 138.42C5.82 139.41 9.13999 141.57 12.99 141.42H13.1C15.0892 141.305 17.0103 140.654 18.6598 139.536C20.3093 138.418 21.6258 136.875 22.47 135.07L22.86 134.24C23.1391 132.887 23.1115 131.488 22.7792 130.147C22.447 128.806 21.8185 127.556 20.94 126.49C21.46 120.42 23.09 115.01 24.26 109.03C25.37 103.35 26.74 96.31 27.5 92.21C29.97 78.86 28.24 66.21 28.5 59C28.76 51.79 32.8 1 32.8 1L29.26 3.73999Z" fill="url(#paint0_linear_1_285)" stroke="var(--stroke-1, #263238)" stroke-linecap="round" stroke-linejoin="round"/>
<defs>
<linearGradient id="paint0_linear_1_285" x1="36.3505" y1="-80.916" x2="-7.39048" y2="-74.463" gradientUnits="userSpaceOnUse">
<stop stop-color="#B870F8"/>
<stop offset="1" stop-color="#681FA8"/>
</linearGradient>
</defs>
</svg>
