<svg preserveAspectRatio="none" width="100%" height="100%" overflow="visible" style="display: block;" viewBox="0 0 127 35" fill="none" xmlns="http://www.w3.org/2000/svg">
<path id="Vector" d="M117.521 32.8012L1.64125 33.7312C1.50417 33.7315 1.37062 33.6877 1.26027 33.6064C1.14993 33.5251 1.06862 33.4105 1.02831 33.2794C0.987996 33.1484 0.990798 33.0079 1.03634 32.8786C1.08187 32.7493 1.16772 32.6381 1.28124 32.5612C4.10124 30.5612 5.86124 27.3312 7.91124 24.2912C12.5612 17.4212 25.1013 14.4412 29.9913 23.2912C30.0764 23.4473 30.1961 23.582 30.3411 23.6849C30.4861 23.7878 30.6526 23.8564 30.8281 23.8853C31.0035 23.9142 31.1833 23.9028 31.3536 23.8518C31.524 23.8009 31.6805 23.7117 31.8112 23.5912C32.4577 23.0009 33.2274 22.5619 34.0645 22.3059C34.9016 22.0499 35.7852 21.9834 36.6513 22.1112C36.8157 22.1367 36.9836 22.1272 37.1441 22.0832C37.3045 22.0392 37.4539 21.9618 37.5823 21.8561C37.7107 21.7503 37.8153 21.6186 37.8892 21.4695C37.9632 21.3205 38.0048 21.1575 38.0112 20.9912C38.1324 19.7274 38.6743 18.5408 39.5501 17.6215C40.4258 16.7023 41.5848 16.1035 42.8413 15.9212C43.0327 15.9034 43.2158 15.8343 43.3713 15.7212C43.5533 15.5939 43.6945 15.4166 43.7779 15.2108C43.8613 15.0049 43.8833 14.7793 43.8413 14.5612C43.374 12.3351 43.5924 10.0196 44.4679 7.92018C45.3433 5.82076 46.8346 4.03602 48.745 2.80139C50.6555 1.56677 52.8953 0.940251 55.169 1.00449C57.4427 1.06873 59.6436 1.82071 61.4813 3.16123C64.5713 5.40123 65.6912 8.58123 65.9112 11.9912C65.9254 12.2025 65.9971 12.4058 66.1185 12.5792C66.2399 12.7526 66.4065 12.8895 66.6002 12.975C66.7938 13.0605 67.0072 13.0913 67.2172 13.0642C67.4271 13.0371 67.6256 12.9531 67.7913 12.8212C68.2815 12.4535 68.8394 12.1862 69.4332 12.0344C70.0269 11.8826 70.6447 11.8494 71.2512 11.9368C71.8578 12.0241 72.4412 12.2302 72.9679 12.5432C73.4947 12.8563 73.9546 13.2702 74.3213 13.7612C74.4361 13.9286 74.5929 14.0629 74.776 14.1507C74.959 14.2385 75.162 14.2767 75.3644 14.2615C75.5669 14.2464 75.7618 14.1783 75.9297 14.0642C76.0976 13.9501 76.2326 13.7939 76.3213 13.6112C79.6213 6.86122 87.5913 2.48123 95.0513 3.80123C97.9432 4.39443 100.643 5.69367 102.912 7.58324C105.18 9.4728 106.945 11.894 108.051 14.6312C108.616 15.9791 109.006 17.394 109.211 18.8412C109.246 19.0558 109.341 19.2564 109.483 19.4204C109.626 19.5845 109.812 19.7055 110.019 19.7699C110.227 19.8343 110.449 19.8395 110.659 19.785C110.87 19.7305 111.061 19.6183 111.211 19.4612C113.051 17.2712 115.631 15.7312 118.261 16.2612C120.64 16.6395 122.785 17.9088 124.261 19.8112C128.241 25.1112 124.151 32.7312 117.521 32.8012Z" fill="var(--fill-0, white)" fill-opacity="0.05" stroke="var(--stroke-0, white)" stroke-opacity="0.1" stroke-miterlimit="10"/>
</svg>
