<svg preserveAspectRatio="none" width="100%" height="100%" overflow="visible" style="display: block;" viewBox="0 0 8 14" fill="none" xmlns="http://www.w3.org/2000/svg">
<path id="Vector" d="M6.92 8.40001C6.63 9.80001 6.3 9.79999 6.13 11.19C6.01 12.19 3.33 13.42 3.13 12.48C2.77 10.94 1 11.15 1 10.01C1.42857 8.71325 1.70378 7.37077 1.82001 6.00999C2.22186 5.46187 2.49219 4.82863 2.61011 4.15929C2.72802 3.48994 2.69035 2.80244 2.5 2.14999C2.34865 1.80409 2.2541 1.43603 2.22 1.06L2.72 1C3.31 1.61 4.34 1.17001 5.19 1.24001C6.58 1.37001 7.42 2.92 7.45 4.31C7.44603 5.69019 7.26796 7.06439 6.92 8.40001Z" fill="var(--fill-0, white)" stroke="var(--stroke-0, #263238)" stroke-linecap="round" stroke-linejoin="round"/>
</svg>
