<svg preserveAspectRatio="none" width="100%" height="100%" overflow="visible" style="display: block;" viewBox="0 0 21 95" fill="none" xmlns="http://www.w3.org/2000/svg">
<path id="Vector" d="M1.45184 3.10152C0.451844 9.31152 1.45184 16.9415 1.26184 23.2215C1.26184 31.1515 4.64183 44.6515 4.69183 47.1015C5.34183 56.7815 3.21182 74.9715 3.21182 75.8415C3.21182 76.7115 0.581844 80.8415 1.45184 83.1815C2.32184 85.5215 4.05182 86.9715 5.33182 88.9915C6.33182 90.5315 8.56183 91.6215 10.9018 92.5515C13.2418 93.4815 17.3518 94.0515 18.8218 93.1715C20.2918 92.2915 19.9918 90.2315 18.8218 88.7615C17.9469 87.8683 17.163 86.8901 16.4818 85.8415C15.1742 82.2157 14.1904 78.4811 13.5418 74.6815C12.9618 71.7615 15.0118 58.5515 16.1718 50.6315C17.3318 42.7115 19.2718 30.6315 19.8318 19.5115C19.8318 10.3315 19.8318 7.86154 19.2718 2.62154C19.2718 2.62154 6.74184 -1.32848 1.45184 3.10152Z" fill="var(--fill-0, #5C5C5C)" stroke="var(--stroke-0, #263238)" stroke-linecap="round" stroke-linejoin="round"/>
</svg>
