<svg preserveAspectRatio="none" width="100%" height="100%" overflow="visible" style="display: block;" viewBox="0 0 10 12" fill="none" xmlns="http://www.w3.org/2000/svg">
<path id="Vector" d="M1.98374 1.22458C1.5779 1.74035 1.32807 2.36145 1.26373 3.01459C1.0175 3.80298 0.942496 4.63487 1.04373 5.45459C1.14373 5.95459 1.66371 7.52459 4.27371 9.45459C5.7257 10.4997 7.40508 11.1852 9.17371 11.4546C9.42371 11.4546 7.86373 10.0746 7.97373 9.85458C8.29377 9.10476 8.39768 8.28036 8.27371 7.47458C8.25427 6.63542 8.06733 5.80862 7.72388 5.04272C7.38043 4.27682 6.88739 3.58727 6.27371 3.01459C5.92371 2.74459 5.52371 2.52458 5.17371 2.25458C4.13371 1.46458 2.68374 0.574578 1.98374 1.22458Z" fill="var(--fill-0, #263238)" stroke="var(--stroke-0, #263238)" stroke-linecap="round" stroke-linejoin="round"/>
</svg>
