<svg preserveAspectRatio="none" width="100%" height="100%" overflow="visible" style="display: block;" viewBox="0 0 37 61" fill="none" xmlns="http://www.w3.org/2000/svg">
<path id="Vector" d="M1 47.02L6.75999 32.47L4.82001 19.66L6.77 5.66L18.77 1.08L28.66 1L32.18 4L33.18 8.25C33.18 8.25 36.32 19.46 35.18 21.33C34.04 23.2 33.18 24.98 33.18 24.98C33.18 24.98 35.56 30.5 35.65 32.71C35.76 35.35 32.65 32.9 31.65 35.9C30.65 38.9 29.82 45.9 26.13 45.64C22.44 45.38 20.47 45.16 19.59 48.32C18.71 51.48 16.46 60.12 16.46 60.12L1 47.02Z" fill="var(--fill-0, white)" stroke="var(--stroke-0, #263238)" stroke-linecap="round" stroke-linejoin="round"/>
</svg>
