<svg preserveAspectRatio="none" width="100%" height="100%" overflow="visible" style="display: block;" viewBox="0 0 16 5" fill="none" xmlns="http://www.w3.org/2000/svg">
<g id="Group 7196">
<path id="Vector" d="M9.66 4.66496C9.14085 4.53895 8.63255 4.37176 8.13998 4.16496C7.21998 3.80496 6.03999 3.16496 4.80999 2.60496C3.78771 2.08963 2.68539 1.7515 1.54998 1.60496C0.689981 1.50496 0.0999872 1.60496 0.00998721 1.37496C-0.0800128 1.14496 0.439993 0.724951 1.49999 0.534951C2.87054 0.338343 4.26832 0.572468 5.49999 1.20495C6.64388 1.80125 7.68666 2.57406 8.58999 3.49496C9.23999 4.22496 9.66 4.66496 9.66 4.66496Z" fill="var(--fill-0, #F4FCF6)"/>
<path id="Vector_2" d="M15.02 0.374971C15.02 0.374971 14.58 0.534963 13.91 0.804963C13.24 1.07496 12.43 1.44497 11.5 1.85497C9.66 2.66497 8.08998 3.50496 7.82998 3.14496C7.70998 2.97496 7.94998 2.55497 8.47998 2.04497C9.18802 1.37824 10.007 0.840159 10.9 0.454957C11.8228 0.0599991 12.8342 -0.0815258 13.83 0.0449689C14.1296 0.0856251 14.4243 0.155963 14.71 0.25496L15.02 0.374971Z" fill="var(--fill-0, #F4FCF6)"/>
</g>
</svg>
