<svg preserveAspectRatio="none" width="100%" height="100%" overflow="visible" style="display: block;" viewBox="0 0 42 46" fill="none" xmlns="http://www.w3.org/2000/svg">
<path id="Vector" d="M30.1846 35.328C32.707 33.2896 34.9586 30.9372 36.8846 28.328C38.9458 25.3755 40.343 22.0115 40.98 18.4675C41.617 14.9234 41.4787 11.2835 40.5746 7.79798C39.6263 6.05291 38.3335 4.51857 36.7746 3.28797C34.0446 1.77797 30.8246 0.227969 27.9446 1.42797C26.8705 2.05908 25.7621 2.62996 24.6246 3.13798C23.5962 3.35789 22.533 3.35789 21.5046 3.13798C17.3446 2.51798 13.1246 1.46798 9.0046 2.26798C4.8846 3.06798 0.8446 6.43798 1.0046 10.628C1.19106 12.2612 1.69014 13.8433 2.4746 15.288C3.9646 18.518 8.08461 21.708 9.57461 24.928C10.398 26.5194 11.0452 28.196 11.5046 29.928C11.5046 29.928 13.3646 27.368 14.4346 26.038C16.0946 24.038 18.8346 23.548 19.3746 25.178C21.1646 30.608 15.8746 34.478 15.2646 34.738C13.2646 35.598 12.8546 38.508 13.9446 40.428C15.0346 42.348 17.0546 43.478 18.9446 44.518C19.0746 44.538 27.2046 37.828 30.1846 35.328Z" fill="var(--fill-0, #263238)" stroke="var(--stroke-0, #263238)" stroke-linecap="round" stroke-linejoin="round"/>
</svg>
