<svg preserveAspectRatio="none" width="100%" height="100%" overflow="visible" style="display: block;" viewBox="0 0 43 44" fill="none" xmlns="http://www.w3.org/2000/svg">
<g id="Group">
<path id="Vector" d="M21.0549 0C19.1737 0 17.3507 0.248102 15.6154 0.710961L12.5609 1.78518C5.16355 5.05072 0 12.4492 0 21.0549C0 32.6831 9.42657 42.1097 21.0549 42.1097C32.6831 42.1097 42.1097 32.6831 42.1097 21.0549C42.1097 9.42657 32.6831 0 21.0549 0Z" fill="var(--fill-0, #5C45BF)"/>
<path id="Vector_2" d="M27.676 22.2373C27.1027 23.4499 26.6371 24.7605 26.2784 26.1652L24.7371 30.7554C24.1444 33.1307 23.2977 35.3957 22.1198 37.4278C21.4796 38.5957 20.2953 39.6785 19.0494 40.1848C15.682 41.5537 12.543 39.5156 11.9712 36.5488C11.5855 34.5477 12.7106 32.8649 14.2082 32.1478L14.2588 32.1819C14.4309 31.8339 14.675 31.5266 14.975 31.2804C15.2751 31.0342 15.6241 30.8546 15.9989 30.7538V30.735C12.6919 30.6146 9.28787 33.8215 10.0759 37.9096C11.5158 45.3791 21.5358 46.1257 25.4657 39.3289C27.1442 36.4242 27.3168 34.7972 29.3866 26.3361C29.6625 25.3669 30.0055 24.4295 30.427 23.5378L27.676 22.2373Z" fill="var(--fill-0, #38C674)"/>
<path id="Vector_3" d="M25.7916 27.6149L24.7371 30.7554C24.3214 32.4211 23.7803 34.0322 23.0881 35.5471L23.0884 35.547C25.8739 34.4462 26.6057 36.9865 26.6057 36.9865C27.2184 35.4079 27.6625 33.5124 28.5276 29.8947L25.7916 27.6149Z" fill="var(--fill-0, #1BA552)"/>
<path id="Vector_4" d="M39.6801 21.7466L39.6792 21.7473C37.7198 16.715 30.4282 16.7074 27.676 22.2373C27.676 22.2373 28.0902 24.2669 30.427 23.5379C30.8543 22.5753 31.716 21.6437 32.6642 21.1623C36.0477 19.4444 39.2073 22.4845 38.5082 25.2025C38.4986 25.212 37.8232 28.277 34.0942 29.0297V29.0293C33.5621 29.1294 33.015 29.1712 32.4844 29.1712L32.4848 29.1699C29.7703 29.1464 27.8679 27.7824 26.6894 26.5292C25.4301 25.1899 24.6775 23.4495 24.5551 21.6153C24.5434 21.4406 24.5423 21.34 24.5423 21.34C24.4784 18.1361 25.272 14.2883 26.9051 9.89441L26.915 9.86726C27.9509 7.04447 27.0078 4.06493 24.5123 2.27648C21.8329 0.356297 18.3181 0.449367 15.7663 2.50809C15.4456 2.76676 13.4747 4.61192 13.4555 4.62997L15.9274 7.25656C16.2615 6.94212 17.8042 5.50791 18.0379 5.30973C19.609 4.04766 21.3752 4.46566 22.4113 5.20824C22.8518 5.52398 24.2341 6.7033 23.5274 8.62933L23.5218 8.64428C21.7443 13.4264 20.8752 17.6961 20.9354 21.34H20.9314C20.9795 22.9334 21.2569 24.3949 21.7657 25.708C21.9115 26.0837 22.0889 26.4463 22.2959 26.792C22.2959 26.792 24.7646 31.0209 29.6032 31.4359C29.6032 31.4359 32.6191 31.8207 35.9169 30.25C39.0456 28.5953 39.8311 25.9956 39.9801 24.2781C40.0978 22.9206 39.719 21.9238 39.6801 21.7466Z" fill="var(--fill-0, #70F2A4)"/>
<path id="Vector_5" d="M22.4113 5.20816C21.6408 2.51462 24.5123 2.27648 24.5123 2.27648C21.8329 0.356297 18.3181 0.449367 15.7663 2.50809C15.4456 2.76676 13.4747 4.61192 13.4555 4.62997L15.9274 7.25656C16.2615 6.94212 17.8042 5.50791 18.0379 5.30973C19.6089 4.04766 21.3751 4.46557 22.4113 5.20816Z" fill="var(--fill-0, #50DD89)"/>
<path id="Vector_6" d="M12.6106 7.22262C12.405 8.00817 11.7605 9.63059 11.1173 11.7481C10.514 11.2953 9.82979 10.9476 9.08669 10.7355C5.57863 9.62973 2.76873 11.7588 2.19673 14.5213C1.97278 15.6028 2.18384 16.5989 2.65805 17.409C2.80629 17.6623 3.19859 17.5322 3.1576 17.2417C3.02786 16.3285 3.21685 15.3984 3.69273 14.6082C3.71946 14.5637 3.74679 14.5199 3.7748 14.4769C5.74415 11.4528 10.468 13.3335 9.90473 16.898C9.67055 18.3801 9.53477 19.9411 9.57447 21.5215C9.62457 23.5193 9.96815 25.318 10.5855 26.8619C11.2778 28.593 13.5008 29.0787 14.8679 27.8134C15.0299 27.6635 15.0547 27.4141 14.9163 27.2422C13.841 25.9084 13.2424 23.9102 13.1801 21.4309C13.0993 18.209 13.8929 14.3297 15.539 9.90086C16.4905 7.34087 16.7869 4.97492 16.4202 2.86868C16.2841 2.08777 16.0084 1.36073 15.6154 0.710961C14.571 0.989481 13.5498 1.34866 12.561 1.78527C13.3799 2.98169 13.4108 4.84722 12.6106 7.22262Z" fill="var(--fill-0, #38C674)"/>
<path id="Vector_7" d="M18.9304 31.9209C18.1143 30.646 16.4194 30.2741 15.1445 31.0901C13.8696 31.9062 13.4977 33.6012 14.3138 34.876C15.1298 36.1509 16.8248 36.5228 18.0997 35.7068C19.3746 34.8908 19.7465 33.1958 18.9304 31.9209Z" fill="var(--fill-0, #50DD89)"/>
<path id="Vector_8" d="M5.52166 20.6681C3.43355 19.3744 1.39425 19.8335 0.00850779 20.4837C0.00312778 20.6741 0.000291591 20.8644 -2.23517e-08 21.0549C-2.23517e-08 26.6045 2.14818 31.6516 5.65709 35.413C9.37045 31.9904 8.60217 22.5766 5.52166 20.6681ZM27.7111 1.07482C28.8796 2.58698 30.6114 5.533 29.6877 8.86359C28.3463 13.7008 30.3448 16.9257 34.8098 16.0896C38.0542 15.4822 40.4858 17.0503 42.0082 18.9839C41.1893 10.5959 35.4485 3.65131 27.7111 1.07482Z" fill="var(--fill-0, #7255CE)"/>
<path id="Vector_9" d="M17.2092 33.7044C17.755 33.7044 18.1974 33.262 18.1974 32.7161C18.1974 32.1703 17.755 31.7279 17.2092 31.7279C16.6633 31.7279 16.2209 32.1703 16.2209 32.7161C16.2209 33.262 16.6633 33.7044 17.2092 33.7044Z" fill="var(--fill-0, #70F2A4)"/>
<path id="Vector_10" d="M28.5276 17.6997C28.9191 17.6997 29.2365 17.3823 29.2365 16.9907C29.2365 16.5991 28.9191 16.2817 28.5276 16.2817C28.136 16.2817 27.8186 16.5991 27.8186 16.9907C27.8186 17.3823 28.136 17.6997 28.5276 17.6997Z" fill="var(--fill-0, #7255CE)"/>
<path id="Vector_11" d="M36.0295 33.8276C36.421 33.8276 36.7385 33.5102 36.7385 33.1186C36.7385 32.727 36.421 32.4096 36.0295 32.4096C35.6379 32.4096 35.3205 32.727 35.3205 33.1186C35.3205 33.5102 35.6379 33.8276 36.0295 33.8276Z" fill="var(--fill-0, #B5B0F7)"/>
<path id="Vector_12" d="M8.85723 7.96555C9.2488 7.96555 9.56622 7.64812 9.56622 7.25656C9.56622 6.865 9.2488 6.54758 8.85723 6.54758C8.46567 6.54758 8.14825 6.865 8.14825 7.25656C8.14825 7.64812 8.46567 7.96555 8.85723 7.96555Z" fill="var(--fill-0, #B5B0F7)"/>
<path id="Vector_13" d="M31.755 35.6816C32.2509 35.1857 32.2509 34.3816 31.755 33.8857C31.259 33.3898 30.455 33.3898 29.959 33.8857C29.4631 34.3816 29.4631 35.1857 29.959 35.6816C30.455 36.1775 31.259 36.1775 31.755 35.6816Z" fill="var(--fill-0, #7255CE)"/>
<path id="Vector_14" d="M39.6792 21.7473C39.587 21.5102 39.4802 21.2789 39.3595 21.0549C39.3595 21.0549 37.8278 20.7604 37.8278 22.2373C38.4804 23.0853 38.7745 24.1672 38.5082 25.2025C38.4986 25.212 37.8232 28.277 34.0942 29.0297V29.0293C33.5621 29.1294 33.015 29.1712 32.4844 29.1712L32.4848 29.1699C29.7703 29.1464 27.8679 27.7824 26.6894 26.5292C26.2008 26.0087 25.785 25.4244 25.4534 24.7922L25.4523 24.7921C25.4523 24.7921 22.6952 24.1647 22.6952 27.3769C23.5722 28.5526 25.8897 31.1175 29.6032 31.4359C29.6032 31.4359 32.6191 31.8207 35.9169 30.25C39.0456 28.5953 39.8311 25.9956 39.9801 24.2781C40.0979 22.9206 39.7191 21.9238 39.6802 21.7466L39.6792 21.7473Z" fill="var(--fill-0, #A9FFCC)"/>
</g>
</svg>
