<svg preserveAspectRatio="none" width="100%" height="100%" overflow="visible" style="display: block;" viewBox="0 0 69 165" fill="none" xmlns="http://www.w3.org/2000/svg">
<path id="Vector" d="M67.04 23.64C67.04 23.64 63.04 74.44 62.74 81.69C62.44 88.94 64.2 101.54 61.74 114.89C60.98 118.99 59.61 126.03 58.5 131.71C57.33 137.71 55.7 143.1 55.18 149.17C56.0585 150.236 56.687 151.486 57.0192 152.827C57.3515 154.168 57.3791 155.567 57.1 156.92L56.71 157.75C55.8658 159.555 54.5493 161.098 52.8998 162.216C51.2503 163.334 49.3292 163.985 47.34 164.1H47.23C43.38 164.3 40.06 162.1 39.55 161.1C39.04 160.1 38.28 149.5 38.28 146.93C38.28 144.36 39.81 137.73 40.06 132.55C40.31 127.37 40.56 125.64 40.86 117.19C41.12 109.99 40.64 100.86 39.86 82.73C39.86 81.93 35.86 34.9 35.75 34.09L34.15 35.09L26.33 90.76C26.33 90.76 31.1 100.22 31.1 114.5C31.1 121.96 36.19 137.18 36.44 139.24C36.69 141.3 37.21 143.62 37.21 143.62C37.21 143.62 32.11 143.04 29.56 145.84C27.01 148.64 24.23 155.24 24.23 155.24C24.23 155.24 16.88 134.94 14.35 129.24C11.82 123.54 3.77999 101.41 3.50999 93.76C3.23999 86.11 1 44.81 1 39.21V26.47L1.06 26.58V26.47C1.1455 18.3264 2.1111 10.216 3.93999 2.28L65.01 1C69.15 11.26 67.04 23.64 67.04 23.64Z" fill="url(#paint0_linear_1_152)" stroke="var(--stroke-0, #263238)" stroke-linecap="round" stroke-linejoin="round"/>
<defs>
<linearGradient id="paint0_linear_1_152" x1="75.0111" y1="-94.1491" x2="-12.3803" y2="-70.9107" gradientUnits="userSpaceOnUse">
<stop stop-color="#B870F8"/>
<stop offset="1" stop-color="#681FA8"/>
</linearGradient>
</defs>
</svg>
