<svg preserveAspectRatio="none" width="100%" height="100%" overflow="visible" style="display: block;" viewBox="0 0 112 119" fill="none" xmlns="http://www.w3.org/2000/svg">
<path id="Vector" d="M110.758 115.156L96.7583 117.626L90.2183 79.3958L88.7883 70.9958C87.9883 69.6058 87.1183 68.1058 86.2183 66.5758C83.0083 61.0758 79.4583 55.1958 77.1383 52.2958C76.4583 51.4458 75.9083 50.7458 75.5283 50.2958L74.8683 49.4658L74.4583 52.5758C72.7616 65.4289 73.2246 78.4753 75.8283 91.1758L77.9183 101.406C77.9183 101.406 61.5783 109.056 49.8183 110.406C22.9683 113.526 7.86826 105.716 7.86826 105.716C7.74327 100.73 8.1963 95.747 9.21826 90.8658C16.4183 56.1358 -2.06174 12.8658 1.44826 7.39579C4.05826 3.33579 30.9683 1.0558 30.9683 1.0558C30.9683 1.0558 51.0583 0.475796 58.4083 3.0558L59.3083 3.62579C69.0783 7.01579 76.8383 10.6258 81.0583 13.7158C82.5698 15.4879 83.9091 17.3998 85.0583 19.4258C93.5089 32.8565 100.502 47.1508 105.918 62.0658C106.678 64.1358 107.248 65.8158 107.528 66.7558C108.808 71.3158 110.758 115.156 110.758 115.156Z" stroke="var(--stroke-0, #263238)" stroke-linecap="round" stroke-linejoin="round"/>
</svg>
