<svg preserveAspectRatio="none" width="100%" height="100%" overflow="visible" style="display: block;" viewBox="0 0 42 77" fill="none" xmlns="http://www.w3.org/2000/svg">
<g id="Group">
<path id="Vector" d="M26.8083 34.43C26.8083 34.43 26.2283 38.88 20.0583 52.73L39.6484 66.24L39.7184 66.36C41.5384 69.31 40.8984 77.89 33.9684 75.97C25.8884 73.72 4.39836 68.19 2.15836 64.31C-1.32164 58.31 3.49835 55.31 10.5083 27.98C12.5083 20.08 11.1884 22.2 13.4184 10.67C14.0829 7.04089 15.7849 3.68211 18.3184 1C22.7584 8.56 26.8083 34.43 26.8083 34.43Z" fill="var(--fill-0, white)" stroke="var(--stroke-0, #263238)" stroke-linecap="round" stroke-linejoin="round"/>
<path id="Vector_2" d="M21.6684 53.84C21.6684 53.84 24.8883 64.76 21.5583 72.38L26.8784 74.02C27.5747 68.5018 27.7354 62.9292 27.3584 57.38L21.6684 53.84Z" fill="url(#paint0_linear_1_209)"/>
<path id="Vector_3" opacity="0.6" d="M21.6684 53.84C21.6684 53.84 24.8883 64.76 21.5583 72.38L26.8784 74.02C27.5747 68.5018 27.7354 62.9292 27.3584 57.38L21.6684 53.84Z" fill="var(--fill-0, white)"/>
</g>
<defs>
<linearGradient id="paint0_linear_1_209" x1="28.2265" y1="42.0683" x2="20.1008" y2="43.6418" gradientUnits="userSpaceOnUse">
<stop stop-color="#B870F8"/>
<stop offset="1" stop-color="#681FA8"/>
</linearGradient>
</defs>
</svg>
