<svg preserveAspectRatio="none" width="100%" height="100%" overflow="visible" style="display: block;" viewBox="0 0 44 43" fill="none" xmlns="http://www.w3.org/2000/svg">
<g id="Group">
<path id="Vector" d="M21.0549 0C12.0083 0 4.29533 5.70582 1.31596 13.7147L0.749719 15.472C0.261852 17.2501 0 19.1218 0 21.0549C0 22.312 0.110602 23.5431 0.321836 24.7396L1.66607 29.2765C2.41527 31.041 3.39883 32.6816 4.57677 34.1607L7.62962 37.2744C11.2739 40.2942 15.9522 42.1097 21.0549 42.1097C32.6831 42.1097 42.1097 32.6831 42.1097 21.0549C42.1097 9.42657 32.6831 0 21.0549 0Z" fill="var(--fill-0, #1C2E7A)"/>
<path id="Vector_2" d="M41.2371 30.0297C39.3369 33.1355 35.6238 34.7866 31.9297 33.9427C29.231 33.4416 27.4081 32.2319 25.6315 31.3302C21.6578 29.1436 16.8221 29.1428 12.8463 31.3315C11.0706 32.233 9.24808 33.4419 6.55067 33.9427C5.90321 34.0906 5.24091 34.1638 4.57677 34.1607C5.48457 35.3008 6.5076 36.3442 7.62962 37.2744C9.66634 36.8543 11.7026 35.9991 13.5028 34.9422C14.7792 34.1919 16.165 33.6458 17.6101 33.3235L17.6076 33.3218C18.6902 33.1676 19.7892 33.1678 20.8718 33.3224L20.8703 33.3235C22.3154 33.6457 23.7012 34.1919 24.9776 34.9422C29.5174 37.6075 35.5585 38.9929 39.3208 35.3404C40.9507 33.7144 41.644 31.8718 41.6345 30.1371C41.6335 29.9209 41.3499 29.8452 41.2371 30.0297Z" fill="var(--fill-0, #FFDD40)"/>
<path id="Vector_3" d="M19.2402 25.5452C21.0877 25.5452 22.5854 22.5841 22.5854 18.9314C22.5854 15.2788 21.0877 12.3177 19.2402 12.3177C17.3927 12.3177 15.895 15.2788 15.895 18.9314C15.895 22.5841 17.3927 25.5452 19.2402 25.5452Z" fill="var(--fill-0, #FFC839)"/>
<path id="Vector_4" d="M19.8131 21.0544C20.7369 21.0544 21.4858 19.5739 21.4858 17.7476C21.4858 15.9212 20.7369 14.4407 19.8131 14.4407C18.8894 14.4407 18.1405 15.9212 18.1405 17.7476C18.1405 19.5739 18.8894 21.0544 19.8131 21.0544Z" fill="var(--fill-0, #FFDD40)"/>
<path id="Vector_5" d="M40.8029 14.8424C37.3139 12.3647 32.842 14.2826 31.6943 17.4872C31.8942 17.2161 32.1422 16.9841 32.4259 16.8027C32.7901 16.569 33.2044 16.4249 33.635 16.3819C34.8995 15.1866 37.0204 14.7669 38.7698 16.0092C41.2329 17.7585 41.7967 21.4499 39.1865 23.9589C37.9861 25.1127 36.3368 25.6679 34.6754 25.5592C31.241 25.3347 29.5208 23.9575 27.6564 23.1317C27.6293 23.1199 27.6052 23.1021 27.5859 23.0797C27.5666 23.0572 27.5526 23.0307 27.545 23.0021C27.5373 22.9736 27.5363 22.9436 27.5418 22.9146C27.5473 22.8855 27.5593 22.8581 27.5769 22.8343C30.7961 18.4441 30.4199 12.9258 27.6829 8.99138C23.5665 3.07398 14.914 3.07398 10.7976 8.99138C8.06068 12.9258 7.68436 18.4441 10.9037 22.8343C10.9213 22.8581 10.9333 22.8855 10.9388 22.9146C10.9443 22.9436 10.9432 22.9736 10.9356 23.0021C10.928 23.0307 10.914 23.0572 10.8947 23.0797C10.8754 23.1021 10.8513 23.1199 10.8242 23.1317C8.95976 23.9574 7.23955 25.3346 3.80523 25.5592C2.57873 25.6395 1.35945 25.3568 0.321836 24.7398C0.596717 26.2981 1.04769 27.8201 1.66607 29.2767C4.68282 29.892 8.07159 29.1775 10.8766 27.6117C11.8164 27.0871 12.7698 26.5955 14.3687 26.1276C14.824 25.9943 15.0094 25.4422 14.7189 25.0672C13.0327 22.8913 12.2298 20.0054 12.2298 17.2395C12.2298 12.1036 14.9012 7.7941 18.5042 6.61487C18.9824 6.45846 19.498 6.45846 19.9762 6.61487C23.5792 7.79402 26.2506 12.1035 26.2506 17.2395C26.2506 20.0054 25.4477 22.8913 23.7615 25.0672C23.4709 25.4422 23.6564 25.9943 24.1117 26.1276C25.7106 26.5954 26.664 27.0871 27.6038 27.6117C31.9671 30.0474 37.7431 30.4239 41.334 26.9378C45.5141 22.7676 44.3483 17.3603 40.8029 14.8424Z" fill="var(--fill-0, #FFDD40)"/>
<path id="Vector_6" d="M34.3793 29.4946C32.0904 27.8327 34.6753 25.559 34.6753 25.559C31.2409 25.3345 29.5207 23.9573 27.6563 23.1316C27.6292 23.1198 27.6051 23.102 27.5858 23.0796C27.5665 23.0571 27.5525 23.0306 27.5449 23.0021C27.5373 22.9735 27.5362 22.9435 27.5417 22.9145C27.5472 22.8854 27.5592 22.858 27.5768 22.8342C30.796 18.444 30.4198 12.9257 27.6828 8.9913C23.5664 3.0739 14.9139 3.0739 10.7975 8.9913C8.06059 12.9257 7.68427 18.444 10.9036 22.8342C10.9212 22.858 10.9332 22.8854 10.9387 22.9145C10.9442 22.9435 10.9431 22.9735 10.9355 23.0021C10.9279 23.0306 10.9139 23.0571 10.8946 23.0796C10.8753 23.102 10.8512 23.1198 10.8241 23.1316C8.95967 23.9573 7.23946 25.3345 3.80514 25.559C2.57864 25.6393 1.35936 25.3567 0.32175 24.7396C0.596643 26.2979 1.04761 27.82 1.66598 29.2766C4.68273 29.8919 8.07151 29.1774 10.8765 27.6116C11.8163 27.087 12.7697 26.5953 14.3686 26.1275C14.8239 25.9942 15.0093 25.4422 14.7188 25.0672C13.0326 22.8913 12.2297 20.0054 12.2297 17.2395C12.2297 12.1036 14.9011 7.7941 18.5041 6.61487C18.9823 6.45846 19.4979 6.45846 19.9761 6.61487C23.5791 7.79402 26.2506 12.1036 26.2506 17.2395C26.2506 20.0054 25.4476 22.8913 23.7615 25.0672C23.4708 25.4422 23.6563 25.9943 24.1117 26.1275C25.7105 26.5953 26.6639 27.087 27.6037 27.6116C29.6727 28.7664 32.0589 29.4578 34.3793 29.4946Z" fill="var(--fill-0, #FFB332)"/>
<path id="Vector_7" d="M4.8455 16.3818C5.27605 16.4248 5.69035 16.569 6.05455 16.8026C6.3383 16.984 6.5863 17.216 6.78623 17.4871C6.01915 15.3453 3.76707 13.7786 1.31596 13.7146C1.10142 14.2917 0.912483 14.8781 0.749719 15.4719C2.2422 14.9569 3.82353 15.4158 4.8455 16.3818Z" fill="var(--fill-0, #FF9100)"/>
<path id="Vector_8" d="M34.7136 21.619C36.1767 21.198 37.0216 19.6707 36.6007 18.2076C36.1798 16.7444 34.6524 15.8995 33.1893 16.3205C31.7261 16.7414 30.8813 18.2687 31.3022 19.7319C31.7231 21.195 33.2505 22.0399 34.7136 21.619Z" fill="var(--fill-0, #FFE888)"/>
<path id="Vector_9" d="M6.85764 20.4627C7.67843 19.1805 7.30434 17.4756 6.02207 16.6548C4.7398 15.834 3.03488 16.2081 2.21409 17.4903C1.3933 18.7726 1.76739 20.4775 3.04966 21.2983C4.33185 22.1191 6.03677 21.745 6.85764 20.4627Z" fill="var(--fill-0, #FFC839)"/>
<path id="Vector_10" d="M6.18881 18.4215C6.22732 17.7326 5.70009 17.1429 5.01122 17.1044C4.32234 17.0659 3.73267 17.5931 3.69415 18.282C3.65564 18.9709 4.18286 19.5605 4.87174 19.599C5.56062 19.6376 6.15029 19.1103 6.18881 18.4215Z" fill="var(--fill-0, #FFDD40)"/>
<path id="Vector_11" d="M35.3863 19.0314C35.7583 18.4503 35.5888 17.6776 35.0077 17.3057C34.4266 16.9336 33.6539 17.1032 33.282 17.6843C32.91 18.2654 33.0795 19.038 33.6606 19.41C34.2417 19.782 35.0144 19.6125 35.3863 19.0314Z" fill="var(--fill-0, #FFF2BD)"/>
<path id="Vector_12" d="M7.42577 24.7676C6.43646 25.1538 5.27888 25.4627 3.80514 25.559C2.57864 25.6393 1.35936 25.3567 0.32175 24.7396C0.596643 26.2979 1.04761 27.82 1.66598 29.2766C4.07559 29.7681 6.7222 29.4105 9.11943 28.449C6.62681 27.6374 7.20148 25.4085 7.42577 24.7676Z" fill="var(--fill-0, #FF9100)"/>
<path id="Vector_13" d="M12.8463 31.3315C11.0706 32.233 9.24808 33.4419 6.55067 33.9427C5.90321 34.0906 5.24091 34.1638 4.57677 34.1607C5.48457 35.3008 6.5076 36.3442 7.62962 37.2744C9.66634 36.8543 11.7026 35.9991 13.5028 34.9422C14.7792 34.1919 16.165 33.6457 17.6101 33.3235L17.6076 33.3218C18.6902 33.1675 19.7892 33.1677 20.8718 33.3224L20.8703 33.3235C22.3154 33.6457 23.7012 34.1919 24.9776 34.9422C26.7229 35.9668 28.69 36.8019 30.6643 37.2347C29.3147 34.7133 31.9297 33.9427 31.9297 33.9427C29.231 33.4416 27.4081 32.2319 25.6315 31.3302C21.6578 29.1436 16.8221 29.1428 12.8463 31.3315Z" fill="var(--fill-0, #FFB332)"/>
<path id="Vector_14" d="M13.5028 34.9422C10.8043 34.3536 11.7886 31.8904 11.7886 31.8904C10.3211 32.6804 8.71862 33.5402 6.55076 33.9427C5.90329 34.0906 5.24099 34.1638 4.57686 34.1607C5.48465 35.3008 6.50768 36.3442 7.6297 37.2744C9.66625 36.8544 11.7026 35.9991 13.5028 34.9422Z" fill="var(--fill-0, #FF9100)"/>
<path id="Vector_15" d="M35.4692 11.3909C35.8607 11.3909 36.1781 11.0735 36.1781 10.6819C36.1781 10.2904 35.8607 9.97296 35.4692 9.97296C35.0776 9.97296 34.7602 10.2904 34.7602 10.6819C34.7602 11.0735 35.0776 11.3909 35.4692 11.3909Z" fill="var(--fill-0, #6289CC)"/>
<path id="Vector_16" d="M21.2786 37.9217C21.6701 37.9217 21.9875 37.6043 21.9875 37.2127C21.9875 36.8212 21.6701 36.5038 21.2786 36.5038C20.887 36.5038 20.5696 36.8212 20.5696 37.2127C20.5696 37.6043 20.887 37.9217 21.2786 37.9217Z" fill="var(--fill-0, #6289CC)"/>
<g id="Group_2">
<path id="Vector_17" d="M32.4054 8.72841C32.9013 8.23248 32.9013 7.42843 32.4054 6.9325C31.9095 6.43658 31.1054 6.43658 30.6095 6.9325C30.1136 7.42843 30.1136 8.23248 30.6095 8.72841C31.1054 9.22434 31.9095 9.22434 32.4054 8.72841Z" fill="var(--fill-0, #2A428C)"/>
<path id="Vector_18" d="M16.681 39.0961C17.177 38.6001 17.177 37.7961 16.681 37.3002C16.1851 36.8042 15.3811 36.8042 14.8851 37.3002C14.3892 37.7961 14.3892 38.6001 14.8851 39.0961C15.3811 39.592 16.1851 39.592 16.681 39.0961Z" fill="var(--fill-0, #2A428C)"/>
<path id="Vector_19" d="M5.80577 11.9518C6.50711 11.9518 7.07566 11.3833 7.07566 10.6819C7.07566 9.9806 6.50711 9.41205 5.80577 9.41205C5.10442 9.41205 4.53587 9.9806 4.53587 10.6819C4.53587 11.3833 5.10442 11.9518 5.80577 11.9518Z" fill="var(--fill-0, #2A428C)"/>
</g>
<path id="Vector_20" d="M40.8029 14.8424C40.5379 14.6539 40.2588 14.486 39.9682 14.3402C39.9681 14.3402 38.364 14.2623 38.7697 16.0091C40.6269 17.328 41.4033 19.7509 40.5546 21.9387L40.5549 21.9395C40.5549 21.9395 41.1819 24.3582 43.6153 23.3494C44.7047 20.044 43.3855 16.6766 40.8029 14.8424Z" fill="var(--fill-0, #FFE888)"/>
</g>
</svg>
