<svg preserveAspectRatio="none" width="100%" height="100%" overflow="visible" style="display: block;" viewBox="0 0 40 66" fill="none" xmlns="http://www.w3.org/2000/svg">
<path id="Vector" d="M28.0535 3.4598C34.0535 7.5198 40.2735 22.2998 39.3835 27.9798C38.4935 33.6598 32.1335 34.5098 32.1335 34.5098C32.1335 34.5098 28.2135 42.5098 36.4635 53.7698C40.1935 58.8798 23.7335 67.2898 18.1535 65.0798C12.5735 62.8698 14.1535 55.8698 15.1035 52.6198C17.7035 43.7598 13.7035 38.2298 13.7035 38.2298C11.4374 38.2505 9.18469 37.8818 7.04347 37.1398C4.49347 36.4298 5.04347 34.6498 4.60347 31.8498C4.20347 29.2798 3.60347 24.5098 3.60347 24.5098C2.60347 23.1698 0.343486 21.5098 1.18349 19.6998C1.95349 18.0298 4.51347 17.6998 5.73347 16.5298C7.73347 14.5298 7.96348 10.3498 10.0535 6.58981C12.1435 2.82981 17.1935 1.58981 17.1935 1.58981C17.1935 1.58981 22.0835 -0.600199 28.0535 3.4598Z" fill="var(--fill-0, white)" stroke="var(--stroke-0, #263238)" stroke-linecap="round" stroke-linejoin="round"/>
</svg>
