<svg preserveAspectRatio="none" width="100%" height="100%" overflow="visible" style="display: block;" viewBox="0 0 12 20" fill="none" xmlns="http://www.w3.org/2000/svg">
<path id="Vector" d="M8.48346 8.63549C8.67381 9.28795 8.7115 9.97546 8.59359 10.6448C8.47567 11.3141 8.20532 11.9474 7.80347 12.4955C7.80347 12.4955 15.5535 20.7655 6.98346 19.3455C5.55778 19.0391 4.17908 18.5448 2.88347 17.8755C2.4595 17.703 2.06997 17.4558 1.73346 17.1455C1.19449 16.483 0.936075 15.636 1.01346 14.7855C1.12724 13.1562 1.74199 11.6019 2.77347 10.3355C2.7059 9.04767 2.97834 7.76473 3.56346 6.61551C4.94346 4.46551 6.98346 3.9355 7.29346 3.0655C8.47346 -0.374497 9.93346 1.0655 9.87346 3.1755C9.76116 4.39806 9.30334 5.56342 8.55347 6.5355C8.33071 6.82166 8.20777 7.17289 8.20346 7.5355V7.58551C8.24172 7.94792 8.33619 8.30215 8.48346 8.63549Z" fill="var(--fill-0, white)" stroke="var(--stroke-0, #263238)" stroke-linecap="round" stroke-linejoin="round"/>
</svg>
