<svg preserveAspectRatio="none" width="100%" height="100%" overflow="visible" style="display: block;" viewBox="0 0 23 24" fill="none" xmlns="http://www.w3.org/2000/svg">
<g id="Group">
<path id="Vector" d="M19.329 4.67102L14.8814 9.11869C13.9705 8.20782 12.7122 7.64434 11.3227 7.64434V1.35469C14.4492 1.35469 17.2802 2.6217 19.329 4.67102Z" fill="url(#paint0_linear_1_703)"/>
<path id="Vector_2" d="M7.58329 9.11865C6.67242 10.0295 6.17369 11.0928 6.17369 12.4824L3.05718 12.6773H0C0 9.55083 1.26701 6.71978 3.31633 4.67098L5.51214 6.86679L7.58329 9.11865Z" fill="url(#paint1_linear_1_703)"/>
<path id="Vector_3" d="M11.3227 1.35469V7.64434C9.93313 7.64434 8.67487 8.20782 7.764 9.11869L3.31633 4.67102C5.36513 2.6217 8.19619 1.35469 11.3227 1.35469Z" fill="url(#paint2_linear_1_703)"/>
<path id="Vector_4" d="M22.6454 12.6773H16.3557C16.3557 11.2878 15.7922 10.0295 14.8814 9.11865L19.329 4.67098C21.3784 6.71978 22.6454 9.55083 22.6454 12.6773Z" fill="url(#paint3_linear_1_703)"/>
<path id="Vector_5" d="M22.6454 12.6773C22.6454 15.8038 21.3784 18.6349 19.329 20.6837L14.8814 16.236C15.7922 15.3251 16.3557 14.0669 16.3557 12.6773H22.6454Z" fill="url(#paint4_linear_1_703)"/>
<path id="Vector_6" d="M7.764 16.236L3.31633 20.6837C1.26701 18.6349 0 15.8038 0 12.6773H6.28965C6.28965 14.0669 6.85313 15.3251 7.764 16.236Z" fill="url(#paint5_linear_1_703)"/>
<path id="Vector_7" d="M19.329 20.6837C17.2802 22.733 14.4492 24 11.3227 24V17.7104C12.7122 17.7104 13.9705 17.1469 14.8814 16.236L19.329 20.6837Z" fill="url(#paint6_linear_1_703)"/>
<path id="Vector_8" d="M11.3227 17.7104V24C8.19619 24 5.36513 22.733 3.31633 20.6837L7.764 16.236C8.67487 17.1469 9.93313 17.7104 11.3227 17.7104Z" fill="url(#paint7_linear_1_703)"/>
<path id="Vector_9" d="M17.3962 6.60378L14.8814 9.11865C13.9705 8.20778 12.7122 7.64429 11.3227 7.64429V4.08839C13.6948 4.08839 15.8415 5.04956 17.3962 6.60378Z" fill="url(#paint8_linear_1_703)"/>
<path id="Vector_10" d="M7.764 9.11865C6.85313 10.0295 6.28965 11.2878 6.28965 12.6773H2.73369C2.73369 10.3052 3.69487 8.15855 5.24913 6.60378L7.764 9.11865Z" fill="url(#paint9_linear_1_703)"/>
<path id="Vector_11" d="M11.3227 4.08839V7.64434C9.93313 7.64434 8.67487 8.20782 7.764 9.11869L5.24913 6.60382C6.80391 5.04956 8.95059 4.08839 11.3227 4.08839Z" fill="url(#paint10_linear_1_703)"/>
<path id="Vector_12" d="M19.9117 12.6773H16.3557C16.3557 11.2878 15.7922 10.0295 14.8814 9.11865L17.3962 6.60378C18.9504 8.15855 19.9117 10.3052 19.9117 12.6773Z" fill="url(#paint11_linear_1_703)"/>
<path id="Vector_13" d="M19.9117 12.6773C19.9117 15.0494 18.9504 17.1961 17.3962 18.7509L14.8814 16.236C15.7922 15.3251 16.3557 14.0669 16.3557 12.6773H19.9117Z" fill="url(#paint12_linear_1_703)"/>
<path id="Vector_14" d="M7.764 16.236L5.24913 18.7509C3.69492 17.1961 2.73369 15.0494 2.73369 12.6773H6.28965C6.28965 14.0669 6.85313 15.3251 7.764 16.236Z" fill="url(#paint13_linear_1_703)"/>
<path id="Vector_15" d="M17.3962 18.7509C15.8415 20.3051 13.6948 21.2663 11.3227 21.2663V17.7104C12.7122 17.7104 13.9705 17.1469 14.8814 16.236L17.3962 18.7509Z" fill="url(#paint14_linear_1_703)"/>
<path id="Vector_16" d="M11.3227 17.7104V21.2663C8.95059 21.2663 6.80391 20.3051 5.24913 18.7509L7.764 16.236C8.67487 17.1469 9.93313 17.7104 11.3227 17.7104Z" fill="url(#paint15_linear_1_703)"/>
<path id="Vector_17" d="M22.6454 12.6773H16.3557C16.3557 11.2878 15.7922 10.0295 14.8814 9.11865L19.329 4.67098C21.3784 6.71978 22.6454 9.55083 22.6454 12.6773Z" fill="url(#paint16_linear_1_703)"/>
<path id="Vector_18" d="M20.1102 5.11305L15.3116 9.91163C14.9927 10.2305 14.4871 10.2549 14.1337 9.97469C13.1603 9.20293 11.9714 8.69116 10.6721 8.54443C10.2295 8.49446 9.89821 8.1138 9.89821 7.66834V0.882834C9.89821 0.372669 10.3293 -0.0291193 10.8385 0.00165718C14.3728 0.215163 17.585 1.62434 20.0747 3.8306C20.4541 4.16679 20.4685 4.75465 20.1102 5.11305Z" fill="url(#paint17_linear_1_703)"/>
</g>
<defs>
<linearGradient id="paint0_linear_1_703" x1="10.0971" y1="0.928904" x2="17.5827" y2="8.41455" gradientUnits="userSpaceOnUse">
<stop stop-color="#FFF5D9"/>
<stop offset="1" stop-color="#FFCE47"/>
</linearGradient>
<linearGradient id="paint1_linear_1_703" x1="1.41595" y1="8.43192" x2="4.67167" y2="11.6877" gradientUnits="userSpaceOnUse">
<stop stop-color="#6FA953"/>
<stop offset="1" stop-color="#43765A"/>
</linearGradient>
<linearGradient id="paint2_linear_1_703" x1="6.90748" y1="2.60081" x2="11.3108" y2="7.0041" gradientUnits="userSpaceOnUse">
<stop stop-color="#E4E08E"/>
<stop offset="1" stop-color="#6FA953"/>
</linearGradient>
<linearGradient id="paint3_linear_1_703" x1="14.9383" y1="5.77008" x2="22.085" y2="12.9169" gradientUnits="userSpaceOnUse">
<stop stop-color="#FFCE47"/>
<stop offset="1" stop-color="#FF9356"/>
</linearGradient>
<linearGradient id="paint4_linear_1_703" x1="16.526" y1="12.2193" x2="20.6691" y2="16.3624" gradientUnits="userSpaceOnUse">
<stop stop-color="#FF9356"/>
<stop offset="1" stop-color="#FF755C"/>
</linearGradient>
<linearGradient id="paint5_linear_1_703" x1="0.846071" y1="12.7236" x2="5.72122" y2="17.5987" gradientUnits="userSpaceOnUse">
<stop stop-color="#7ACBFF"/>
<stop offset="1" stop-color="#45A2E0"/>
</linearGradient>
<linearGradient id="paint6_linear_1_703" x1="11.3147" y1="18.3307" x2="15.4046" y2="22.4206" gradientUnits="userSpaceOnUse">
<stop stop-color="#FF755C"/>
<stop offset="1" stop-color="#FF4181"/>
</linearGradient>
<linearGradient id="paint7_linear_1_703" x1="4.33341" y1="16.2109" x2="14.2231" y2="26.1006" gradientUnits="userSpaceOnUse">
<stop stop-color="#FF4181"/>
<stop offset="1" stop-color="#843561"/>
</linearGradient>
<linearGradient id="paint8_linear_1_703" x1="10.6969" y1="3.46147" x2="16.3752" y2="9.13982" gradientUnits="userSpaceOnUse">
<stop stop-color="#FFF5D9"/>
<stop offset="1" stop-color="#FFCE47"/>
</linearGradient>
<linearGradient id="paint9_linear_1_703" x1="6.74099" y1="12.3901" x2="1.03087" y2="6.68001" gradientUnits="userSpaceOnUse">
<stop stop-color="#6FA953"/>
<stop offset="1" stop-color="#43765A"/>
</linearGradient>
<linearGradient id="paint10_linear_1_703" x1="10.7346" y1="7.79479" x2="5.65289" y2="2.71305" gradientUnits="userSpaceOnUse">
<stop stop-color="#E4E08E"/>
<stop offset="1" stop-color="#6FA953"/>
</linearGradient>
<linearGradient id="paint11_linear_1_703" x1="19.8575" y1="12.6221" x2="14.4929" y2="7.25747" gradientUnits="userSpaceOnUse">
<stop stop-color="#FFCE47"/>
<stop offset="1" stop-color="#FF9356"/>
</linearGradient>
<linearGradient id="paint12_linear_1_703" x1="19.4877" y1="16.5479" x2="15.9037" y2="12.9638" gradientUnits="userSpaceOnUse">
<stop stop-color="#FF9356"/>
<stop offset="1" stop-color="#FF755C"/>
</linearGradient>
<linearGradient id="paint13_linear_1_703" x1="8.14913" y1="18.0938" x2="1.532" y2="11.4767" gradientUnits="userSpaceOnUse">
<stop stop-color="#7ACBFF"/>
<stop offset="1" stop-color="#45A2E0"/>
</linearGradient>
<linearGradient id="paint14_linear_1_703" x1="15.3847" y1="21.0338" x2="10.5616" y2="16.2107" gradientUnits="userSpaceOnUse">
<stop stop-color="#FF755C"/>
<stop offset="1" stop-color="#FF4181"/>
</linearGradient>
<linearGradient id="paint15_linear_1_703" x1="11.4315" y1="21.3763" x2="5.54541" y2="15.4901" gradientUnits="userSpaceOnUse">
<stop stop-color="#FF4181"/>
<stop offset="1" stop-color="#843561"/>
</linearGradient>
<linearGradient id="paint16_linear_1_703" x1="18.7177" y1="9.54947" x2="16.6845" y2="7.51629" gradientUnits="userSpaceOnUse">
<stop stop-color="#FF9356" stop-opacity="0"/>
<stop offset="1" stop-color="#FF755C"/>
</linearGradient>
<linearGradient id="paint17_linear_1_703" x1="10.1264" y1="1.07225" x2="16.943" y2="7.88881" gradientUnits="userSpaceOnUse">
<stop stop-color="#FFF5D9"/>
<stop offset="1" stop-color="#FFCE47"/>
</linearGradient>
</defs>
</svg>
