<svg preserveAspectRatio="none" width="100%" height="100%" overflow="visible" style="display: block;" viewBox="0 0 127 35" fill="none" xmlns="http://www.w3.org/2000/svg">
<path id="Vector" d="M61.4514 3.13552C59.6134 1.80565 57.4162 1.06256 55.1483 1.00378C52.8804 0.944995 50.6477 1.57326 48.7432 2.80613C46.8388 4.039 45.3515 5.81885 44.4767 7.91209C43.602 10.0053 43.3805 12.3142 43.8414 14.5355C43.8698 14.691 43.8662 14.8507 43.8307 15.0048C43.7951 15.1588 43.7285 15.304 43.6349 15.4313C43.5412 15.5587 43.4225 15.6655 43.2861 15.7454C43.1496 15.8252 42.9983 15.8763 42.8414 15.8955C41.5849 16.0778 40.426 16.6766 39.5502 17.5958C38.6745 18.5151 38.1326 19.7017 38.0114 20.9655C38.0065 21.1323 37.966 21.2961 37.8925 21.446C37.8191 21.5958 37.7145 21.7282 37.5857 21.8343C37.4569 21.9404 37.3069 22.0177 37.1457 22.061C36.9846 22.1043 36.816 22.1127 36.6514 22.0855C35.7907 21.9533 34.9114 22.0129 34.0764 22.2602C33.2414 22.5074 32.4714 22.9361 31.8214 23.5155C31.6913 23.6384 31.5347 23.7297 31.3637 23.7826C31.1927 23.8354 31.0119 23.8483 30.8351 23.8203C30.6584 23.7923 30.4904 23.7241 30.3441 23.621C30.1978 23.5179 30.0772 23.3826 29.9914 23.2255C25.1014 14.4055 12.5614 17.3855 7.92139 24.2255C5.86139 27.2255 4.1114 30.4855 1.2814 32.4955C1.16713 32.5728 1.08089 32.685 1.03555 32.8153C0.99021 32.9456 0.988185 33.087 1.02978 33.2186C1.07138 33.3501 1.15437 33.4647 1.26639 33.5453C1.37841 33.6258 1.51345 33.668 1.6514 33.6655L117.521 32.7355C124.151 32.6655 128.241 25.0855 124.291 19.7355C122.817 17.8308 120.671 16.5609 118.291 16.1855C115.661 15.6555 113.081 17.1855 111.291 19.3855C111.144 19.5579 110.949 19.6837 110.731 19.7474C110.513 19.8111 110.281 19.81 110.064 19.7443C109.847 19.6785 109.653 19.551 109.507 19.3772C109.361 19.2034 109.269 18.9909 109.241 18.7655C108.241 11.5355 102.361 5.01553 95.1014 3.76553C87.6314 2.44553 79.6614 6.82553 76.3714 13.5755C76.2806 13.7559 76.1447 13.9096 75.9769 14.0219C75.8091 14.1342 75.6151 14.2011 75.4138 14.2162C75.2125 14.2313 75.0107 14.1941 74.828 14.1081C74.6454 14.0221 74.4881 13.8903 74.3714 13.7255C74.0057 13.2348 73.5467 12.8211 73.0208 12.5082C72.4948 12.1953 71.9123 11.9892 71.3065 11.9019C70.7008 11.8146 70.0838 11.8477 69.4909 11.9993C68.898 12.1509 68.3408 12.4181 67.8514 12.7855C67.6858 12.9174 67.4873 13.0014 67.2773 13.0285C67.0674 13.0556 66.854 13.0248 66.6603 12.9393C66.4666 12.8538 66.3001 12.7169 66.1786 12.5435C66.0572 12.3701 65.9855 12.1668 65.9714 11.9555C65.6514 8.55553 64.5314 5.37552 61.4514 3.13552Z" fill="var(--fill-0, white)" fill-opacity="0.05" stroke="var(--stroke-0, white)" stroke-opacity="0.1" stroke-miterlimit="10"/>
</svg>
