<svg preserveAspectRatio="none" width="100%" height="100%" overflow="visible" style="display: block;" viewBox="0 0 107 65" fill="none" xmlns="http://www.w3.org/2000/svg">
<g id="Group">
<path id="Vector" d="M87.44 47.79L88.79 55.69C88.79 55.69 101.99 67.22 106.06 64.37L105.44 59.62C105.44 59.62 91.24 52.38 87.44 47.79Z" fill="url(#paint0_linear_1_111)"/>
<path id="Vector_2" opacity="0.6" d="M87.44 47.79L88.79 55.69C88.79 55.69 101.99 67.22 106.06 64.37L105.44 59.62C105.44 59.62 91.24 52.38 87.44 47.79Z" fill="var(--fill-0, white)"/>
<path id="Vector_3" d="M0.110001 17.67C0.110001 17.67 3.33 28.59 0 36.21L5.32001 37.85C6.01635 32.3318 6.17709 26.7592 5.8 21.21L0.110001 17.67Z" fill="url(#paint1_linear_1_111)"/>
<path id="Vector_4" opacity="0.6" d="M0.110001 17.67C0.110001 17.67 3.33 28.59 0 36.21L5.32001 37.85C6.01635 32.3318 6.17709 26.7592 5.8 21.21L0.110001 17.67Z" fill="var(--fill-0, white)"/>
<path id="Vector_5" d="M23.92 21.24C24.92 23.38 25.92 25.61 25.92 27.98C25.81 33.3 20.58 36.87 15.92 39.49C26.2374 36.0152 37.1847 34.8144 48.01 35.97C45.24 35.68 40.35 30.27 38.26 28.48C34.952 25.6539 31.8007 22.6494 28.82 19.48C23.1427 13.5624 18.145 7.02844 13.92 0C17.2 7.11 20.59 14.16 23.92 21.24Z" fill="url(#paint2_linear_1_111)"/>
<path id="Vector_6" opacity="0.6" d="M23.92 21.24C24.92 23.38 25.92 25.61 25.92 27.98C25.81 33.3 20.58 36.87 15.92 39.49C26.2374 36.0152 37.1847 34.8144 48.01 35.97C45.24 35.68 40.35 30.27 38.26 28.48C34.952 25.6539 31.8007 22.6494 28.82 19.48C23.1427 13.5624 18.145 7.02844 13.92 0C17.2 7.11 20.59 14.16 23.92 21.24Z" fill="var(--fill-0, white)"/>
<path id="Vector_7" d="M46.29 26.45C48.7923 26.9326 51.3737 26.8105 53.8193 26.0939C56.2649 25.3773 58.5039 24.0868 60.35 22.33C57.96 20.79 54.84 21.79 52.02 22.13C48.7885 22.5028 45.5177 21.9479 42.59 20.53C41.36 19.93 36.7 15.39 35.45 16.26C31.75 18.91 44.52 26.12 46.29 26.45Z" fill="url(#paint3_linear_1_111)"/>
<path id="Vector_8" opacity="0.6" d="M46.29 26.45C48.7923 26.9326 51.3737 26.8105 53.8193 26.0939C56.2649 25.3773 58.5039 24.0868 60.35 22.33C57.96 20.79 54.84 21.79 52.02 22.13C48.7885 22.5028 45.5177 21.9479 42.59 20.53C41.36 19.93 36.7 15.39 35.45 16.26C31.75 18.91 44.52 26.12 46.29 26.45Z" fill="var(--fill-0, white)"/>
<path id="Vector_9" d="M55.84 43.38C53.68 43.5 50.1 41.38 47.84 40.89C44.9631 40.3094 42.0349 40.0213 39.1 40.03C34.1 40.03 26.76 40.54 22.58 43.54C24.67 46.9 33.74 44.63 37.18 44.44L55.84 43.38Z" fill="url(#paint4_linear_1_111)"/>
<path id="Vector_10" opacity="0.6" d="M55.84 43.38C53.68 43.5 50.1 41.38 47.84 40.89C44.9631 40.3094 42.0349 40.0213 39.1 40.03C34.1 40.03 26.76 40.54 22.58 43.54C24.67 46.9 33.74 44.63 37.18 44.44L55.84 43.38Z" fill="var(--fill-0, white)"/>
<path id="Vector_11" d="M82.33 9.45C82.23 9.2 82.06 8.9 81.78 8.93C81.5 8.96 81.4 9.30001 81.37 9.58001C80.8496 12.6343 80.6419 15.7336 80.75 18.83C80.8536 21.9378 81.8999 24.9407 83.75 27.44C82.59 25.99 84.13 20.98 84.23 19.15C84.2603 15.8213 83.6139 12.5212 82.33 9.45Z" fill="url(#paint5_linear_1_111)"/>
<path id="Vector_12" opacity="0.6" d="M82.33 9.45C82.23 9.2 82.06 8.9 81.78 8.93C81.5 8.96 81.4 9.30001 81.37 9.58001C80.8496 12.6343 80.6419 15.7336 80.75 18.83C80.8536 21.9378 81.8999 24.9407 83.75 27.44C82.59 25.99 84.13 20.98 84.23 19.15C84.2603 15.8213 83.6139 12.5212 82.33 9.45Z" fill="var(--fill-0, white)"/>
</g>
<defs>
<linearGradient id="paint0_linear_1_111" x1="108.139" y1="37.8541" x2="90.776" y2="50.2195" gradientUnits="userSpaceOnUse">
<stop stop-color="#B870F8"/>
<stop offset="1" stop-color="#681FA8"/>
</linearGradient>
<linearGradient id="paint1_linear_1_111" x1="6.66811" y1="5.89833" x2="-1.45755" y2="7.47185" gradientUnits="userSpaceOnUse">
<stop stop-color="#B870F8"/>
<stop offset="1" stop-color="#681FA8"/>
</linearGradient>
<linearGradient id="paint2_linear_1_111" x1="51.8162" y1="-23.0358" x2="15.4172" y2="-2.56535" gradientUnits="userSpaceOnUse">
<stop stop-color="#B870F8"/>
<stop offset="1" stop-color="#681FA8"/>
</linearGradient>
<linearGradient id="paint3_linear_1_111" x1="63.2048" y1="9.97216" x2="52.8613" y2="26.2422" gradientUnits="userSpaceOnUse">
<stop stop-color="#B870F8"/>
<stop offset="1" stop-color="#681FA8"/>
</linearGradient>
<linearGradient id="paint4_linear_1_111" x1="59.5535" y1="36.9173" x2="56.8811" y2="47.7699" gradientUnits="userSpaceOnUse">
<stop stop-color="#B870F8"/>
<stop offset="1" stop-color="#681FA8"/>
</linearGradient>
<linearGradient id="paint5_linear_1_111" x1="84.6228" y1="-1.8708" x2="79.7654" y2="-1.27101" gradientUnits="userSpaceOnUse">
<stop stop-color="#B870F8"/>
<stop offset="1" stop-color="#681FA8"/>
</linearGradient>
</defs>
</svg>
