<svg preserveAspectRatio="none" width="100%" height="100%" overflow="visible" style="display: block;" viewBox="0 0 24 24" fill="none" xmlns="http://www.w3.org/2000/svg">
<g id="Group">
<path id="Vector" d="M0.56366 5.48102C0.379113 4.91008 0.32966 4.35415 0.41516 3.81382C0.500894 3.27382 0.692941 2.76991 0.991394 2.30266C1.29008 1.83593 1.6746 1.4276 2.14536 1.07805C2.61571 0.729068 3.1438 0.459724 3.7296 0.270396C4.34333 0.0721146 4.96147 -0.0170885 5.58299 0.00269273C6.2046 0.022849 6.78707 0.153911 7.33072 0.395974C7.87414 0.638411 8.35152 0.980974 8.76294 1.42357C9.17422 1.86668 9.48364 2.40907 9.6913 3.05172C9.94049 3.82282 9.99196 4.56729 9.84529 5.2849C9.6988 6.00288 9.44905 6.69461 9.0966 7.36038C8.7441 8.02652 8.33357 8.65975 7.86538 9.26069C7.397 9.86163 6.96707 10.4345 6.57524 10.9789C6.18355 11.5236 5.8761 12.0369 5.65344 12.5188C5.43064 13.0012 5.3863 13.4492 5.52018 13.8632L5.78314 14.6771L12.081 12.6417C12.2808 12.5772 12.4868 12.617 12.6992 12.7613C12.9114 12.9057 13.0615 13.1138 13.1491 13.3848C13.2367 13.6563 13.2392 13.9198 13.1562 14.1751C13.0731 14.4308 12.9315 14.5908 12.7318 14.6555L5.1058 17.1201C4.89158 17.1893 4.64821 17.1932 4.37596 17.1311C4.10347 17.0694 3.93064 16.9242 3.85682 16.6956L3.18524 14.6178C3.00069 14.0469 3.00013 13.4593 3.1836 12.8558C3.36707 12.2525 3.64649 11.6416 4.02257 11.0231C4.39832 10.405 4.82164 9.78733 5.29241 9.16952C5.76318 8.55246 6.18889 7.94182 6.56943 7.33736C6.94972 6.73366 7.23538 6.14041 7.42583 5.55832C7.61628 4.97622 7.6213 4.40697 7.44135 3.84996C7.35824 3.59285 7.23022 3.34258 7.05664 3.09883C6.88344 2.8555 6.66571 2.65755 6.40368 2.50558C6.14164 2.3538 5.8423 2.25747 5.50574 2.21608C5.16903 2.1753 4.8006 2.21922 4.40108 2.34851C3.80122 2.54219 3.34583 2.87875 3.03561 3.35758C2.72493 3.83641 2.68757 4.43993 2.92302 5.16832C2.99225 5.38235 2.94847 5.61363 2.79196 5.86118C2.63539 6.10929 2.37149 6.29294 2.00019 6.4129C1.70028 6.50993 1.42522 6.50041 1.17472 6.38393C0.92441 6.26768 0.720644 5.96683 0.563706 5.48107L0.56366 5.48102Z" fill="url(#paint0_linear_1_539)"/>
<path id="Vector_2" d="M18.5038 21.3865C19.4342 21.3865 20.1208 21.1693 20.5637 20.7337C21.0061 20.2987 21.2277 19.5854 21.2277 18.595V18.1673C21.2277 17.2668 20.9763 16.6331 20.4737 16.265C19.9707 15.8975 19.3065 15.7135 18.4813 15.7135C18.196 15.7135 17.9973 15.6161 17.8847 15.4209C17.7723 15.2259 17.7159 15.0082 17.7159 14.7679C17.7159 14.513 17.7723 14.2878 17.8847 14.0927C17.9973 13.8978 18.196 13.7998 18.4813 13.7998C18.8264 13.7998 19.1416 13.7662 19.4268 13.6986C19.712 13.6312 19.9593 13.5072 20.1697 13.3272C20.3799 13.1471 20.5412 12.896 20.6538 12.573C20.7665 12.2504 20.8227 11.834 20.8227 11.3237C20.8227 10.4985 20.6313 9.90536 20.2486 9.54522C19.8659 9.18504 19.3065 9.00485 18.5714 9.00485C18.1211 9.00485 17.7457 9.05758 17.4458 9.16254C17.1454 9.26782 16.9055 9.40661 16.7255 9.57893C16.5453 9.75157 16.4177 9.95041 16.3428 10.1755C16.2673 10.4007 16.2302 10.6257 16.2302 10.8509C16.2302 11.1513 16.1514 11.3876 15.9938 11.5601C15.8361 11.7328 15.5397 11.8188 15.1046 11.8188C14.5791 11.8188 14.2413 11.7439 14.0915 11.5938C13.9412 11.444 13.8665 11.1513 13.8665 10.7158C13.8665 10.3556 13.9373 9.95426 14.0802 9.51133C14.2227 9.06897 14.4742 8.65586 14.8344 8.27318C15.1945 7.89049 15.6785 7.56804 16.2864 7.30511C16.8943 7.04271 17.6632 6.91122 18.5939 6.91122C19.254 6.91122 19.8621 6.98266 20.4174 7.12511C20.9724 7.26794 21.4491 7.49665 21.8468 7.81174C22.2443 8.12688 22.5561 8.5398 22.7811 9.0499C23.0064 9.56022 23.1188 10.1831 23.1188 10.9183C23.1188 11.8639 22.9536 12.6631 22.6235 13.3159C22.2932 13.9687 21.8581 14.4228 21.3179 14.6778C21.9933 14.9333 22.5448 15.3385 22.9725 15.8935C23.4002 16.4488 23.6141 17.2071 23.6141 18.1673V18.595C23.6141 19.4955 23.479 20.2574 23.2089 20.88C22.9388 21.5029 22.5708 22.0094 22.1059 22.3996C21.6404 22.79 21.0962 23.0714 20.4737 23.2437C19.8507 23.416 19.1866 23.5026 18.4813 23.5026C17.5956 23.5026 16.8416 23.3788 16.2188 23.1311C15.5959 22.8836 15.0821 22.5684 14.6767 22.1857C14.2717 21.8029 13.975 21.3791 13.7875 20.9137C13.5999 20.4488 13.5061 19.9907 13.5061 19.5406C13.5061 19.1504 13.5885 18.8841 13.7539 18.7413C13.9189 18.5988 14.2041 18.5275 14.6093 18.5275C15.1046 18.5275 15.4346 18.6027 15.5999 18.7527C15.7649 18.9028 15.8475 19.1279 15.8475 19.428C15.8475 19.9233 16.0614 20.3735 16.4891 20.7787C16.9166 21.184 17.5883 21.3865 18.5038 21.3865Z" fill="url(#paint1_linear_1_539)"/>
<path id="Vector_3" d="M14.8344 8.27318C14.7696 8.3425 14.7074 8.41414 14.6478 8.48796L16.3409 10.1811L16.3426 10.1756C16.4175 9.95041 16.5453 9.75176 16.7255 9.57893C16.9055 9.4068 17.1454 9.26782 17.4458 9.16254C17.7457 9.05777 18.1211 9.00504 18.5713 9.00504C19.3065 9.00504 19.8658 9.18504 20.2486 9.54522C20.2785 9.5738 20.3072 9.60367 20.3345 9.63476L20.3501 9.62632L18.0407 7.31702C18.0407 7.31702 17.9221 7.12343 17.5899 6.97019C17.0946 7.03244 16.6599 7.14396 16.2864 7.3053C15.6785 7.56804 15.1945 7.89049 14.8344 8.27318Z" fill="url(#paint2_linear_1_539)"/>
<path id="Vector_4" d="M11.6767 2.35666C11.7234 2.0756 11.8329 1.85041 12.0058 1.68119C12.1784 1.5124 12.3831 1.44738 12.6201 1.48676L18.283 2.42805C18.4901 2.46246 18.6591 2.58954 18.7902 2.80891C18.9209 3.02861 18.963 3.27911 18.9163 3.55999C18.8671 3.85643 18.7462 4.07965 18.554 4.23016C18.3613 4.38068 18.1616 4.4389 17.9545 4.40449L12.2916 3.46319C12.0545 3.42382 11.8806 3.30354 11.7696 3.10249C11.6583 2.9014 11.6275 2.65315 11.6768 2.35671L11.6767 2.35666ZM10.9274 6.86491C10.9741 6.58385 11.0836 6.35843 11.2565 6.18926C11.429 6.02046 11.6337 5.95526 11.8708 5.99463L17.5335 6.93597C17.7408 6.97038 17.9096 7.09765 18.0407 7.31702C18.1715 7.53672 18.2138 7.78718 18.1671 8.06829C18.1178 8.36472 17.9968 8.58757 17.8045 8.73827C17.6119 8.88874 17.4123 8.94686 17.205 8.91241L11.5421 7.97102C11.3052 7.93165 11.1313 7.81151 11.0201 7.61046C10.909 7.40941 10.8782 7.16111 10.9274 6.86486V6.86491Z" fill="url(#paint3_linear_1_539)"/>
<path id="Vector_5" d="M4.3761 17.1311C4.64821 17.193 4.89172 17.1891 5.10594 17.1199L11.2556 15.1325L9.57486 13.4516L5.78328 14.6771L5.52018 13.863C5.3863 13.4492 5.43078 13.0011 5.65344 12.5188C5.87628 12.0367 6.1836 11.5235 6.57538 10.9788C6.64882 10.8768 6.72268 10.7751 6.79696 10.6737L5.29255 9.16929C4.82178 9.7871 4.39846 10.4047 4.02271 11.0231C3.64663 11.6414 3.36721 12.2523 3.18374 12.8556C3.00027 13.4591 3.00083 14.0467 3.18538 14.6176L3.857 16.6955C3.93078 16.9242 4.10366 17.0692 4.3761 17.1311Z" fill="url(#paint4_linear_1_539)"/>
<path id="Vector_6" d="M2.55383 10.6909L1.58118 11.5012C1.49239 11.5596 1.40028 11.5979 1.30452 11.6162C1.20875 11.6349 1.124 11.6363 1.05074 11.6211C0.815425 11.5724 0.6448 11.4336 0.539331 11.2047C0.433113 10.976 0.404566 10.7441 0.453456 10.5088C0.486738 10.3473 0.561503 10.1904 0.677378 10.038C0.793113 9.88582 0.935191 9.77341 1.10366 9.7009L3.85278 7.9713C4.04778 7.84333 4.26294 7.8034 4.49825 7.8521C4.74782 7.90371 4.96958 8.01869 5.16257 8.19668C5.35555 8.37466 5.426 8.58855 5.37444 8.8383L2.35185 23.4313C2.3 23.6815 2.13927 23.8472 1.86936 23.9292C1.59946 24.0112 1.31746 24.0219 1.0236 23.9611C0.72955 23.9001 0.47516 23.7785 0.260238 23.5958C0.0450814 23.4134 -0.0367623 23.1975 0.0150814 22.9474L2.55383 10.6909Z" fill="url(#paint5_linear_1_539)"/>
<path id="Vector_7" d="M12.6994 12.7613C12.487 12.617 12.281 12.5771 12.081 12.6417L11.3305 12.8843L10.8932 14.9525L9.09163 13.6078L6.27088 14.5195L7.95069 16.2005L12.7319 14.6553C12.9317 14.5908 13.0733 14.4308 13.1564 14.175C13.2394 13.9198 13.237 13.6563 13.1493 13.3848C13.0617 13.1138 12.9116 12.9057 12.6994 12.7613V12.7613Z" fill="url(#paint6_linear_1_539)"/>
<path id="Vector_8" d="M13.8688 10.619C13.8676 10.6515 13.8665 10.684 13.8665 10.7158C13.8665 11.1513 13.9412 11.444 14.0915 11.5938C14.2378 11.7405 14.5637 11.8152 15.0684 11.8187L13.8688 10.619Z" fill="url(#paint7_linear_1_539)"/>
<path id="Vector_9" d="M16.5975 20.8721C16.56 20.8421 16.5233 20.8113 16.4891 20.7787C16.4109 20.7051 16.3374 20.6266 16.2692 20.5436L16.2545 20.529L16.256 20.527C15.9839 20.1891 15.8475 19.8229 15.8475 19.428C15.8475 19.128 15.7649 18.9028 15.5999 18.7527C15.4346 18.6027 15.1046 18.5275 14.6093 18.5275C14.2041 18.5275 13.9189 18.5988 13.7539 18.7413C13.6762 18.8085 13.6175 18.904 13.5764 19.0255L18.0413 23.4905C18.1847 23.4977 18.3304 23.5026 18.4813 23.5026C18.7248 23.5026 18.9628 23.4916 19.1965 23.4711L16.5975 20.8721Z" fill="url(#paint8_linear_1_539)"/>
<path id="Vector_10" d="M8.74503 22.1209C8.69193 21.9808 8.69047 21.8287 8.741 21.6651L9.93247 16.9291L6.10888 14.3329C6.06453 14.3016 6.0118 14.2576 5.9503 14.2005C5.88857 14.1435 5.84464 14.0802 5.81788 14.0097C5.77007 13.8834 5.77007 13.7354 5.81769 13.5646C5.86532 13.3943 5.93947 13.2295 6.04016 13.0711C6.14052 12.9127 6.26188 12.7666 6.40363 12.6326C6.54557 12.4987 6.6935 12.4024 6.848 12.344C6.91818 12.3174 7.01136 12.2982 7.1271 12.2863C7.24302 12.2748 7.35725 12.3117 7.47003 12.3973L10.8932 14.9525L11.7728 10.792C11.8005 10.6532 11.8602 10.5462 11.9523 10.4712C12.0444 10.3965 12.1323 10.3428 12.2165 10.311C12.3428 10.2632 12.5036 10.2425 12.6984 10.2489C12.8934 10.2555 13.0846 10.2831 13.2719 10.3326C13.4591 10.382 13.627 10.4551 13.7758 10.551C13.9245 10.6475 14.0229 10.7583 14.0706 10.8846C14.1133 10.997 14.1118 11.1421 14.0668 11.3195L12.9088 15.8261L16.9516 18.556C16.9954 18.5875 17.0496 18.6353 17.1141 18.699C17.1781 18.7631 17.2239 18.8301 17.2505 18.9001C17.2983 19.0264 17.3002 19.1701 17.257 19.3309C17.2134 19.4919 17.1415 19.6513 17.0412 19.8097C16.9406 19.9683 16.8196 20.1144 16.6777 20.2485C16.5358 20.3821 16.3946 20.4759 16.2544 20.529C16.156 20.5663 16.0476 20.587 15.9291 20.592C15.8106 20.5967 15.6975 20.5632 15.5902 20.4917L12.0012 17.8789L11.0428 22.2136C11.0044 22.3245 10.9371 22.4223 10.8409 22.5067C10.7442 22.5915 10.6469 22.6525 10.549 22.6894C10.4224 22.7374 10.2703 22.759 10.0919 22.7543C9.91339 22.7495 9.73086 22.7224 9.54374 22.6729C9.35643 22.6235 9.18833 22.551 9.03983 22.4547C8.89114 22.3587 8.7928 22.2472 8.74499 22.1209L8.74503 22.1209Z" fill="url(#paint9_linear_1_539)"/>
</g>
<defs>
<linearGradient id="paint0_linear_1_539" x1="1.56842" y1="9.61568" x2="10.9504" y2="6.58373" gradientUnits="userSpaceOnUse">
<stop stop-color="#D767C7"/>
<stop offset="0.323" stop-color="#D363C4"/>
<stop offset="0.665" stop-color="#C656BB"/>
<stop offset="1" stop-color="#B342AC"/>
</linearGradient>
<linearGradient id="paint1_linear_1_539" x1="17.762" y1="15.2071" x2="23.9109" y2="15.2071" gradientUnits="userSpaceOnUse">
<stop stop-color="#FFB2BC"/>
<stop offset="1" stop-color="#FF90A4"/>
</linearGradient>
<linearGradient id="paint2_linear_1_539" x1="17.8826" y1="10.072" x2="16.1583" y2="5.51097" gradientUnits="userSpaceOnUse">
<stop stop-color="#972E07" stop-opacity="0"/>
<stop offset="1" stop-color="#582707"/>
</linearGradient>
<linearGradient id="paint3_linear_1_539" x1="11.304" y1="4.60013" x2="18.5438" y2="5.80362" gradientUnits="userSpaceOnUse">
<stop stop-color="#C6E56F"/>
<stop offset="0.145" stop-color="#C1E46E"/>
<stop offset="0.313" stop-color="#B3E16D"/>
<stop offset="0.492" stop-color="#9CDD6A"/>
<stop offset="0.679" stop-color="#7CD767"/>
<stop offset="0.871" stop-color="#52CF62"/>
<stop offset="1" stop-color="#32C95F"/>
</linearGradient>
<linearGradient id="paint4_linear_1_539" x1="8.87507" y1="17.2819" x2="1.09639" y2="9.50332" gradientUnits="userSpaceOnUse">
<stop stop-color="#B342AC" stop-opacity="0"/>
<stop offset="0.26" stop-color="#A4319C" stop-opacity="0.259"/>
<stop offset="0.72" stop-color="#8D1885" stop-opacity="0.722"/>
<stop offset="1" stop-color="#850F7C"/>
</linearGradient>
<linearGradient id="paint5_linear_1_539" x1="-0.523407" y1="15.226" x2="3.86326" y2="16.1345" gradientUnits="userSpaceOnUse">
<stop stop-color="#C6E56F"/>
<stop offset="0.145" stop-color="#C1E46E"/>
<stop offset="0.313" stop-color="#B3E16D"/>
<stop offset="0.492" stop-color="#9CDD6A"/>
<stop offset="0.679" stop-color="#7CD767"/>
<stop offset="0.871" stop-color="#52CF62"/>
<stop offset="1" stop-color="#32C95F"/>
</linearGradient>
<linearGradient id="paint6_linear_1_539" x1="12.7131" y1="16.8554" x2="7.74706" y2="11.8893" gradientUnits="userSpaceOnUse">
<stop stop-color="#B342AC" stop-opacity="0"/>
<stop offset="0.26" stop-color="#A4319C" stop-opacity="0.259"/>
<stop offset="0.72" stop-color="#8D1885" stop-opacity="0.722"/>
<stop offset="1" stop-color="#850F7C"/>
</linearGradient>
<linearGradient id="paint7_linear_1_539" x1="14.922" y1="12.0483" x2="13.14" y2="10.2663" gradientUnits="userSpaceOnUse">
<stop stop-color="#972E07" stop-opacity="0"/>
<stop offset="1" stop-color="#582707"/>
</linearGradient>
<linearGradient id="paint8_linear_1_539" x1="16.447" y1="22.074" x2="15.9881" y2="15.8165" gradientUnits="userSpaceOnUse">
<stop stop-color="#972E07" stop-opacity="0"/>
<stop offset="1" stop-color="#582707"/>
</linearGradient>
<linearGradient id="paint9_linear_1_539" x1="10.2053" y1="17.0295" x2="13.487" y2="15.5833" gradientUnits="userSpaceOnUse">
<stop stop-color="#FFE548"/>
<stop offset="1" stop-color="#FFB211"/>
</linearGradient>
</defs>
</svg>
