<svg preserveAspectRatio="none" width="100%" height="100%" overflow="visible" style="display: block;" viewBox="0 0 268 243" fill="none" xmlns="http://www.w3.org/2000/svg">
<g id="freepik--Streetlights--inject-81">
<path id="Vector" d="M13.01 234.19V27.23H3.92001V228.12L13.01 234.19Z" fill="var(--fill-0, white)" stroke="var(--stroke-0, #263238)" stroke-linecap="round" stroke-linejoin="round"/>
<path id="Vector_2" d="M15.55 27.23H1.85001L5.69 13.73H11.72L15.55 27.23Z" fill="var(--fill-0, white)" stroke="var(--stroke-0, #263238)" stroke-linecap="round" stroke-linejoin="round"/>
<path id="Vector_3" d="M8.63 14.78C12.4352 14.78 15.52 11.6952 15.52 7.89C15.52 4.08476 12.4352 1 8.63 1C4.82476 1 1.74001 4.08476 1.74001 7.89C1.74001 11.6952 4.82476 14.78 8.63 14.78Z" fill="var(--fill-0, white)" stroke="var(--stroke-0, #263238)" stroke-linecap="round" stroke-linejoin="round"/>
<path id="Vector_4" d="M16.26 25.19H1V27.24H16.26V25.19Z" fill="var(--fill-0, white)" stroke="var(--stroke-0, #263238)" stroke-linecap="round" stroke-linejoin="round"/>
<path id="Vector_5" d="M33.25 41.4H29.45H26.02H22.88V46.77H33.25V41.4Z" fill="var(--fill-0, #263238)"/>
<path id="Vector_6" d="M38.46 49.46C38.4613 49.1064 38.3927 48.756 38.2579 48.429C38.1232 48.1021 37.9251 47.805 37.6751 47.5549C37.425 47.3049 37.1279 47.1068 36.801 46.9721C36.474 46.8374 36.1236 46.7687 35.77 46.77H20.77C20.1001 46.7801 19.4581 47.0397 18.9696 47.4982C18.4811 47.9567 18.1812 48.5809 18.1287 49.2488C18.0762 49.9167 18.2748 50.5801 18.6856 51.1093C19.0964 51.6385 19.6899 51.9953 20.35 52.11L28.46 51.4L36.32 52.09C36.9235 51.9621 37.465 51.6313 37.8543 51.1528C38.2437 50.6743 38.4574 50.0769 38.46 49.46Z" fill="var(--fill-0, #263238)"/>
<path id="Vector_7" d="M28.46 51.4V52.14H20.77H20.35L28.46 51.4Z" fill="var(--fill-0, white)" stroke="var(--stroke-0, #263238)" stroke-linecap="round" stroke-linejoin="round"/>
<path id="Vector_8" d="M36.33 52.09C36.1483 52.1215 35.9644 52.1382 35.78 52.14H28.46V51.4L36.33 52.09Z" fill="var(--fill-0, white)" stroke="var(--stroke-0, #263238)" stroke-linecap="round" stroke-linejoin="round"/>
<path id="Vector_9" d="M33.52 67.32V69.92L30.77 71.39C30.3479 71.6116 29.8968 71.7732 29.43 71.87C28.7448 72.0201 28.0352 72.0201 27.35 71.87C26.9286 71.7739 26.5218 71.6226 26.14 71.42L23.41 69.92V67.32H33.52Z" fill="var(--fill-0, #263238)"/>
<path id="Vector_10" d="M31.99 65.85C31.99 65.85 31.99 65.85 31.99 65.91H22.86V67.38H33.86V65.91L31.99 65.85Z" fill="var(--fill-0, #263238)"/>
<path id="Vector_11" d="M29.39 75.35L28.39 77.09L27.39 75.35H29.39Z" fill="var(--fill-0, #263238)"/>
<path id="Vector_12" d="M29.43 73.2H27.35V74.59H29.43V73.2Z" fill="var(--fill-0, #263238)"/>
<path id="Vector_13" d="M29.41 71.87V72.44H27.33V71.84C28.013 72 28.7226 72.0102 29.41 71.87Z" fill="var(--fill-0, #263238)"/>
<path id="Vector_14" d="M29.99 74.59H26.79V75.35H29.99V74.59Z" fill="var(--fill-0, #263238)"/>
<path id="Vector_15" d="M29.99 72.44H26.79V73.2H29.99V72.44Z" fill="var(--fill-0, #263238)"/>
<path id="Vector_16" d="M29.78 39.73L31.82 38.81L29.78 37.42V33.99H26.35V37.42L24.32 38.81L26.35 39.73V41.4H29.78V39.73Z" fill="var(--fill-0, #263238)"/>
<path id="Vector_17" d="M36.98 52.14C36.15 52.14 32.53 61.03 32.16 64.92C32.1366 65.2384 32.0796 65.5535 31.99 65.86H24.92C24.84 65.5513 24.7832 65.2371 24.75 64.92C24.38 61.03 20.75 52.14 19.94 52.14H20.35H20.77H35.77C35.9544 52.1382 36.1383 52.1215 36.32 52.09L36.98 52.14Z" fill="var(--fill-0, white)" stroke="var(--stroke-0, #263238)" stroke-linecap="round" stroke-linejoin="round"/>
<path id="Vector_18" d="M28.46 52.11V65.83" stroke="var(--stroke-0, #263238)" stroke-linecap="round" stroke-linejoin="round"/>
<path id="Vector_19" d="M18.77 72.74C18.8539 72.4286 19.0118 72.1421 19.2303 71.9049C19.4489 71.6677 19.7215 71.4869 20.0251 71.3779C20.3286 71.2688 20.654 71.2348 20.9735 71.2787C21.293 71.3226 21.5971 71.4431 21.86 71.63C22.3591 72.0492 22.678 72.6443 22.7505 73.2921C22.8231 73.9398 22.6439 74.5907 22.25 75.11C21.8253 75.6095 21.2646 75.9747 20.6361 76.1611C20.0075 76.3475 19.3383 76.3472 18.71 76.16C18.2192 76.0019 17.7757 75.7234 17.42 75.35C16.9032 74.8359 16.4951 74.223 16.2202 73.5478C15.9453 72.8726 15.8092 72.1489 15.82 71.42V39.59C15.8026 36.8859 16.1662 34.1927 16.9 31.59C17.2538 30.1839 17.8096 28.8366 18.55 27.59C19.9748 25.1591 22.2466 23.3395 24.93 22.48C26.2693 22.0755 27.6968 22.066 29.0413 22.4527C30.3859 22.8394 31.5903 23.6058 32.51 24.66C33.1491 25.5263 33.5731 26.532 33.7469 27.5944C33.9208 28.6567 33.8396 29.7452 33.51 30.77C33.2718 31.6224 32.8541 32.414 32.2849 33.0918C31.7158 33.7696 31.0083 34.3179 30.21 34.7C29.4042 35.0672 28.5089 35.1918 27.6334 35.0586C26.7579 34.9254 25.9402 34.5402 25.28 33.95C24.6527 33.3274 24.274 32.4973 24.2151 31.6155C24.1562 30.7336 24.4211 29.8605 24.96 29.16C25.2552 28.8403 25.6164 28.5886 26.0185 28.4224C26.4207 28.2562 26.8542 28.1794 27.289 28.1975C27.7237 28.2156 28.1494 28.328 28.5364 28.527C28.9233 28.726 29.2624 29.0069 29.53 29.35" stroke="var(--stroke-0, #263238)" stroke-miterlimit="10"/>
<path id="Vector_20" d="M17.2 58.61H13.33V61.95H17.2V58.61Z" fill="var(--fill-0, #263238)"/>
<path id="Vector_21" d="M17.2 35.1H13.33V38.44H17.2V35.1Z" fill="var(--fill-0, #263238)"/>
<path id="Vector_22" d="M258.86 241.62L265.205 237.389L265.03 79.09H258.86V241.62Z" fill="var(--fill-0, white)" stroke="var(--stroke-0, #263238)" stroke-linecap="round" stroke-linejoin="round"/>
<path id="Vector_23" d="M257.14 79.1H266.44L263.84 69.93H259.74L257.14 79.1Z" fill="var(--fill-0, white)" stroke="var(--stroke-0, #263238)" stroke-linecap="round" stroke-linejoin="round"/>
<path id="Vector_24" d="M257.16 65.96C257.16 66.8856 257.434 67.7904 257.949 68.5601C258.463 69.3297 259.194 69.9295 260.049 70.2838C260.904 70.638 261.845 70.7307 262.753 70.5501C263.661 70.3695 264.495 69.9238 265.149 69.2693C265.804 68.6148 266.25 67.7809 266.43 66.873C266.611 65.9652 266.518 65.0242 266.164 64.169C265.81 63.3139 265.21 62.583 264.44 62.0687C263.67 61.5545 262.766 61.28 261.84 61.28C261.225 61.28 260.617 61.401 260.049 61.6362C259.481 61.8714 258.965 62.2162 258.531 62.6507C258.096 63.0853 257.751 63.6012 257.516 64.169C257.281 64.7368 257.16 65.3454 257.16 65.96Z" fill="var(--fill-0, white)" stroke="var(--stroke-0, #263238)" stroke-linecap="round" stroke-linejoin="round"/>
<path id="Vector_25" d="M256.65 79.09H267.02V77.7H256.65V79.09Z" fill="var(--fill-0, white)" stroke="var(--stroke-0, #263238)" stroke-linecap="round" stroke-linejoin="round"/>
<path id="Vector_26" d="M245.11 88.72H247.7H250.02H252.16V92.37H245.11V88.72Z" fill="var(--fill-0, #263238)"/>
<path id="Vector_27" d="M241.57 94.19C241.57 93.9501 241.617 93.7127 241.71 93.4912C241.802 93.2697 241.937 93.0686 242.107 92.8995C242.277 92.7304 242.478 92.5965 242.7 92.5056C242.922 92.4148 243.16 92.3687 243.4 92.37H253.59C254.051 92.3645 254.497 92.5343 254.838 92.8452C255.179 93.156 255.389 93.5847 255.426 94.0445C255.463 94.5044 255.324 94.961 255.037 95.3222C254.75 95.6833 254.336 95.922 253.88 95.99L248.37 95.51L243.02 95.98C242.61 95.8929 242.242 95.6676 241.978 95.3418C241.714 95.0159 241.57 94.6093 241.57 94.19Z" fill="var(--fill-0, #263238)"/>
<path id="Vector_28" d="M248.41 95.51V96.02H253.63C253.726 96.0298 253.824 96.0298 253.92 96.02L248.41 95.51Z" fill="var(--fill-0, white)" stroke="var(--stroke-0, #263238)" stroke-linecap="round" stroke-linejoin="round"/>
<path id="Vector_29" d="M243.02 95.98C243.146 95.9898 243.274 95.9898 243.4 95.98H248.4V95.47L243.02 95.98Z" fill="var(--fill-0, white)" stroke="var(--stroke-0, #263238)" stroke-linecap="round" stroke-linejoin="round"/>
<path id="Vector_30" d="M244.93 106.32V108.09L246.8 109.09C247.084 109.245 247.391 109.353 247.71 109.41C248.174 109.515 248.656 109.515 249.12 109.41C249.406 109.351 249.683 109.249 249.94 109.11L251.8 108.11V106.34L244.93 106.32Z" fill="var(--fill-0, #263238)"/>
<path id="Vector_31" d="M244.66 105.33V106.33H252.17V105.33H245.97H244.66Z" fill="var(--fill-0, #263238)"/>
<path id="Vector_32" d="M247.73 111.78L248.41 112.96L249.1 111.78H247.73Z" fill="var(--fill-0, #263238)"/>
<path id="Vector_33" d="M249.12 110.32H247.71V111.26H249.12V110.32Z" fill="var(--fill-0, #263238)"/>
<path id="Vector_34" d="M247.71 109.41V109.8H249.12V109.39C248.657 109.501 248.176 109.508 247.71 109.41Z" fill="var(--fill-0, #263238)"/>
<path id="Vector_35" d="M249.5 111.26H247.33V111.78H249.5V111.26Z" fill="var(--fill-0, #263238)"/>
<path id="Vector_36" d="M249.5 109.8H247.33V110.32H249.5V109.8Z" fill="var(--fill-0, #263238)"/>
<path id="Vector_37" d="M247.47 87.59L246.09 86.96L247.47 86.01V83.69H249.8V86.01L251.18 86.96L249.8 87.59V88.72H247.47V87.59Z" fill="var(--fill-0, #263238)"/>
<path id="Vector_38" d="M242.58 96.02C243.15 96.02 245.58 102.02 245.85 104.7C245.875 104.913 245.915 105.123 245.97 105.33H250.77C250.826 105.124 250.863 104.913 250.88 104.7C251.14 102.06 253.59 96.02 254.16 96.02H253.88C253.784 96.0298 253.686 96.0298 253.59 96.02H243.41C243.284 96.0298 243.156 96.0298 243.03 96.02H242.58Z" fill="var(--fill-0, white)" stroke="var(--stroke-0, #263238)" stroke-linecap="round" stroke-linejoin="round"/>
<path id="Vector_39" d="M248.37 96V105.31" stroke="var(--stroke-0, #263238)" stroke-linecap="round" stroke-linejoin="round"/>
<path id="Vector_40" d="M254.95 109.98C254.888 109.772 254.778 109.581 254.629 109.424C254.479 109.266 254.295 109.145 254.091 109.071C253.887 108.997 253.669 108.972 253.453 108.998C253.237 109.024 253.031 109.1 252.85 109.22C252.511 109.506 252.295 109.912 252.247 110.353C252.198 110.794 252.321 111.237 252.59 111.59C252.88 111.926 253.26 112.172 253.686 112.298C254.111 112.424 254.564 112.425 254.99 112.3C255.324 112.192 255.626 112.003 255.87 111.75C256.219 111.399 256.496 110.983 256.683 110.524C256.87 110.066 256.964 109.575 256.96 109.08V87.49C256.97 85.6542 256.721 83.8261 256.22 82.06C255.981 81.11 255.604 80.2003 255.1 79.36C254.133 77.7073 252.592 76.4685 250.77 75.88C249.86 75.6051 248.89 75.5985 247.977 75.8611C247.063 76.1236 246.245 76.644 245.62 77.36C245.183 77.9469 244.892 78.6291 244.77 79.3507C244.648 80.0722 244.7 80.8123 244.92 81.51C245.085 82.0888 245.369 82.6266 245.755 83.0883C246.141 83.55 246.62 83.9254 247.16 84.19C247.709 84.438 248.317 84.5208 248.912 84.4285C249.507 84.3362 250.062 84.0726 250.51 83.67C250.939 83.2494 251.198 82.686 251.238 82.0869C251.279 81.4877 251.098 80.8945 250.73 80.42C250.533 80.1976 250.289 80.0218 250.015 79.9056C249.742 79.7893 249.446 79.7354 249.149 79.7479C248.852 79.7603 248.562 79.8388 248.299 79.9775C248.036 80.1163 247.808 80.3118 247.63 80.55" stroke="var(--stroke-0, #263238)" stroke-miterlimit="10"/>
<path id="Vector_41" d="M256.01 102.68H258.64V100.41H256.01V102.68Z" fill="var(--fill-0, #263238)"/>
<path id="Vector_42" d="M256.01 86.71H258.64V84.44H256.01V86.71Z" fill="var(--fill-0, #263238)"/>
</g>
</svg>
