<svg preserveAspectRatio="none" width="100%" height="100%" overflow="visible" style="display: block;" viewBox="0 0 49 64" fill="none" xmlns="http://www.w3.org/2000/svg">
<g id="Group">
<path id="Vector" d="M44.9429 5.68634C42.1984 2.24276 38.2977 0.229898 33.9588 0.0183216C33.7078 0.00627451 33.4532 0 33.2024 0C29.9405 0 26.8266 1.01823 24.2284 2.90685C21.6334 1.01973 18.5174 0 15.2533 0C15.0024 0 14.7478 0.00627451 14.4966 0.0184471C10.1581 0.230024 6.25724 2.24276 3.51265 5.68634C0.617587 9.3189 -0.569049 14.0616 0.256927 18.698C1.22847 24.1516 4.50339 29.2795 9.99057 33.9393C13.9692 37.3181 18.1671 39.6263 20.3155 40.7015L20.3518 40.7196C20.6492 40.8681 20.8993 41.0966 21.0741 41.3793C21.2489 41.6621 21.3415 41.9879 21.3415 42.3203V47.771H17.1982C14.9764 47.771 13.6465 50.2421 14.8704 52.0965L21.9 62.7474C23.0024 64.4178 25.4532 64.4178 26.5557 62.7474L33.5851 52.0965C34.809 50.2421 33.4791 47.771 31.2573 47.771H27.1141V42.3499C27.1141 42.0086 27.2092 41.6741 27.3887 41.3838C27.5682 41.0935 27.825 40.8589 28.1303 40.7064L28.1402 40.7014C30.2882 39.6264 34.4859 37.3185 38.4651 33.9393C43.9521 29.2795 47.227 24.1515 48.1986 18.6982C49.0247 14.0614 47.838 9.3189 44.9429 5.68634ZM40.3485 17.2994C39.7107 20.8798 37.3404 24.4333 33.3036 27.8615C29.9623 30.6992 26.3987 32.6564 24.5719 33.5706C24.4684 33.6225 24.3429 33.6522 24.2278 33.6522C24.1127 33.6522 23.9872 33.6225 23.884 33.5708C22.057 32.6564 18.4932 30.6988 15.1521 27.8615C11.1152 24.4332 8.74496 20.8797 8.10709 17.2994C7.68294 14.9184 8.28115 12.4969 9.74825 10.656C11.0626 9.00681 12.8388 8.08245 14.8847 7.98268C15.0075 7.97673 15.1303 7.97372 15.2533 7.97365C17.1808 7.97365 19.0003 8.71642 20.3768 10.0652L20.3997 10.0877C21.4311 11.0936 22.7897 11.6471 24.2277 11.6471C25.673 11.6471 27.0379 11.0878 28.0712 10.0723L28.0787 10.0649C29.4551 8.7163 31.2747 7.97365 33.2024 7.97365C33.3245 7.97365 33.4483 7.97666 33.5707 7.98268C35.6168 8.08245 37.3929 9.00681 38.7074 10.6561C40.1746 12.4969 40.7727 14.9183 40.3485 17.2994Z" fill="url(#paint0_linear_1_435)"/>
<path id="Vector_2" d="M41.8252 8.17129C39.805 5.63664 36.9425 4.15548 33.7649 4.00063C33.5776 3.9915 33.39 3.98693 33.2024 3.98695C30.2251 3.98695 27.4145 5.13418 25.2885 7.21744L25.2769 7.22886C24.9977 7.50533 24.6207 7.66042 24.2278 7.66042C23.8349 7.66042 23.4579 7.50533 23.1787 7.22886L23.1672 7.21757C21.041 5.13431 18.2305 3.98695 15.2534 3.98695C15.067 3.98695 14.8777 3.99159 14.6908 4.00063C11.5131 4.15548 8.65072 5.63664 6.6307 8.17117C4.44955 10.908 3.55707 14.4899 4.18213 17.9987C4.9869 22.5156 7.80943 26.8564 12.5714 30.9005C16.232 34.0091 20.1125 36.1417 22.0998 37.1361C22.7573 37.4651 23.4932 37.639 24.2279 37.639C24.9627 37.639 25.6986 37.4651 26.3561 37.1361C28.3435 36.1416 32.2239 34.009 35.8845 30.9005C40.6465 26.8564 43.469 22.5156 44.2736 17.9988C44.8987 14.49 44.0063 10.908 41.8252 8.17129ZM40.3485 17.2995C39.7107 20.8798 37.3404 24.4333 33.3036 27.8615C29.9623 30.6992 26.3987 32.6564 24.5719 33.5706C24.4684 33.6225 24.3429 33.6522 24.2278 33.6522C24.1127 33.6522 23.9872 33.6225 23.884 33.5708C22.057 32.6564 18.4932 30.6988 15.1521 27.8615C11.1152 24.4332 8.74496 20.8797 8.10709 17.2995C7.68294 14.9184 8.28115 12.4969 9.74825 10.656C11.0626 9.00681 12.8388 8.08245 14.8847 7.98268C15.0075 7.97673 15.1303 7.97372 15.2533 7.97365C17.1807 7.97365 19.0003 8.71642 20.3768 10.0652L20.3997 10.0875C21.4311 11.0935 22.7897 11.647 24.2277 11.647C25.673 11.647 27.0379 11.0877 28.0712 10.0722L28.0787 10.0648C29.4551 8.71617 31.2747 7.97352 33.2024 7.97352C33.3245 7.97352 33.4483 7.97653 33.5707 7.98256C35.6168 8.08232 37.3929 9.00668 38.7074 10.656C40.1746 12.4969 40.7727 14.9183 40.3485 17.2995Z" fill="url(#paint1_linear_1_435)"/>
<path id="Vector_3" d="M16.0181 53.8353L21.9 62.7472C23.0024 64.4175 25.4532 64.4175 26.5557 62.7472L32.4375 53.8353H16.0181Z" fill="url(#paint2_linear_1_435)"/>
<path id="Vector_4" d="M33.5856 52.096L27.1141 61.9018V47.7704H31.2578C33.479 47.7704 34.8092 50.2425 33.5856 52.096Z" fill="url(#paint3_linear_1_435)"/>
<path id="Vector_5" d="M21.3415 47.7704V61.9018L14.87 52.096C13.6465 50.2425 14.9767 47.7704 17.1979 47.7704H21.3415Z" fill="url(#paint4_linear_1_435)"/>
</g>
<defs>
<linearGradient id="paint0_linear_1_435" x1="6.89988" y1="7.66519" x2="49.2019" y2="49.9672" gradientUnits="userSpaceOnUse">
<stop stop-color="#89E2FF"/>
<stop offset="1" stop-color="#3FA9F5"/>
</linearGradient>
<linearGradient id="paint1_linear_1_435" x1="46.1156" y1="38.487" x2="0.833043" y2="-6.79554" gradientUnits="userSpaceOnUse">
<stop stop-color="#89E2FF"/>
<stop offset="1" stop-color="#3FA9F5"/>
</linearGradient>
<linearGradient id="paint2_linear_1_435" x1="24.2278" y1="56.2824" x2="24.2278" y2="65.8229" gradientUnits="userSpaceOnUse">
<stop stop-color="#2740B0" stop-opacity="0"/>
<stop offset="0.288" stop-color="#243CA6" stop-opacity="0.288"/>
<stop offset="0.774" stop-color="#1D308C" stop-opacity="0.774"/>
<stop offset="1" stop-color="#192A7D"/>
</linearGradient>
<linearGradient id="paint3_linear_1_435" x1="30.5828" y1="51.0118" x2="30.5828" y2="45.0427" gradientUnits="userSpaceOnUse">
<stop stop-color="#2740B0" stop-opacity="0"/>
<stop offset="0.288" stop-color="#243CA6" stop-opacity="0.288"/>
<stop offset="0.774" stop-color="#1D308C" stop-opacity="0.774"/>
<stop offset="1" stop-color="#192A7D"/>
</linearGradient>
<linearGradient id="paint4_linear_1_435" x1="17.873" y1="51.0118" x2="17.873" y2="45.0427" gradientUnits="userSpaceOnUse">
<stop stop-color="#2740B0" stop-opacity="0"/>
<stop offset="0.288" stop-color="#243CA6" stop-opacity="0.288"/>
<stop offset="0.774" stop-color="#1D308C" stop-opacity="0.774"/>
<stop offset="1" stop-color="#192A7D"/>
</linearGradient>
</defs>
</svg>
