<svg preserveAspectRatio="none" width="100%" height="100%" overflow="visible" style="display: block;" viewBox="0 0 15 37" fill="none" xmlns="http://www.w3.org/2000/svg">
<path id="Vector" d="M2.09332 15.8481C0.902812 20.7853 0.682053 25.9067 1.44331 30.928C1.72331 31.498 2.03331 32.0681 2.36331 32.6181C2.9967 33.7417 3.98662 34.6222 5.1765 35.1203C6.36638 35.6183 7.68833 35.7055 8.93332 35.3681C9.34633 35.294 9.71897 35.0739 9.98332 34.7481C10.4933 33.7481 13.8233 22.2081 12.7933 18.0781C11.7633 13.9481 11.0133 11.8781 11.0133 11.8781L13.0133 10.8781C13.8233 8.9199 14.2575 6.8268 14.2933 4.70805C14.2831 4.19693 14.192 3.69065 14.0233 3.20805L13.5233 2.89805C13.5233 2.89805 10.6833 -0.731924 7.10332 2.04808C3.52332 4.82808 3.55332 9.98806 2.09332 15.8481Z" fill="var(--fill-0, #636363)" stroke="var(--stroke-0, #263238)" stroke-linecap="round" stroke-linejoin="round"/>
</svg>
