<svg preserveAspectRatio="none" width="100%" height="100%" overflow="visible" style="display: block;" viewBox="0 0 67 95" fill="none" xmlns="http://www.w3.org/2000/svg">
<path id="Vector" d="M64.8067 44.0626C62.7267 56.6526 58.8967 69.1926 60.0267 81.9026C60.1968 82.7828 60.1207 83.6929 59.8067 84.5326C59.3094 85.3094 58.5874 85.9163 57.7367 86.2726C50.2873 90.2203 42.2002 92.8235 33.8467 93.9626C27.8467 94.7726 17.6967 91.8826 13.2167 87.7826C8.73669 83.6826 7.95671 69.9226 7.35671 64.0526C5.75083 70.5685 6.09862 77.413 8.35671 83.7326C4.74671 75.8926 3.9967 68.0726 3.5367 59.4626C2.7367 44.4626 0.416704 29.4626 1.1367 14.4626C1.7167 2.26257 51.3567 -5.45741 61.1867 8.35259C65.5367 14.5326 66.3767 34.5326 64.8067 44.0626Z" fill="var(--fill-0, white)" stroke="var(--stroke-0, #263238)" stroke-linecap="round" stroke-linejoin="round"/>
</svg>
