<svg preserveAspectRatio="none" width="100%" height="100%" overflow="visible" style="display: block;" viewBox="0 0 205 62" fill="none" xmlns="http://www.w3.org/2000/svg">
<path id="Vector" d="M203.82 59.6022C202.714 56.865 200.949 54.4438 198.68 52.5542C196.412 50.6647 193.712 49.3654 190.82 48.7722C183.36 47.4522 175.39 51.8322 172.09 58.5822C172.001 58.7649 171.866 58.921 171.698 59.0352C171.531 59.1493 171.336 59.2173 171.133 59.2325C170.931 59.2477 170.728 59.2095 170.545 59.1217C170.362 59.0339 170.205 58.8996 170.09 58.7322C169.723 58.2412 169.263 57.8273 168.737 57.5142C168.21 57.2012 167.627 56.9951 167.02 56.9078C166.413 56.8204 165.796 56.8536 165.202 57.0054C164.608 57.1572 164.05 57.4245 163.56 57.7922C163.394 57.9241 163.196 58.0081 162.986 58.0352C162.776 58.0623 162.563 58.0314 162.369 57.9459C162.175 57.8604 162.009 57.7236 161.887 57.5502C161.766 57.3768 161.694 57.1734 161.68 56.9622C161.46 53.5522 160.34 50.3722 157.25 48.1322C155.412 46.7917 153.211 46.0397 150.938 45.9755C148.664 45.9113 146.424 46.5378 144.514 47.7724C142.603 49.007 141.112 50.7917 140.237 52.8912C139.361 54.9906 139.143 57.3061 139.61 59.5322C139.652 59.7503 139.63 59.9759 139.547 60.1818C139.463 60.3876 139.322 60.5649 139.14 60.6922H1C1 60.6922 2.49998 49.0522 12.59 49.8922C22.68 50.7322 28.48 53.7322 33.68 50.9422C38.88 48.1522 36.39 35.3822 48.32 33.7522C60.25 32.1222 62.96 43.9622 70.61 39.4922C78.26 35.0222 71.87 22.3022 87.8 16.5722C103.73 10.8422 104.98 26.1222 111.99 21.0222C119 15.9222 124.17 -2.29779 149.64 1.52221C166.2 4.00221 171.69 15.8022 173.5 23.7622C173.896 25.4005 174.91 26.8221 176.331 27.7297C177.751 28.6374 179.467 28.9608 181.12 28.6322C183.958 28.092 186.881 28.1904 189.676 28.9204C192.471 29.6503 195.069 30.9934 197.28 32.8522C205.43 39.2522 204.29 55.2822 203.82 59.6022Z" fill="var(--fill-0, white)" fill-opacity="0.05" stroke="var(--stroke-0, white)" stroke-opacity="0.1" stroke-miterlimit="10"/>
</svg>
