<svg preserveAspectRatio="none" width="100%" height="100%" overflow="visible" style="display: block;" viewBox="0 0 24 24" fill="none" xmlns="http://www.w3.org/2000/svg">
<g id="Group">
<path id="Vector" d="M5.06221 22.4747L7.02537 19.262C7.11208 19.12 7.14855 18.9531 7.12889 18.7879C7.10923 18.6228 7.0346 18.469 6.91699 18.3514L5.00287 16.4373C4.88527 16.3197 4.73153 16.2451 4.56637 16.2254C4.40122 16.2057 4.23426 16.2422 4.09233 16.3289L0.879579 18.2921C0.582193 18.4738 0.342609 18.7364 0.188766 19.0491C0.0349233 19.3619 -0.0268379 19.7119 0.010685 20.0584C0.0288787 20.2264 0.103949 20.3832 0.223449 20.5027C0.34295 20.6222 0.499703 20.6973 0.66772 20.7155C0.835737 20.7337 0.992491 20.8087 1.11199 20.9282C1.23149 21.0477 1.30656 21.2045 1.32476 21.3725C1.34295 21.5405 1.41802 21.6973 1.53752 21.8168C1.65702 21.9363 1.81377 22.0113 1.98179 22.0295C2.14981 22.0477 2.30656 22.1228 2.42606 22.2423C2.54556 22.3618 2.62063 22.5185 2.63883 22.6866C2.65702 22.8546 2.73209 23.0113 2.85159 23.1308C2.97109 23.2503 3.12784 23.3254 3.29586 23.3436C3.64237 23.3812 3.99242 23.3194 4.30517 23.1656C4.61792 23.0117 4.88047 22.7721 5.06221 22.4747Z" fill="url(#paint0_linear_1_573)"/>
<path id="Vector_2" d="M7.02541 19.262C7.11213 19.12 7.14859 18.9531 7.12894 18.7879C7.10928 18.6228 7.03465 18.469 6.91704 18.3514L6.004 17.4384L1.58344 21.8589C1.69621 21.9543 1.83495 22.0137 1.98179 22.0295C2.14981 22.0477 2.30656 22.1228 2.42606 22.2423C2.54556 22.3618 2.62063 22.5185 2.63883 22.6866C2.65702 22.8546 2.73209 23.0113 2.85159 23.1308C2.97109 23.2503 3.12784 23.3254 3.29586 23.3436C3.64237 23.3811 3.99242 23.3194 4.30516 23.1655C4.6179 23.0116 4.88044 22.772 5.06217 22.4746L7.02541 19.262Z" fill="url(#paint1_linear_1_573)"/>
<path id="Vector_3" d="M4.05906 21.9618L6.91473 18.3491L5.00523 16.4396L1.39257 19.2953C0.937697 19.6548 0.54532 20.102 0.276473 20.5504C0.387939 20.6425 0.523967 20.6999 0.66772 20.7155C0.835737 20.7337 0.992491 20.8087 1.11199 20.9282C1.23149 21.0477 1.30656 21.2045 1.32476 21.3725C1.34296 21.5405 1.41803 21.6973 1.53753 21.8168C1.65703 21.9363 1.81378 22.0113 1.98179 22.0295C2.14981 22.0477 2.30656 22.1228 2.42606 22.2423C2.54556 22.3618 2.62063 22.5185 2.63883 22.6866C2.65439 22.8303 2.71179 22.9664 2.80391 23.0778C3.25233 22.809 3.69948 22.4166 4.05906 21.9618Z" fill="url(#paint2_linear_1_573)"/>
<path id="Vector_4" d="M4.05906 21.9618L6.91473 18.3491L5.00523 16.4396L1.39257 19.2953C0.937697 19.6548 0.54532 20.102 0.276473 20.5504C0.387939 20.6425 0.523967 20.6999 0.66772 20.7155C0.835737 20.7337 0.992491 20.8087 1.11199 20.9282C1.23149 21.0477 1.30656 21.2045 1.32476 21.3725C1.34296 21.5405 1.41803 21.6973 1.53753 21.8168C1.65703 21.9363 1.81378 22.0113 1.98179 22.0295C2.14981 22.0477 2.30656 22.1228 2.42606 22.2423C2.54556 22.3618 2.62063 22.5185 2.63883 22.6866C2.65439 22.8303 2.71179 22.9664 2.80391 23.0778C3.25233 22.809 3.69948 22.4166 4.05906 21.9618Z" fill="url(#paint3_linear_1_573)"/>
<path id="Vector_5" d="M2.25064 20.1534C1.90005 20.4759 1.55939 20.8252 1.2672 21.1573C1.29716 21.2258 1.31656 21.2983 1.32476 21.3725C1.34296 21.5406 1.41803 21.6973 1.53753 21.8168C1.65703 21.9363 1.81378 22.0114 1.98179 22.0296C2.0577 22.0378 2.12979 22.058 2.19699 22.0871C2.52909 21.7949 2.8784 21.4543 3.20094 21.1037L6.30024 17.7346L5.61972 17.0541L2.25064 20.1534Z" fill="url(#paint4_linear_1_573)"/>
<path id="Vector_6" d="M6.40956 19.084L4.27036 16.9448C3.99224 16.6667 3.99224 16.2157 4.27036 15.9375L5.23506 14.9728L8.38151 18.1193L7.4168 19.084C7.13864 19.3621 6.68772 19.3621 6.40956 19.084Z" fill="url(#paint5_linear_1_573)"/>
<path id="Vector_7" d="M8.04 18.6794L4.8505 15.4899C2.11257 12.7519 2.11257 8.31292 4.8505 5.57503L7.31313 3.1124C7.71459 2.71094 8.36546 2.71094 8.76692 3.1124C12.8649 7.21037 12.8649 13.8545 8.76692 17.9524L8.04 18.6794Z" fill="url(#paint6_linear_1_573)"/>
<path id="Vector_8" d="M8.04 18.6794L4.8505 15.4899C2.11257 12.7519 2.11257 8.31292 4.8505 5.57503L7.31313 3.1124C7.71459 2.71094 8.36546 2.71094 8.76692 3.1124C12.8649 7.21037 12.8649 13.8545 8.76692 17.9524L8.04 18.6794Z" fill="url(#paint7_linear_1_573)"/>
<path id="Vector_9" d="M9.836 4.36223C9.56942 4.30223 9.27897 4.37513 9.07144 4.58266L5.48245 8.17165C3.28706 10.367 3.28706 13.9265 5.48245 16.1219L8.03996 18.6794L8.76687 17.9524C12.4704 14.249 12.8265 8.46609 9.836 4.36223Z" fill="url(#paint8_linear_1_573)"/>
<path id="Vector_10" d="M10.4402 5.29188L3.11365 12.6185C3.44 13.669 4.01864 14.658 4.8505 15.4899L8.04 18.6794L8.76692 17.9524C12.1985 14.5208 12.7558 9.30412 10.4402 5.29188Z" fill="url(#paint9_linear_1_573)"/>
<path id="Vector_11" d="M4.67497 15.3143L7.86447 18.5038C10.6024 21.2418 15.0414 21.2418 17.7793 18.5038L20.2419 16.0412C20.6434 15.6397 20.6434 14.9889 20.2419 14.5874C16.144 10.4894 9.49981 10.4894 5.40189 14.5874L4.67497 15.3143Z" fill="url(#paint10_linear_1_573)"/>
<path id="Vector_12" d="M14.4223 17.6868L18.3411 13.7679C18.4127 13.6965 18.4694 13.6115 18.5078 13.5179C18.5462 13.4243 18.5656 13.324 18.5649 13.2228C14.4947 10.5561 8.97864 11.0107 5.40193 14.5874L4.67501 15.3143L7.04744 17.6867C9.08396 19.7233 12.3858 19.7233 14.4223 17.6868Z" fill="url(#paint11_linear_1_573)"/>
<path id="Vector_13" d="M14.4223 17.6868L18.3411 13.7679C18.4127 13.6965 18.4694 13.6115 18.5078 13.5179C18.5462 13.4243 18.5656 13.324 18.5649 13.2228C14.4947 10.5561 8.97864 11.0107 5.40193 14.5874L4.67501 15.3143L7.04744 17.6867C9.08396 19.7233 12.3858 19.7233 14.4223 17.6868Z" fill="url(#paint12_linear_1_573)"/>
<path id="Vector_14" d="M12.1702 15.4347L15.6921 11.9128C12.1521 10.9096 8.18847 11.8009 5.40189 14.5874L4.67497 15.3143L6.16574 16.8051C7.44541 18.0847 10.1337 17.4712 12.1702 15.4347Z" fill="url(#paint13_linear_1_573)"/>
<path id="Vector_15" d="M20.2419 14.5874C17.4814 11.8269 13.5656 10.9262 10.0509 11.8849L9.21299 12.7228L16.1881 19.6979C16.7725 19.3775 17.3083 18.9755 17.7793 18.5039L20.2419 16.0412C20.6434 15.6397 20.6434 14.9889 20.2419 14.5874Z" fill="url(#paint14_linear_1_573)"/>
<path id="Vector_16" d="M8.23172 9.16628C8.06121 9.57739 8.00891 10.0279 8.08071 10.4672C8.09793 10.5732 7.97751 10.6474 7.89224 10.5822C7.2201 10.0681 6.91713 9.26647 6.99911 8.45461L8.23172 9.16628Z" fill="url(#paint15_linear_1_573)"/>
<path id="Vector_17" d="M8.23172 9.16628C8.06121 9.57739 8.00891 10.0279 8.08071 10.4672C8.09793 10.5732 7.97751 10.6474 7.89224 10.5822C7.2201 10.0681 6.91713 9.26647 6.99911 8.45461L8.23172 9.16628Z" fill="url(#paint16_linear_1_573)"/>
<path id="Vector_18" d="M7.69534 10.4139C7.57774 10.262 7.52979 9.94445 7.68876 9.66915C7.80457 9.46917 7.98657 9.31589 8.20334 9.23579C8.40532 9.1605 8.6264 9.15346 8.83276 9.21574C9.84061 9.51823 10.9203 8.95819 11.2171 7.94845C11.2183 7.94445 11.22 7.93673 11.2221 7.92586C11.3123 7.46369 11.1225 6.98925 10.7377 6.71781C10.6496 6.65565 10.5574 6.59943 10.4618 6.54953C9.36188 5.97475 7.98621 6.34539 7.324 7.39499C6.69807 8.38708 6.88965 9.64647 7.69534 10.4139Z" fill="url(#paint17_linear_1_573)"/>
<path id="Vector_19" d="M7.69534 10.4139C7.57774 10.262 7.52979 9.94445 7.68876 9.66915C7.80457 9.46917 7.98657 9.31589 8.20334 9.23579C8.40532 9.1605 8.6264 9.15346 8.83276 9.21574C9.84061 9.51823 10.9203 8.95819 11.2171 7.94845C11.2183 7.94445 11.22 7.93673 11.2221 7.92586C11.3123 7.46369 11.1225 6.98925 10.7377 6.71781C10.6496 6.65565 10.5574 6.59943 10.4618 6.54953C9.36188 5.97475 7.98621 6.34539 7.324 7.39499C6.69807 8.38708 6.88965 9.64647 7.69534 10.4139Z" fill="url(#paint18_linear_1_573)"/>
<path id="Vector_20" d="M7.18725 9.7115C7.15563 9.20525 7.26278 8.69734 7.50151 8.22821C8.08899 7.07376 9.1544 6.63903 10.9055 6.86223C11.1752 7.14026 11.298 7.53715 11.2221 7.92586C11.22 7.93668 11.2183 7.9444 11.2171 7.9484C10.9203 8.95819 9.84061 9.51823 8.83276 9.21569C8.6264 9.15339 8.40532 9.16044 8.20334 9.23574C7.98656 9.31583 7.80456 9.46911 7.68876 9.6691C7.52979 9.9444 7.57774 10.2619 7.69534 10.4139C7.48451 10.2127 7.3123 9.97469 7.18725 9.7115Z" fill="url(#paint19_linear_1_573)"/>
<path id="Vector_21" d="M9.63845 6.29621C9.91963 6.32915 10.1986 6.41197 10.4618 6.54948C10.5574 6.59941 10.6496 6.65563 10.7377 6.71776C11.1225 6.98925 11.3123 7.46365 11.2221 7.92586C11.22 7.93668 11.2183 7.9444 11.2171 7.9484C10.9203 8.95819 9.84062 9.51823 8.83276 9.21569C8.6264 9.15339 8.40532 9.16044 8.20334 9.23574C8.00133 9.31076 7.82922 9.4495 7.71304 9.63099L9.63845 6.29621Z" fill="url(#paint20_linear_1_573)"/>
<path id="Vector_22" d="M11.9016 7.09555C11.9069 7.07537 11.9082 7.05431 11.9054 7.03362C11.9026 7.01292 11.8957 6.99299 11.8851 6.97498C11.8745 6.95697 11.8605 6.94125 11.8438 6.92871C11.827 6.91617 11.808 6.90708 11.7878 6.90195C10.6893 6.62256 9.80786 6.56694 9.09695 6.7316C8.31549 6.91259 7.72998 7.35673 7.30697 8.08948C7.16767 8.33075 7.06123 8.58355 6.98862 8.84322C6.90349 9.14774 6.9793 9.47475 7.18734 9.71287C7.18226 9.2052 7.3161 8.70313 7.57953 8.24685C8.3057 6.98906 9.5833 6.66576 11.711 7.20717C11.751 7.21736 11.7935 7.21136 11.8292 7.19047C11.8648 7.16957 11.8908 7.13548 11.9016 7.09555Z" fill="url(#paint21_linear_1_573)"/>
<path id="Vector_23" d="M21.3379 17.1707C21.1678 17.582 20.8862 17.9375 20.5248 18.1973C20.4377 18.2601 20.4704 18.3978 20.5768 18.4119C21.4156 18.5237 22.1967 18.1711 22.7128 17.539L21.3379 17.1707Z" fill="url(#paint22_linear_1_573)"/>
<path id="Vector_24" d="M21.3379 17.1707C21.1678 17.582 20.8862 17.9375 20.5248 18.1973C20.4377 18.2601 20.4704 18.3978 20.5768 18.4119C21.4156 18.5237 22.1967 18.1711 22.7128 17.539L21.3379 17.1707Z" fill="url(#paint23_linear_1_573)"/>
<path id="Vector_25" d="M20.8351 18.4322C21.0257 18.4079 21.2841 18.2173 21.3664 17.9102C21.4259 17.6869 21.4056 17.4498 21.3089 17.2399C21.2193 17.0439 21.068 16.8826 20.878 16.7807C19.9515 16.282 19.584 15.1225 20.0881 14.1986C20.0902 14.1949 20.0944 14.1883 20.1006 14.1791C20.3636 13.7885 20.8333 13.5873 21.2973 13.6674C21.4021 13.6855 21.507 13.7108 21.6114 13.7435C22.7956 14.1148 23.5063 15.3497 23.2323 16.5601C22.9734 17.7042 21.9474 18.4593 20.8351 18.4322Z" fill="url(#paint24_linear_1_573)"/>
<path id="Vector_26" d="M20.8351 18.4322C21.0257 18.4079 21.2841 18.2173 21.3664 17.9102C21.4259 17.6869 21.4056 17.4498 21.3089 17.2399C21.2193 17.0439 21.068 16.8826 20.878 16.7807C19.9515 16.282 19.584 15.1225 20.0881 14.1986C20.0902 14.1949 20.0944 14.1883 20.1006 14.1791C20.3636 13.7885 20.8333 13.5873 21.2973 13.6674C21.4021 13.6855 21.507 13.7108 21.6114 13.7435C22.7956 14.1148 23.5063 15.3497 23.2323 16.5601C22.9734 17.7042 21.9474 18.4593 20.8351 18.4322Z" fill="url(#paint25_linear_1_573)"/>
<path id="Vector_27" d="M21.691 18.2948C22.0713 17.9592 22.3547 17.5243 22.5176 17.0237C22.9185 15.792 22.4726 14.7313 21.0766 13.6509C20.6893 13.6568 20.3218 13.8506 20.1006 14.1791C20.0962 14.1854 20.092 14.1919 20.0881 14.1986C19.584 15.1225 19.9515 16.282 20.878 16.7807C21.068 16.8825 21.2193 17.0438 21.3089 17.2399C21.4055 17.4498 21.4259 17.6869 21.3664 17.9102C21.2841 18.2172 21.0257 18.4079 20.8351 18.4322C21.1264 18.439 21.4165 18.3925 21.691 18.2948Z" fill="url(#paint26_linear_1_573)"/>
<path id="Vector_28" d="M22.3727 14.1466C22.1457 13.9668 21.8877 13.8302 21.6114 13.7435C21.5085 13.7112 21.4036 13.6858 21.2973 13.6674C20.8333 13.5873 20.3636 13.7885 20.1006 14.1791C20.0962 14.1855 20.092 14.192 20.0881 14.1986C19.584 15.1225 19.9515 16.282 20.878 16.7807C21.068 16.8826 21.2193 17.0439 21.3089 17.2399C21.3987 17.4358 21.4223 17.6556 21.3761 17.8661L22.3727 14.1466Z" fill="url(#paint27_linear_1_573)"/>
<path id="Vector_29" d="M20.2072 13.1116C20.2177 13.0935 20.2316 13.0777 20.2483 13.065C20.2649 13.0524 20.2839 13.0432 20.3041 13.0379C20.3243 13.0327 20.3454 13.0315 20.3661 13.0345C20.3867 13.0374 20.4066 13.0444 20.4246 13.0551C21.3988 13.6343 22.0615 14.2182 22.4477 14.8374C22.8723 15.518 22.9722 16.246 22.7533 17.0633C22.6812 17.3324 22.5777 17.5864 22.4454 17.8213C22.2903 18.0969 22.0055 18.2745 21.69 18.2957C22.0526 17.9404 22.3129 17.4907 22.4493 16.9818C22.8252 15.5789 22.1504 14.4469 20.2631 13.3253C20.2275 13.3042 20.2018 13.2699 20.1913 13.2299C20.1808 13.1899 20.1866 13.1474 20.2072 13.1116Z" fill="url(#paint28_linear_1_573)"/>
<path id="Vector_30" d="M6.64029 2.47306C6.22903 2.64319 5.87347 2.9248 5.61365 3.28614C5.55092 3.37325 5.41323 3.34059 5.39906 3.23419C5.2873 2.39541 5.63991 1.61433 6.27196 1.09823L6.64029 2.47306Z" fill="url(#paint29_linear_1_573)"/>
<path id="Vector_31" d="M6.64029 2.47306C6.22903 2.64319 5.87347 2.9248 5.61365 3.28614C5.55092 3.37325 5.41323 3.34059 5.39906 3.23419C5.2873 2.39541 5.63991 1.61433 6.27196 1.09823L6.64029 2.47306Z" fill="url(#paint30_linear_1_573)"/>
<path id="Vector_32" d="M5.37883 2.97597C5.40311 2.78539 5.59374 2.52699 5.9008 2.44468C6.12411 2.38513 6.3612 2.40546 6.57111 2.50214C6.76717 2.5917 6.92847 2.74304 7.03031 2.93301C7.52909 3.85955 8.68857 4.22703 9.61243 3.72289C9.6161 3.72087 9.62273 3.71663 9.63191 3.71047C10.0225 3.44746 10.2238 2.97776 10.1436 2.51372C10.1253 2.40744 10.0998 2.3025 10.0675 2.1996C9.69619 1.01541 8.46137 0.304774 7.25092 0.578704C6.10683 0.837621 5.35177 1.8636 5.37883 2.97597Z" fill="url(#paint31_linear_1_573)"/>
<path id="Vector_33" d="M5.37883 2.97597C5.40311 2.78539 5.59374 2.52699 5.9008 2.44468C6.12411 2.38513 6.3612 2.40546 6.57111 2.50214C6.76717 2.5917 6.92847 2.74304 7.03031 2.93301C7.52909 3.85955 8.68857 4.22703 9.61243 3.72289C9.6161 3.72087 9.62273 3.71663 9.63191 3.71047C10.0225 3.44746 10.2238 2.97776 10.1436 2.51372C10.1253 2.40744 10.0998 2.3025 10.0675 2.1996C9.69619 1.01541 8.46137 0.304774 7.25092 0.578704C6.10683 0.837621 5.35177 1.8636 5.37883 2.97597Z" fill="url(#paint32_linear_1_573)"/>
<path id="Vector_34" d="M5.51619 2.12007C5.85181 1.73974 6.28673 1.45635 6.78725 1.29343C8.01901 0.892539 9.07972 1.33847 10.1601 2.73447C10.1542 3.12176 9.96043 3.48925 9.63191 3.71047C9.62557 3.71484 9.61907 3.71899 9.61243 3.72289C8.68852 4.22703 7.52904 3.85955 7.03031 2.93301C6.92845 2.74305 6.76716 2.59171 6.57111 2.50214C6.36118 2.4055 6.12411 2.38518 5.9008 2.44468C5.59374 2.52694 5.40311 2.78534 5.37883 2.97597C5.37199 2.68468 5.41855 2.3946 5.51619 2.12007Z" fill="url(#paint33_linear_1_573)"/>
<path id="Vector_35" d="M9.66443 1.43833C9.84419 1.66532 9.98082 1.92334 10.0675 2.1996C10.0998 2.3025 10.1253 2.40744 10.1436 2.51372C10.2238 2.97776 10.0225 3.44746 9.63191 3.71047C9.62557 3.71484 9.61907 3.71899 9.61243 3.72289C8.68852 4.22703 7.52904 3.85955 7.03031 2.93301C6.92845 2.74305 6.76716 2.59171 6.57111 2.50214C6.37522 2.41234 6.15543 2.38875 5.94494 2.43494L9.66443 1.43833Z" fill="url(#paint34_linear_1_573)"/>
<path id="Vector_36" d="M10.6995 3.60383C10.7176 3.59336 10.7334 3.5794 10.746 3.56277C10.7586 3.54613 10.7679 3.52716 10.7731 3.50694C10.7784 3.48672 10.7795 3.46566 10.7766 3.44498C10.7736 3.4243 10.7666 3.40441 10.7559 3.38647C10.1767 2.41221 9.5928 1.74957 8.97365 1.36332C8.29309 0.938751 7.56504 0.838798 6.74777 1.05776C6.47869 1.12986 6.22466 1.23334 5.9897 1.36562C5.71417 1.52073 5.53657 1.80557 5.5153 2.12106C5.87069 1.75847 6.32033 1.49814 6.82923 1.36176C8.2321 0.985857 9.3641 1.66063 10.4857 3.54797C10.5069 3.58348 10.5412 3.60925 10.5812 3.6197C10.6212 3.63015 10.6637 3.62445 10.6995 3.60383Z" fill="url(#paint35_linear_1_573)"/>
<path id="Vector_37" d="M22.7205 7.96082C22.891 8.37193 22.9433 8.82248 22.8715 9.26172C22.8543 9.36769 22.9747 9.44195 23.06 9.37673C23.7321 8.86266 24.0351 8.06101 23.9531 7.24915L22.7205 7.96082Z" fill="url(#paint36_linear_1_573)"/>
<path id="Vector_38" d="M22.7205 7.96082C22.891 8.37193 22.9433 8.82248 22.8715 9.26172C22.8543 9.36769 22.9747 9.44195 23.06 9.37673C23.7321 8.86266 24.0351 8.06101 23.9531 7.24915L22.7205 7.96082Z" fill="url(#paint37_linear_1_573)"/>
<path id="Vector_39" d="M23.2569 9.2084C23.3745 9.05645 23.4224 8.73894 23.2634 8.46365C23.1476 8.26366 22.9656 8.11039 22.7489 8.03028C22.5469 7.955 22.3258 7.94796 22.1195 8.01023C21.1116 8.31273 20.0319 7.75268 19.7351 6.74294C19.7332 6.73548 19.7315 6.72794 19.7301 6.72035C19.6399 6.25819 19.8297 5.78374 20.2145 5.5123C20.3026 5.45014 20.3948 5.39392 20.4905 5.34402C21.5904 4.76925 22.966 5.13988 23.6282 6.18948C24.2541 7.18162 24.0625 8.44096 23.2569 9.2084Z" fill="url(#paint38_linear_1_573)"/>
<path id="Vector_40" d="M23.2569 9.2084C23.3745 9.05645 23.4224 8.73894 23.2634 8.46365C23.1476 8.26366 22.9656 8.11039 22.7489 8.03028C22.5469 7.955 22.3258 7.94796 22.1195 8.01023C21.1116 8.31273 20.0319 7.75268 19.7351 6.74294C19.7332 6.73548 19.7315 6.72794 19.7301 6.72035C19.6399 6.25819 19.8297 5.78374 20.2145 5.5123C20.3026 5.45014 20.3948 5.39392 20.4905 5.34402C21.5904 4.76925 22.966 5.13988 23.6282 6.18948C24.2541 7.18162 24.0625 8.44096 23.2569 9.2084Z" fill="url(#paint39_linear_1_573)"/>
<path id="Vector_41" d="M23.7649 8.50605C23.7966 7.99979 23.6894 7.49188 23.4507 7.02275C22.8632 5.8683 21.7978 5.43357 20.0467 5.65677C19.777 5.9348 19.6542 6.33169 19.7301 6.7204C19.7322 6.73122 19.7339 6.73894 19.7351 6.74294C20.0319 7.75273 21.1116 8.31277 22.1194 8.01023C22.3258 7.94793 22.5468 7.95497 22.7488 8.03028C22.9656 8.11037 23.1476 8.26365 23.2634 8.46365C23.4224 8.73894 23.3744 9.05644 23.2568 9.2084C23.4677 9.00728 23.6399 8.76923 23.7649 8.50605Z" fill="url(#paint40_linear_1_573)"/>
<path id="Vector_42" d="M21.3138 5.09075C21.0262 5.12416 20.7471 5.21 20.4905 5.34402C20.3948 5.39395 20.3027 5.45017 20.2145 5.5123C19.8297 5.78379 19.6399 6.25819 19.7301 6.7204C19.7322 6.73122 19.7339 6.73894 19.7351 6.74294C20.0319 7.75273 21.1116 8.31277 22.1195 8.01023C22.3258 7.94793 22.5469 7.95497 22.7489 8.03028C22.9509 8.1053 23.123 8.24404 23.2392 8.42553L21.3138 5.09075Z" fill="url(#paint41_linear_1_573)"/>
<path id="Vector_43" d="M19.0506 5.89009C19.0453 5.86991 19.044 5.84885 19.0468 5.82816C19.0496 5.80746 19.0565 5.78753 19.0671 5.76952C19.0777 5.75151 19.0917 5.73579 19.1084 5.72325C19.1251 5.71071 19.1442 5.70162 19.1644 5.69649C20.2629 5.4171 21.1443 5.36148 21.8553 5.52614C22.6367 5.70713 23.2222 6.15127 23.6452 6.88402C23.7845 7.12529 23.891 7.37809 23.9636 7.63776C24.0487 7.94228 23.9729 8.26929 23.7649 8.50741C23.7699 7.99974 23.6361 7.49767 23.3727 7.04139C22.6465 5.7836 21.3689 5.4603 19.2412 6.00172C19.2012 6.01189 19.1587 6.00588 19.123 5.98499C19.0874 5.9641 19.0614 5.93001 19.0506 5.89009Z" fill="url(#paint42_linear_1_573)"/>
<path id="Vector_44" d="M18.858 9.5115C17.5015 8.82035 17.1421 6.80727 17.2728 6.55089C17.4034 6.29452 19.2432 5.402 20.5997 6.09315C21.9562 6.7843 20.2144 10.2027 18.858 9.5115Z" fill="url(#paint43_linear_1_573)"/>
<path id="Vector_45" d="M20.0617 5.90153C18.8018 5.61941 17.3867 6.32722 17.2728 6.55089C17.1421 6.80727 17.5015 8.82035 18.858 9.5115C19.2553 9.714 19.6858 9.56369 20.0617 9.23263V5.90153Z" fill="url(#paint44_linear_1_573)"/>
<path id="Vector_46" d="M14.5814 9.15965C14.8196 7.65597 16.6231 6.69212 16.9073 6.7371C17.1915 6.78214 18.6089 8.25616 18.3707 9.75979C18.1326 11.2634 14.3432 10.6633 14.5814 9.15965Z" fill="url(#paint45_linear_1_573)"/>
<path id="Vector_47" d="M18.3632 9.00863C18.1631 7.79979 17.1435 6.77452 16.9072 6.73706C16.671 6.6996 15.3845 7.35974 14.8206 8.44755L18.3632 9.00863Z" fill="url(#paint46_linear_1_573)"/>
<path id="Vector_48" d="M13.5945 4.98365C15.0982 4.74548 16.5722 6.16289 16.6172 6.44708C16.6623 6.73127 15.6984 8.5348 14.1947 8.77296C12.6911 9.01108 12.0909 5.22181 13.5945 4.98365Z" fill="url(#paint47_linear_1_573)"/>
<path id="Vector_49" d="M14.9068 8.53367C15.9946 7.96976 16.6547 6.68332 16.6173 6.44703C16.5799 6.21075 15.5545 5.19127 14.3457 4.99108L14.9068 8.53367Z" fill="url(#paint48_linear_1_573)"/>
<path id="Vector_50" d="M17.2612 2.75461C17.9523 4.11108 17.0598 5.95099 16.8034 6.08157C16.5471 6.21221 14.534 5.85282 13.8428 4.49635C13.1517 3.13988 16.57 1.39814 17.2612 2.75461Z" fill="url(#paint49_linear_1_573)"/>
<path id="Vector_51" d="M14.2904 5.09964C15.1629 5.95997 16.5903 6.19019 16.8035 6.08157C17.0167 5.97296 17.6694 4.6828 17.4862 3.47127L14.2904 5.09964Z" fill="url(#paint50_linear_1_573)"/>
<path id="Vector_52" d="M20.5142 5.55296C19.4376 6.62948 17.412 6.3492 17.2086 6.14572C17.0051 5.94223 16.7248 3.91663 17.8013 2.84012C18.8778 1.7636 21.5907 4.47649 20.5142 5.55296Z" fill="url(#paint51_linear_1_573)"/>
<path id="Vector_53" d="M17.3659 3.45226C16.8173 4.54788 17.0394 5.97659 17.2086 6.14576C17.3777 6.31494 18.8065 6.53706 19.9021 5.98845L17.3659 3.45226Z" fill="url(#paint52_linear_1_573)"/>
<path id="Vector_54" d="M17.016 7.66096C17.7465 7.66096 18.3386 7.0688 18.3386 6.33833C18.3386 5.60786 17.7465 5.01569 17.016 5.01569C16.2855 5.01569 15.6934 5.60786 15.6934 6.33833C15.6934 7.0688 16.2855 7.66096 17.016 7.66096Z" fill="url(#paint53_linear_1_573)"/>
<path id="Vector_55" d="M16.0808 5.40308C15.5643 5.9196 15.5643 6.75701 16.0808 7.27353C16.5973 7.79005 17.4347 7.79005 17.9513 7.27353C18.06 7.16501 18.1489 7.03836 18.2141 6.89927L16.4551 5.14026C16.316 5.20543 16.1893 5.29438 16.0808 5.40308Z" fill="url(#paint54_linear_1_573)"/>
<path id="Vector_56" d="M15.6934 6.33833C15.6934 7.06877 16.2856 7.66096 17.0161 7.66096C17.7465 7.66096 18.3387 7.06882 18.3387 6.33833C18.3387 6.18012 18.3108 6.02845 18.2599 5.88783H15.7722C15.7199 6.03226 15.6933 6.18472 15.6934 6.33833Z" fill="url(#paint55_linear_1_573)"/>
<path id="Vector_57" d="M13.9575 7.24802C12.601 6.55687 12.2416 4.54379 12.3723 4.28741C12.5029 4.03103 14.3428 3.13852 15.6992 3.82967C17.0557 4.52082 15.314 7.93917 13.9575 7.24802Z" fill="url(#paint56_linear_1_573)"/>
<path id="Vector_58" d="M15.1612 3.638C13.9013 3.35588 12.4862 4.06369 12.3722 4.28736C12.2416 4.54374 12.601 6.55682 13.9575 7.24797C14.3548 7.45047 14.7853 7.30016 15.1612 6.9691V3.638Z" fill="url(#paint57_linear_1_573)"/>
<path id="Vector_59" d="M9.68094 6.89612C9.91911 5.39245 11.7226 4.42859 12.0068 4.47357C12.291 4.51861 13.7084 5.99263 13.4703 7.49626C13.232 8.99997 9.44278 8.39979 9.68094 6.89612Z" fill="url(#paint58_linear_1_573)"/>
<path id="Vector_60" d="M13.4627 6.74515C13.2626 5.5363 12.2431 4.51103 12.0068 4.47357C11.7705 4.43616 10.4841 5.09626 9.92014 6.18407L13.4627 6.74515Z" fill="url(#paint59_linear_1_573)"/>
<path id="Vector_61" d="M8.69403 2.72012C10.1977 2.48195 11.6717 3.89936 11.7167 4.18355C11.7617 4.46774 10.7978 6.27127 9.29417 6.50943C7.79054 6.74755 7.1904 2.95828 8.69403 2.72012Z" fill="url(#paint60_linear_1_573)"/>
<path id="Vector_62" d="M10.0063 6.27019C11.0941 5.70628 11.7542 4.41983 11.7168 4.18355C11.6793 3.94727 10.654 2.92779 9.44518 2.7276L10.0063 6.27019Z" fill="url(#paint61_linear_1_573)"/>
<path id="Vector_63" d="M12.3607 0.49108C13.0519 1.84755 12.1593 3.68746 11.903 3.81804C11.6466 3.94868 9.63351 3.58929 8.94236 2.23282C8.2512 0.876351 11.6696 -0.86539 12.3607 0.49108Z" fill="url(#paint62_linear_1_573)"/>
<path id="Vector_64" d="M9.38988 2.83612C10.2624 3.69644 11.6898 3.92666 11.903 3.81804C12.1161 3.70943 12.7689 2.41927 12.5857 1.20774L9.38988 2.83612Z" fill="url(#paint63_linear_1_573)"/>
<path id="Vector_65" d="M15.6137 3.28948C14.5372 4.366 12.5116 4.08572 12.3081 3.88223C12.1046 3.67875 11.8244 1.65315 12.9009 0.576633C13.9773 -0.499885 16.6902 2.21296 15.6137 3.28948Z" fill="url(#paint64_linear_1_573)"/>
<path id="Vector_66" d="M12.4654 1.18873C11.9168 2.28435 12.1389 3.71306 12.3081 3.88223C12.4773 4.05141 13.906 4.27353 15.0016 3.72492L12.4654 1.18873Z" fill="url(#paint65_linear_1_573)"/>
<path id="Vector_67" d="M12.1155 5.39743C12.846 5.39743 13.4382 4.80527 13.4382 4.0748C13.4382 3.34433 12.846 2.75216 12.1155 2.75216C11.3851 2.75216 10.7929 3.34433 10.7929 4.0748C10.7929 4.80527 11.3851 5.39743 12.1155 5.39743Z" fill="url(#paint66_linear_1_573)"/>
<path id="Vector_68" d="M11.1803 3.1396C10.6638 3.65612 10.6638 4.49353 11.1803 5.01004C11.6968 5.52656 12.5342 5.52656 13.0507 5.01004C13.1594 4.90152 13.2484 4.77487 13.3136 4.63579L11.5545 2.87677C11.4154 2.94193 11.2888 3.03087 11.1803 3.1396Z" fill="url(#paint67_linear_1_573)"/>
<path id="Vector_69" d="M10.7929 4.0748C10.7929 4.80524 11.385 5.39743 12.1155 5.39743C12.846 5.39743 13.4382 4.80529 13.4382 4.0748C13.4382 3.91659 13.4103 3.76492 13.3593 3.6243H10.8717C10.8194 3.76874 10.7928 3.92119 10.7929 4.0748Z" fill="url(#paint68_linear_1_573)"/>
<path id="Vector_70" d="M21.1215 14.412C19.765 13.7209 19.4056 11.7078 19.5363 11.4514C19.6669 11.195 21.5068 10.3025 22.8632 10.9937C24.2197 11.6848 22.478 15.1032 21.1215 14.412Z" fill="url(#paint69_linear_1_573)"/>
<path id="Vector_71" d="M22.3252 10.802C21.0653 10.5199 19.6502 11.2277 19.5362 11.4514C19.4056 11.7077 19.765 13.7208 21.1215 14.412C21.5188 14.6145 21.9493 14.4642 22.3252 14.1331V10.802Z" fill="url(#paint70_linear_1_573)"/>
<path id="Vector_72" d="M16.8449 14.0601C17.0831 12.5564 18.8866 11.5926 19.1708 11.6376C19.455 11.6826 20.8724 13.1566 20.6343 14.6603C20.396 16.1639 16.6068 15.5638 16.8449 14.0601Z" fill="url(#paint71_linear_1_573)"/>
<path id="Vector_73" d="M20.6267 13.9092C20.4266 12.7003 19.4071 11.675 19.1708 11.6376C18.9345 11.6001 17.6481 12.2603 17.0841 13.3481L20.6267 13.9092Z" fill="url(#paint72_linear_1_573)"/>
<path id="Vector_74" d="M15.858 9.88412C17.3617 9.64595 18.8357 11.0634 18.8807 11.3476C18.9257 11.6317 17.9618 13.4353 16.4582 13.6734C14.9545 13.9116 14.3544 10.1223 15.858 9.88412Z" fill="url(#paint73_linear_1_573)"/>
<path id="Vector_75" d="M17.1703 13.4342C18.2581 12.8703 18.9182 11.5838 18.8808 11.3476C18.8433 11.1113 17.818 10.0918 16.6092 9.8916L17.1703 13.4342Z" fill="url(#paint74_linear_1_573)"/>
<path id="Vector_76" d="M19.5247 7.65508C20.2159 9.01155 19.3233 10.8515 19.067 10.982C18.8106 11.1126 16.7975 10.7533 16.1064 9.39682C15.4152 8.04035 18.8336 6.29861 19.5247 7.65508Z" fill="url(#paint75_linear_1_573)"/>
<path id="Vector_77" d="M16.5539 10.0001C17.4264 10.8604 18.8538 11.0907 19.067 10.982C19.2801 10.8734 19.9329 9.58327 19.7497 8.37174L16.5539 10.0001Z" fill="url(#paint76_linear_1_573)"/>
<path id="Vector_78" d="M22.7777 10.4535C21.7012 11.53 19.6756 11.2497 19.4721 11.0462C19.2686 10.8428 18.9884 8.81715 20.0648 7.74063C21.1414 6.66416 23.8542 9.37696 22.7777 10.4535Z" fill="url(#paint77_linear_1_573)"/>
<path id="Vector_79" d="M19.6294 8.35273C19.0808 9.44835 19.3029 10.8771 19.4721 11.0462C19.6413 11.2154 21.07 11.4375 22.1656 10.8889L19.6294 8.35273Z" fill="url(#paint78_linear_1_573)"/>
<path id="Vector_80" d="M19.2795 12.5614C20.01 12.5614 20.6022 11.9693 20.6022 11.2388C20.6022 10.5083 20.01 9.91616 19.2795 9.91616C18.5491 9.91616 17.9569 10.5083 17.9569 11.2388C17.9569 11.9693 18.5491 12.5614 19.2795 12.5614Z" fill="url(#paint79_linear_1_573)"/>
<path id="Vector_81" d="M18.3443 10.3036C17.8278 10.8201 17.8278 11.6575 18.3443 12.174C18.8608 12.6905 19.6982 12.6905 20.2147 12.174C20.3234 12.0655 20.4124 11.9388 20.4776 11.7997L18.7185 10.0407C18.5795 10.1059 18.4528 10.1948 18.3443 10.3036Z" fill="url(#paint80_linear_1_573)"/>
<path id="Vector_82" d="M17.9569 11.2388C17.9569 11.9692 18.549 12.5614 19.2795 12.5614C20.01 12.5614 20.6022 11.9693 20.6022 11.2388C20.6022 11.0806 20.5743 10.9289 20.5233 10.7883H18.0357C17.9834 10.9327 17.9568 11.0852 17.9569 11.2388Z" fill="url(#paint81_linear_1_573)"/>
<path id="Vector_83" d="M14.6438 13.7257C13.2873 13.0346 12.9279 11.0215 13.0585 10.7651C13.1892 10.5087 15.029 9.61621 16.3855 10.3074C17.742 10.9985 16.0003 14.4169 14.6438 13.7257Z" fill="url(#paint82_linear_1_573)"/>
<path id="Vector_84" d="M15.8475 10.1157C14.5876 9.83362 13.1725 10.5414 13.0585 10.7651C12.9279 11.0215 13.2873 13.0346 14.6438 13.7257C15.0411 13.9282 15.4716 13.7779 15.8475 13.4468V10.1157Z" fill="url(#paint83_linear_1_573)"/>
<path id="Vector_85" d="M10.3672 13.3738C10.6054 11.8701 12.4089 10.9063 12.6931 10.9513C12.9773 10.9963 14.3947 12.4703 14.1565 13.974C13.9184 15.4776 10.129 14.8775 10.3672 13.3738Z" fill="url(#paint84_linear_1_573)"/>
<path id="Vector_86" d="M14.149 13.2228C13.9489 12.014 12.9294 10.9887 12.6931 10.9513C12.4568 10.9139 11.1704 11.574 10.6065 12.6618L14.149 13.2228Z" fill="url(#paint85_linear_1_573)"/>
<path id="Vector_87" d="M9.38033 9.19781C10.884 8.95964 12.358 10.3771 12.403 10.6612C12.448 10.9454 11.4841 12.749 9.98047 12.9871C8.4768 13.2253 7.87666 9.43597 9.38033 9.19781Z" fill="url(#paint86_linear_1_573)"/>
<path id="Vector_88" d="M10.6926 12.7479C11.7804 12.184 12.4405 10.8975 12.4031 10.6612C12.3657 10.425 11.3403 9.40548 10.1315 9.20529L10.6926 12.7479Z" fill="url(#paint87_linear_1_573)"/>
<path id="Vector_89" d="M13.047 6.96882C13.7381 8.32529 12.8456 10.1652 12.5892 10.2958C12.3328 10.4264 10.3198 10.067 9.62861 8.71056C8.93746 7.35409 12.3558 5.61235 13.047 6.96882Z" fill="url(#paint88_linear_1_573)"/>
<path id="Vector_90" d="M10.0762 9.31386C10.9487 10.1742 12.3761 10.4044 12.5893 10.2958C12.8025 10.1872 13.4552 8.89701 13.272 7.68548L10.0762 9.31386Z" fill="url(#paint89_linear_1_573)"/>
<path id="Vector_91" d="M16.3 9.76718C15.2235 10.8437 13.1979 10.5634 12.9944 10.3599C12.7909 10.1564 12.5107 8.13085 13.5872 7.05433C14.6636 5.97781 17.3765 8.69066 16.3 9.76718Z" fill="url(#paint90_linear_1_573)"/>
<path id="Vector_92" d="M13.1517 7.66642C12.6031 8.76204 12.8252 10.1908 12.9944 10.3599C13.1635 10.5291 14.5922 10.7512 15.6879 10.2026L13.1517 7.66642Z" fill="url(#paint91_linear_1_573)"/>
<path id="Vector_93" d="M12.8018 11.8751C13.5323 11.8751 14.1245 11.283 14.1245 10.5525C14.1245 9.82202 13.5323 9.22986 12.8018 9.22986C12.0714 9.22986 11.4792 9.82202 11.4792 10.5525C11.4792 11.283 12.0714 11.8751 12.8018 11.8751Z" fill="url(#paint92_linear_1_573)"/>
<path id="Vector_94" d="M11.8666 9.61729C11.3501 10.1338 11.3501 10.9712 11.8666 11.4877C12.3831 12.0043 13.2205 12.0043 13.737 11.4877C13.8457 11.3792 13.9347 11.2526 13.9999 11.1135L12.2409 9.35447C12.1018 9.41965 11.9751 9.50859 11.8666 9.61729Z" fill="url(#paint93_linear_1_573)"/>
<path id="Vector_95" d="M11.4792 10.5525C11.4792 11.2829 12.0713 11.8751 12.8018 11.8751C13.5323 11.8751 14.1245 11.283 14.1245 10.5525C14.1245 10.3943 14.0966 10.2426 14.0457 10.102H11.558C11.5057 10.2464 11.4791 10.3989 11.4792 10.5525Z" fill="url(#paint94_linear_1_573)"/>
<path id="Vector_96" d="M4.04537 6.53776C2.19205 9.20477 2.40311 12.8714 4.6784 15.3109L4.67497 15.3143L4.8505 15.4899L7.86452 18.5039L8.04005 18.6794L8.04349 18.676C10.4829 20.9513 14.1496 21.1623 16.8166 19.309L4.04537 6.53776Z" fill="url(#paint95_linear_1_573)"/>
</g>
<defs>
<linearGradient id="paint0_linear_1_573" x1="3.672" y1="17.4918" x2="3.4226" y2="21.9129" gradientUnits="userSpaceOnUse">
<stop stop-color="#FFFAF8"/>
<stop offset="1" stop-color="#FFDFCF"/>
</linearGradient>
<linearGradient id="paint1_linear_1_573" x1="4.50363" y1="20.3403" x2="6.18704" y2="21.3435" gradientUnits="userSpaceOnUse">
<stop stop-color="#FFA78F" stop-opacity="0"/>
<stop offset="1" stop-color="#FFA78F"/>
</linearGradient>
<linearGradient id="paint2_linear_1_573" x1="4.52109" y1="19.9824" x2="6.52755" y2="20.7193" gradientUnits="userSpaceOnUse">
<stop stop-color="#FFA78F" stop-opacity="0"/>
<stop offset="1" stop-color="#FFA78F"/>
</linearGradient>
<linearGradient id="paint3_linear_1_573" x1="2.31499" y1="19.6397" x2="-0.473708" y2="19.4357" gradientUnits="userSpaceOnUse">
<stop stop-color="#FFA78F" stop-opacity="0"/>
<stop offset="1" stop-color="#FFA78F"/>
</linearGradient>
<linearGradient id="paint4_linear_1_573" x1="3.70348" y1="19.3105" x2="3.02329" y2="17.5874" gradientUnits="userSpaceOnUse">
<stop stop-color="#FFA78F" stop-opacity="0"/>
<stop offset="1" stop-color="#FFA78F"/>
</linearGradient>
<linearGradient id="paint5_linear_1_573" x1="6.63014" y1="16.727" x2="5.05144" y2="18.3057" gradientUnits="userSpaceOnUse">
<stop stop-color="#78A04D"/>
<stop offset="1" stop-color="#334C0F"/>
</linearGradient>
<linearGradient id="paint6_linear_1_573" x1="7.44459" y1="9.5713" x2="6.83249" y2="14.7406" gradientUnits="userSpaceOnUse">
<stop stop-color="#FFFAF8"/>
<stop offset="1" stop-color="#FFDFCF"/>
</linearGradient>
<linearGradient id="paint7_linear_1_573" x1="8.51647" y1="10.4789" x2="10.9877" y2="9.36789" gradientUnits="userSpaceOnUse">
<stop stop-color="#FFA78F" stop-opacity="0"/>
<stop offset="1" stop-color="#FFA78F"/>
</linearGradient>
<linearGradient id="paint8_linear_1_573" x1="6.40992" y1="11.8852" x2="1.78477" y2="12.6107" gradientUnits="userSpaceOnUse">
<stop stop-color="#FFA78F" stop-opacity="0"/>
<stop offset="1" stop-color="#FFA78F"/>
</linearGradient>
<linearGradient id="paint9_linear_1_573" x1="7.97421" y1="11.4116" x2="9.08515" y2="13.6108" gradientUnits="userSpaceOnUse">
<stop stop-color="#FFA78F" stop-opacity="0"/>
<stop offset="1" stop-color="#FFA78F"/>
</linearGradient>
<linearGradient id="paint10_linear_1_573" x1="13.4924" y1="12.132" x2="11.4859" y2="19.5118" gradientUnits="userSpaceOnUse">
<stop stop-color="#FFFAF8"/>
<stop offset="1" stop-color="#FFDFCF"/>
</linearGradient>
<linearGradient id="paint11_linear_1_573" x1="10.7941" y1="16.5984" x2="9.22973" y2="20.8835" gradientUnits="userSpaceOnUse">
<stop stop-color="#FFA78F" stop-opacity="0"/>
<stop offset="1" stop-color="#FFA78F"/>
</linearGradient>
<linearGradient id="paint12_linear_1_573" x1="14.7275" y1="14.7945" x2="19.6927" y2="13.9103" gradientUnits="userSpaceOnUse">
<stop stop-color="#FFA78F" stop-opacity="0"/>
<stop offset="1" stop-color="#FFA78F"/>
</linearGradient>
<linearGradient id="paint13_linear_1_573" x1="9.48169" y1="15.5338" x2="8.06545" y2="19.413" gradientUnits="userSpaceOnUse">
<stop stop-color="#FFA78F" stop-opacity="0"/>
<stop offset="1" stop-color="#FFA78F"/>
</linearGradient>
<linearGradient id="paint14_linear_1_573" x1="14.7887" y1="17.5983" x2="14.9142" y2="12.5787" gradientUnits="userSpaceOnUse">
<stop stop-color="#FFA78F" stop-opacity="0"/>
<stop offset="1" stop-color="#FFA78F"/>
</linearGradient>
<linearGradient id="paint15_linear_1_573" x1="8.62342" y1="10.2278" x2="7.76267" y2="9.68629" gradientUnits="userSpaceOnUse">
<stop stop-color="#D1F19E"/>
<stop offset="1" stop-color="#78A91F"/>
</linearGradient>
<linearGradient id="paint16_linear_1_573" x1="8.2465" y1="10.0117" x2="7.61099" y2="9.53873" gradientUnits="userSpaceOnUse">
<stop stop-color="#026841" stop-opacity="0"/>
<stop offset="0.324" stop-color="#046842" stop-opacity="0.324"/>
<stop offset="0.551" stop-color="#0E6546" stop-opacity="0.551"/>
<stop offset="0.748" stop-color="#1D614C" stop-opacity="0.748"/>
<stop offset="0.926" stop-color="#335C54" stop-opacity="0.926"/>
<stop offset="1" stop-color="#3E5959"/>
</linearGradient>
<linearGradient id="paint17_linear_1_573" x1="7.992" y1="6.36286" x2="9.6897" y2="9.40241" gradientUnits="userSpaceOnUse">
<stop stop-color="#D1F19E"/>
<stop offset="1" stop-color="#78A91F"/>
</linearGradient>
<linearGradient id="paint18_linear_1_573" x1="9.04509" y1="8.09059" x2="9.98882" y2="6.61971" gradientUnits="userSpaceOnUse">
<stop stop-color="#026841" stop-opacity="0"/>
<stop offset="0.324" stop-color="#046842" stop-opacity="0.324"/>
<stop offset="0.551" stop-color="#0E6546" stop-opacity="0.551"/>
<stop offset="0.748" stop-color="#1D614C" stop-opacity="0.748"/>
<stop offset="0.926" stop-color="#335C54" stop-opacity="0.926"/>
<stop offset="1" stop-color="#3E5959"/>
</linearGradient>
<linearGradient id="paint19_linear_1_573" x1="9.30055" y1="8.7393" x2="8.38234" y2="6.86888" gradientUnits="userSpaceOnUse">
<stop stop-color="#026841" stop-opacity="0"/>
<stop offset="0.324" stop-color="#046842" stop-opacity="0.324"/>
<stop offset="0.551" stop-color="#0E6546" stop-opacity="0.551"/>
<stop offset="0.748" stop-color="#1D614C" stop-opacity="0.748"/>
<stop offset="0.926" stop-color="#335C54" stop-opacity="0.926"/>
<stop offset="1" stop-color="#3E5959"/>
</linearGradient>
<linearGradient id="paint20_linear_1_573" x1="8.82057" y1="7.98216" x2="10.1242" y2="8.42429" gradientUnits="userSpaceOnUse">
<stop stop-color="#026841" stop-opacity="0"/>
<stop offset="0.324" stop-color="#046842" stop-opacity="0.324"/>
<stop offset="0.551" stop-color="#0E6546" stop-opacity="0.551"/>
<stop offset="0.748" stop-color="#1D614C" stop-opacity="0.748"/>
<stop offset="0.926" stop-color="#335C54" stop-opacity="0.926"/>
<stop offset="1" stop-color="#3E5959"/>
</linearGradient>
<linearGradient id="paint21_linear_1_573" x1="7.98819" y1="7.04787" x2="8.60033" y2="7.55798" gradientUnits="userSpaceOnUse">
<stop stop-color="#D1F19E"/>
<stop offset="1" stop-color="#78A91F"/>
</linearGradient>
<linearGradient id="paint22_linear_1_573" x1="20.3051" y1="17.6447" x2="21.2966" y2="17.8706" gradientUnits="userSpaceOnUse">
<stop stop-color="#D1F19E"/>
<stop offset="1" stop-color="#78A91F"/>
</linearGradient>
<linearGradient id="paint23_linear_1_573" x1="20.7244" y1="17.7584" x2="21.5082" y2="17.8736" gradientUnits="userSpaceOnUse">
<stop stop-color="#026841" stop-opacity="0"/>
<stop offset="0.324" stop-color="#046842" stop-opacity="0.324"/>
<stop offset="0.551" stop-color="#0E6546" stop-opacity="0.551"/>
<stop offset="0.748" stop-color="#1D614C" stop-opacity="0.748"/>
<stop offset="0.926" stop-color="#335C54" stop-opacity="0.926"/>
<stop offset="1" stop-color="#3E5959"/>
</linearGradient>
<linearGradient id="paint24_linear_1_573" x1="23.4849" y1="15.3588" x2="20.135" y2="16.3071" gradientUnits="userSpaceOnUse">
<stop stop-color="#D1F19E"/>
<stop offset="1" stop-color="#78A91F"/>
</linearGradient>
<linearGradient id="paint25_linear_1_573" x1="21.5225" y1="15.8348" x2="21.8952" y2="14.1275" gradientUnits="userSpaceOnUse">
<stop stop-color="#026841" stop-opacity="0"/>
<stop offset="0.324" stop-color="#046842" stop-opacity="0.324"/>
<stop offset="0.551" stop-color="#0E6546" stop-opacity="0.551"/>
<stop offset="0.748" stop-color="#1D614C" stop-opacity="0.748"/>
<stop offset="0.926" stop-color="#335C54" stop-opacity="0.926"/>
<stop offset="1" stop-color="#3E5959"/>
</linearGradient>
<linearGradient id="paint26_linear_1_573" x1="20.8831" y1="16.113" x2="22.855" y2="15.4396" gradientUnits="userSpaceOnUse">
<stop stop-color="#026841" stop-opacity="0"/>
<stop offset="0.324" stop-color="#046842" stop-opacity="0.324"/>
<stop offset="0.551" stop-color="#0E6546" stop-opacity="0.551"/>
<stop offset="0.748" stop-color="#1D614C" stop-opacity="0.748"/>
<stop offset="0.926" stop-color="#335C54" stop-opacity="0.926"/>
<stop offset="1" stop-color="#3E5959"/>
</linearGradient>
<linearGradient id="paint27_linear_1_573" x1="21.0348" y1="15.5867" x2="19.7992" y2="15.0312" gradientUnits="userSpaceOnUse">
<stop stop-color="#026841" stop-opacity="0"/>
<stop offset="0.324" stop-color="#046842" stop-opacity="0.324"/>
<stop offset="0.551" stop-color="#0E6546" stop-opacity="0.551"/>
<stop offset="0.748" stop-color="#1D614C" stop-opacity="0.748"/>
<stop offset="0.926" stop-color="#335C54" stop-opacity="0.926"/>
<stop offset="1" stop-color="#3E5959"/>
</linearGradient>
<linearGradient id="paint28_linear_1_573" x1="23.0071" y1="15.8449" x2="22.2136" y2="15.7727" gradientUnits="userSpaceOnUse">
<stop stop-color="#D1F19E"/>
<stop offset="1" stop-color="#78A91F"/>
</linearGradient>
<linearGradient id="paint29_linear_1_573" x1="6.1583" y1="3.51545" x2="5.93256" y2="2.5239" gradientUnits="userSpaceOnUse">
<stop stop-color="#D1F19E"/>
<stop offset="1" stop-color="#78A91F"/>
</linearGradient>
<linearGradient id="paint30_linear_1_573" x1="6.04466" y1="3.09608" x2="5.9297" y2="2.3123" gradientUnits="userSpaceOnUse">
<stop stop-color="#026841" stop-opacity="0"/>
<stop offset="0.324" stop-color="#046842" stop-opacity="0.324"/>
<stop offset="0.551" stop-color="#0E6546" stop-opacity="0.551"/>
<stop offset="0.748" stop-color="#1D614C" stop-opacity="0.748"/>
<stop offset="0.926" stop-color="#335C54" stop-opacity="0.926"/>
<stop offset="1" stop-color="#3E5959"/>
</linearGradient>
<linearGradient id="paint31_linear_1_573" x1="8.4448" y1="0.33603" x2="7.49592" y2="3.68578" gradientUnits="userSpaceOnUse">
<stop stop-color="#D1F19E"/>
<stop offset="1" stop-color="#78A91F"/>
</linearGradient>
<linearGradient id="paint32_linear_1_573" x1="7.97614" y1="2.28859" x2="9.68349" y2="1.91583" gradientUnits="userSpaceOnUse">
<stop stop-color="#026841" stop-opacity="0"/>
<stop offset="0.324" stop-color="#046842" stop-opacity="0.324"/>
<stop offset="0.551" stop-color="#0E6546" stop-opacity="0.551"/>
<stop offset="0.748" stop-color="#1D614C" stop-opacity="0.748"/>
<stop offset="0.926" stop-color="#335C54" stop-opacity="0.926"/>
<stop offset="1" stop-color="#3E5959"/>
</linearGradient>
<linearGradient id="paint33_linear_1_573" x1="7.69803" y1="2.92797" x2="8.37139" y2="0.956068" gradientUnits="userSpaceOnUse">
<stop stop-color="#026841" stop-opacity="0"/>
<stop offset="0.324" stop-color="#046842" stop-opacity="0.324"/>
<stop offset="0.551" stop-color="#0E6546" stop-opacity="0.551"/>
<stop offset="0.748" stop-color="#1D614C" stop-opacity="0.748"/>
<stop offset="0.926" stop-color="#335C54" stop-opacity="0.926"/>
<stop offset="1" stop-color="#3E5959"/>
</linearGradient>
<linearGradient id="paint34_linear_1_573" x1="8.22373" y1="2.77582" x2="8.7792" y2="4.01144" gradientUnits="userSpaceOnUse">
<stop stop-color="#026841" stop-opacity="0"/>
<stop offset="0.324" stop-color="#046842" stop-opacity="0.324"/>
<stop offset="0.551" stop-color="#0E6546" stop-opacity="0.551"/>
<stop offset="0.748" stop-color="#1D614C" stop-opacity="0.748"/>
<stop offset="0.926" stop-color="#335C54" stop-opacity="0.926"/>
<stop offset="1" stop-color="#3E5959"/>
</linearGradient>
<linearGradient id="paint35_linear_1_573" x1="7.96612" y1="0.803927" x2="8.03826" y2="1.59748" gradientUnits="userSpaceOnUse">
<stop stop-color="#D1F19E"/>
<stop offset="1" stop-color="#78A91F"/>
</linearGradient>
<linearGradient id="paint36_linear_1_573" x1="22.3289" y1="9.02216" x2="23.1896" y2="8.48065" gradientUnits="userSpaceOnUse">
<stop stop-color="#D1F19E"/>
<stop offset="1" stop-color="#78A91F"/>
</linearGradient>
<linearGradient id="paint37_linear_1_573" x1="22.7058" y1="8.80597" x2="23.3413" y2="8.33305" gradientUnits="userSpaceOnUse">
<stop stop-color="#026841" stop-opacity="0"/>
<stop offset="0.324" stop-color="#046842" stop-opacity="0.324"/>
<stop offset="0.551" stop-color="#0E6546" stop-opacity="0.551"/>
<stop offset="0.748" stop-color="#1D614C" stop-opacity="0.748"/>
<stop offset="0.926" stop-color="#335C54" stop-opacity="0.926"/>
<stop offset="1" stop-color="#3E5959"/>
</linearGradient>
<linearGradient id="paint38_linear_1_573" x1="22.9603" y1="5.15717" x2="21.2627" y2="8.19674" gradientUnits="userSpaceOnUse">
<stop stop-color="#D1F19E"/>
<stop offset="1" stop-color="#78A91F"/>
</linearGradient>
<linearGradient id="paint39_linear_1_573" x1="21.9067" y1="6.88273" x2="20.963" y2="5.41188" gradientUnits="userSpaceOnUse">
<stop stop-color="#026841" stop-opacity="0"/>
<stop offset="0.324" stop-color="#046842" stop-opacity="0.324"/>
<stop offset="0.551" stop-color="#0E6546" stop-opacity="0.551"/>
<stop offset="0.748" stop-color="#1D614C" stop-opacity="0.748"/>
<stop offset="0.926" stop-color="#335C54" stop-opacity="0.926"/>
<stop offset="1" stop-color="#3E5959"/>
</linearGradient>
<linearGradient id="paint40_linear_1_573" x1="21.6512" y1="7.53147" x2="22.5694" y2="5.66098" gradientUnits="userSpaceOnUse">
<stop stop-color="#026841" stop-opacity="0"/>
<stop offset="0.324" stop-color="#046842" stop-opacity="0.324"/>
<stop offset="0.551" stop-color="#0E6546" stop-opacity="0.551"/>
<stop offset="0.748" stop-color="#1D614C" stop-opacity="0.748"/>
<stop offset="0.926" stop-color="#335C54" stop-opacity="0.926"/>
<stop offset="1" stop-color="#3E5959"/>
</linearGradient>
<linearGradient id="paint41_linear_1_573" x1="21.3878" y1="7.05701" x2="20.1213" y2="7.538" gradientUnits="userSpaceOnUse">
<stop stop-color="#026841" stop-opacity="0"/>
<stop offset="0.324" stop-color="#046842" stop-opacity="0.324"/>
<stop offset="0.551" stop-color="#0E6546" stop-opacity="0.551"/>
<stop offset="0.748" stop-color="#1D614C" stop-opacity="0.748"/>
<stop offset="0.926" stop-color="#335C54" stop-opacity="0.926"/>
<stop offset="1" stop-color="#3E5959"/>
</linearGradient>
<linearGradient id="paint42_linear_1_573" x1="22.9636" y1="5.83997" x2="22.3514" y2="6.35012" gradientUnits="userSpaceOnUse">
<stop stop-color="#D1F19E"/>
<stop offset="1" stop-color="#78A91F"/>
</linearGradient>
<linearGradient id="paint43_linear_1_573" x1="19.881" y1="5.72564" x2="18.1393" y2="9.144" gradientUnits="userSpaceOnUse">
<stop stop-color="#FFA1AE"/>
<stop offset="1" stop-color="#FF4565"/>
</linearGradient>
<linearGradient id="paint44_linear_1_573" x1="19.1839" y1="7.71657" x2="18.3663" y2="6.01306" gradientUnits="userSpaceOnUse">
<stop stop-color="#FD4755" stop-opacity="0"/>
<stop offset="1" stop-color="#CA2E43"/>
</linearGradient>
<linearGradient id="paint45_linear_1_573" x1="16.4895" y1="6.69604" x2="16.4895" y2="9.87868" gradientUnits="userSpaceOnUse">
<stop stop-color="#FFA1AE"/>
<stop offset="1" stop-color="#FF4565"/>
</linearGradient>
<linearGradient id="paint46_linear_1_573" x1="16.5973" y1="8.44354" x2="16.5973" y2="6.80239" gradientUnits="userSpaceOnUse">
<stop stop-color="#FD4755" stop-opacity="0"/>
<stop offset="1" stop-color="#CA2E43"/>
</linearGradient>
<linearGradient id="paint47_linear_1_573" x1="14.6763" y1="5.34884" x2="14.6763" y2="8.71277" gradientUnits="userSpaceOnUse">
<stop stop-color="#FFA1AE"/>
<stop offset="1" stop-color="#FF4565"/>
</linearGradient>
<linearGradient id="paint48_linear_1_573" x1="14.9624" y1="6.75976" x2="16.4373" y2="6.75979" gradientUnits="userSpaceOnUse">
<stop stop-color="#FD4755" stop-opacity="0"/>
<stop offset="1" stop-color="#CA2E43"/>
</linearGradient>
<linearGradient id="paint49_linear_1_573" x1="15.4357" y1="2.41719" x2="15.8359" y2="5.39479" gradientUnits="userSpaceOnUse">
<stop stop-color="#FFA1AE"/>
<stop offset="1" stop-color="#FF4565"/>
</linearGradient>
<linearGradient id="paint50_linear_1_573" x1="16.2051" y1="4.59425" x2="16.981" y2="5.37017" gradientUnits="userSpaceOnUse">
<stop stop-color="#FD4755" stop-opacity="0"/>
<stop offset="1" stop-color="#CA2E43"/>
</linearGradient>
<linearGradient id="paint51_linear_1_573" x1="17.2358" y1="3.40844" x2="19.9487" y2="6.12127" gradientUnits="userSpaceOnUse">
<stop stop-color="#FFA1AE"/>
<stop offset="1" stop-color="#FF4565"/>
</linearGradient>
<linearGradient id="paint52_linear_1_573" x1="18.3988" y1="4.95832" x2="17.5004" y2="5.85669" gradientUnits="userSpaceOnUse">
<stop stop-color="#FD4755" stop-opacity="0"/>
<stop offset="1" stop-color="#CA2E43"/>
</linearGradient>
<linearGradient id="paint53_linear_1_573" x1="17.0162" y1="5.61293" x2="17.0162" y2="7.31332" gradientUnits="userSpaceOnUse">
<stop stop-color="#FEF0AE"/>
<stop offset="1" stop-color="#FAC600"/>
</linearGradient>
<linearGradient id="paint54_linear_1_573" x1="17.0043" y1="6.34749" x2="15.9042" y2="7.44765" gradientUnits="userSpaceOnUse">
<stop stop-color="#FE9738" stop-opacity="0"/>
<stop offset="1" stop-color="#FE9738"/>
</linearGradient>
<linearGradient id="paint55_linear_1_573" x1="17.016" y1="6.35503" x2="17.016" y2="7.99277" gradientUnits="userSpaceOnUse">
<stop stop-color="#FE9738" stop-opacity="0"/>
<stop offset="1" stop-color="#FE9738"/>
</linearGradient>
<linearGradient id="paint56_linear_1_573" x1="14.9805" y1="3.46215" x2="13.2388" y2="6.88051" gradientUnits="userSpaceOnUse">
<stop stop-color="#FFA1AE"/>
<stop offset="1" stop-color="#FF4565"/>
</linearGradient>
<linearGradient id="paint57_linear_1_573" x1="14.2835" y1="5.45306" x2="13.4658" y2="3.74958" gradientUnits="userSpaceOnUse">
<stop stop-color="#FD4755" stop-opacity="0"/>
<stop offset="1" stop-color="#CA2E43"/>
</linearGradient>
<linearGradient id="paint58_linear_1_573" x1="11.589" y1="4.43253" x2="11.589" y2="7.61518" gradientUnits="userSpaceOnUse">
<stop stop-color="#FFA1AE"/>
<stop offset="1" stop-color="#FF4565"/>
</linearGradient>
<linearGradient id="paint59_linear_1_573" x1="11.6968" y1="6.18" x2="11.6968" y2="4.53888" gradientUnits="userSpaceOnUse">
<stop stop-color="#FD4755" stop-opacity="0"/>
<stop offset="1" stop-color="#CA2E43"/>
</linearGradient>
<linearGradient id="paint60_linear_1_573" x1="9.77581" y1="3.0853" x2="9.77581" y2="6.44926" gradientUnits="userSpaceOnUse">
<stop stop-color="#FFA1AE"/>
<stop offset="1" stop-color="#FF4565"/>
</linearGradient>
<linearGradient id="paint61_linear_1_573" x1="10.0619" y1="4.49629" x2="11.5368" y2="4.49625" gradientUnits="userSpaceOnUse">
<stop stop-color="#FD4755" stop-opacity="0"/>
<stop offset="1" stop-color="#CA2E43"/>
</linearGradient>
<linearGradient id="paint62_linear_1_573" x1="10.5352" y1="0.153718" x2="10.9354" y2="3.13125" gradientUnits="userSpaceOnUse">
<stop stop-color="#FFA1AE"/>
<stop offset="1" stop-color="#FF4565"/>
</linearGradient>
<linearGradient id="paint63_linear_1_573" x1="11.3046" y1="2.33074" x2="12.0805" y2="3.10666" gradientUnits="userSpaceOnUse">
<stop stop-color="#FD4755" stop-opacity="0"/>
<stop offset="1" stop-color="#CA2E43"/>
</linearGradient>
<linearGradient id="paint64_linear_1_573" x1="12.3353" y1="1.14493" x2="15.0481" y2="3.85776" gradientUnits="userSpaceOnUse">
<stop stop-color="#FFA1AE"/>
<stop offset="1" stop-color="#FF4565"/>
</linearGradient>
<linearGradient id="paint65_linear_1_573" x1="13.4983" y1="2.69481" x2="12.5999" y2="3.59315" gradientUnits="userSpaceOnUse">
<stop stop-color="#FD4755" stop-opacity="0"/>
<stop offset="1" stop-color="#CA2E43"/>
</linearGradient>
<linearGradient id="paint66_linear_1_573" x1="12.1157" y1="3.34943" x2="12.1157" y2="5.04978" gradientUnits="userSpaceOnUse">
<stop stop-color="#FEF0AE"/>
<stop offset="1" stop-color="#FAC600"/>
</linearGradient>
<linearGradient id="paint67_linear_1_573" x1="12.1038" y1="4.08395" x2="11.0037" y2="5.18414" gradientUnits="userSpaceOnUse">
<stop stop-color="#FE9738" stop-opacity="0"/>
<stop offset="1" stop-color="#FE9738"/>
</linearGradient>
<linearGradient id="paint68_linear_1_573" x1="12.1155" y1="4.09155" x2="12.1155" y2="5.72929" gradientUnits="userSpaceOnUse">
<stop stop-color="#FE9738" stop-opacity="0"/>
<stop offset="1" stop-color="#FE9738"/>
</linearGradient>
<linearGradient id="paint69_linear_1_573" x1="22.1445" y1="10.6262" x2="20.4028" y2="14.0445" gradientUnits="userSpaceOnUse">
<stop stop-color="#FFA1AE"/>
<stop offset="1" stop-color="#FF4565"/>
</linearGradient>
<linearGradient id="paint70_linear_1_573" x1="21.4475" y1="12.6171" x2="20.6297" y2="10.9136" gradientUnits="userSpaceOnUse">
<stop stop-color="#FD4755" stop-opacity="0"/>
<stop offset="1" stop-color="#CA2E43"/>
</linearGradient>
<linearGradient id="paint71_linear_1_573" x1="18.753" y1="11.5965" x2="18.753" y2="14.7791" gradientUnits="userSpaceOnUse">
<stop stop-color="#FFA1AE"/>
<stop offset="1" stop-color="#FF4565"/>
</linearGradient>
<linearGradient id="paint72_linear_1_573" x1="18.8608" y1="13.344" x2="18.8608" y2="11.7029" gradientUnits="userSpaceOnUse">
<stop stop-color="#FD4755" stop-opacity="0"/>
<stop offset="1" stop-color="#CA2E43"/>
</linearGradient>
<linearGradient id="paint73_linear_1_573" x1="16.9398" y1="10.2493" x2="16.9398" y2="13.6133" gradientUnits="userSpaceOnUse">
<stop stop-color="#FFA1AE"/>
<stop offset="1" stop-color="#FF4565"/>
</linearGradient>
<linearGradient id="paint74_linear_1_573" x1="17.2259" y1="11.6603" x2="18.7008" y2="11.6603" gradientUnits="userSpaceOnUse">
<stop stop-color="#FD4755" stop-opacity="0"/>
<stop offset="1" stop-color="#CA2E43"/>
</linearGradient>
<linearGradient id="paint75_linear_1_573" x1="17.6992" y1="7.31773" x2="18.0994" y2="10.2953" gradientUnits="userSpaceOnUse">
<stop stop-color="#FFA1AE"/>
<stop offset="1" stop-color="#FF4565"/>
</linearGradient>
<linearGradient id="paint76_linear_1_573" x1="18.4686" y1="9.49475" x2="19.2445" y2="10.2707" gradientUnits="userSpaceOnUse">
<stop stop-color="#FD4755" stop-opacity="0"/>
<stop offset="1" stop-color="#CA2E43"/>
</linearGradient>
<linearGradient id="paint77_linear_1_573" x1="19.4993" y1="8.30894" x2="22.2121" y2="11.0218" gradientUnits="userSpaceOnUse">
<stop stop-color="#FFA1AE"/>
<stop offset="1" stop-color="#FF4565"/>
</linearGradient>
<linearGradient id="paint78_linear_1_573" x1="20.6623" y1="9.85882" x2="19.7639" y2="10.7572" gradientUnits="userSpaceOnUse">
<stop stop-color="#FD4755" stop-opacity="0"/>
<stop offset="1" stop-color="#CA2E43"/>
</linearGradient>
<linearGradient id="paint79_linear_1_573" x1="19.2797" y1="10.5134" x2="19.2797" y2="12.2138" gradientUnits="userSpaceOnUse">
<stop stop-color="#FEF0AE"/>
<stop offset="1" stop-color="#FAC600"/>
</linearGradient>
<linearGradient id="paint80_linear_1_573" x1="19.2678" y1="11.248" x2="18.1677" y2="12.3482" gradientUnits="userSpaceOnUse">
<stop stop-color="#FE9738" stop-opacity="0"/>
<stop offset="1" stop-color="#FE9738"/>
</linearGradient>
<linearGradient id="paint81_linear_1_573" x1="19.2795" y1="11.2556" x2="19.2795" y2="12.8932" gradientUnits="userSpaceOnUse">
<stop stop-color="#FE9738" stop-opacity="0"/>
<stop offset="1" stop-color="#FE9738"/>
</linearGradient>
<linearGradient id="paint82_linear_1_573" x1="15.6668" y1="9.93985" x2="13.9251" y2="13.3582" gradientUnits="userSpaceOnUse">
<stop stop-color="#FFA1AE"/>
<stop offset="1" stop-color="#FF4565"/>
</linearGradient>
<linearGradient id="paint83_linear_1_573" x1="14.9697" y1="11.9308" x2="14.1521" y2="10.2273" gradientUnits="userSpaceOnUse">
<stop stop-color="#FD4755" stop-opacity="0"/>
<stop offset="1" stop-color="#CA2E43"/>
</linearGradient>
<linearGradient id="paint84_linear_1_573" x1="12.2753" y1="10.9103" x2="12.2753" y2="14.0929" gradientUnits="userSpaceOnUse">
<stop stop-color="#FFA1AE"/>
<stop offset="1" stop-color="#FF4565"/>
</linearGradient>
<linearGradient id="paint85_linear_1_573" x1="12.3831" y1="12.6577" x2="12.3831" y2="11.0166" gradientUnits="userSpaceOnUse">
<stop stop-color="#FD4755" stop-opacity="0"/>
<stop offset="1" stop-color="#CA2E43"/>
</linearGradient>
<linearGradient id="paint86_linear_1_573" x1="10.4621" y1="9.56303" x2="10.4621" y2="12.927" gradientUnits="userSpaceOnUse">
<stop stop-color="#FFA1AE"/>
<stop offset="1" stop-color="#FF4565"/>
</linearGradient>
<linearGradient id="paint87_linear_1_573" x1="10.7482" y1="10.974" x2="12.2231" y2="10.974" gradientUnits="userSpaceOnUse">
<stop stop-color="#FD4755" stop-opacity="0"/>
<stop offset="1" stop-color="#CA2E43"/>
</linearGradient>
<linearGradient id="paint88_linear_1_573" x1="11.2214" y1="6.63142" x2="11.6217" y2="9.60898" gradientUnits="userSpaceOnUse">
<stop stop-color="#FFA1AE"/>
<stop offset="1" stop-color="#FF4565"/>
</linearGradient>
<linearGradient id="paint89_linear_1_573" x1="11.9909" y1="8.80847" x2="12.7668" y2="9.58439" gradientUnits="userSpaceOnUse">
<stop stop-color="#FD4755" stop-opacity="0"/>
<stop offset="1" stop-color="#CA2E43"/>
</linearGradient>
<linearGradient id="paint90_linear_1_573" x1="13.0216" y1="7.62263" x2="15.7345" y2="10.3355" gradientUnits="userSpaceOnUse">
<stop stop-color="#FFA1AE"/>
<stop offset="1" stop-color="#FF4565"/>
</linearGradient>
<linearGradient id="paint91_linear_1_573" x1="14.1846" y1="9.17254" x2="13.2862" y2="10.0709" gradientUnits="userSpaceOnUse">
<stop stop-color="#FD4755" stop-opacity="0"/>
<stop offset="1" stop-color="#CA2E43"/>
</linearGradient>
<linearGradient id="paint92_linear_1_573" x1="12.802" y1="9.82712" x2="12.802" y2="11.5275" gradientUnits="userSpaceOnUse">
<stop stop-color="#FEF0AE"/>
<stop offset="1" stop-color="#FAC600"/>
</linearGradient>
<linearGradient id="paint93_linear_1_573" x1="12.7902" y1="10.5617" x2="11.69" y2="11.6619" gradientUnits="userSpaceOnUse">
<stop stop-color="#FE9738" stop-opacity="0"/>
<stop offset="1" stop-color="#FE9738"/>
</linearGradient>
<linearGradient id="paint94_linear_1_573" x1="12.8018" y1="10.5692" x2="12.8018" y2="12.207" gradientUnits="userSpaceOnUse">
<stop stop-color="#FE9738" stop-opacity="0"/>
<stop offset="1" stop-color="#FE9738"/>
</linearGradient>
<linearGradient id="paint95_linear_1_573" x1="7.75096" y1="15.6009" x2="6.23852" y2="17.1133" gradientUnits="userSpaceOnUse">
<stop stop-color="#FFA78F" stop-opacity="0"/>
<stop offset="1" stop-color="#FFA78F"/>
</linearGradient>
</defs>
</svg>
