<svg preserveAspectRatio="none" width="100%" height="100%" overflow="visible" style="display: block;" viewBox="0 0 24 20" fill="none" xmlns="http://www.w3.org/2000/svg">
<g id="Group">
<path id="Vector" d="M22.5686 19.9908H16.8581L14.7772 1.60339H21.1612C21.6903 1.60339 22.1351 2.00066 22.1946 2.5264L23.9908 18.3987C24.0868 19.2474 23.4228 19.9908 22.5686 19.9908Z" fill="url(#paint0_linear_1_673)"/>
<path id="Vector_2" d="M22.5686 19.9908H16.8581L14.7772 1.60339H21.1612C21.6903 1.60339 22.1351 2.00066 22.1946 2.5264L23.9908 18.3987C24.0868 19.2474 23.4228 19.9908 22.5686 19.9908Z" fill="url(#paint1_linear_1_673)"/>
<path id="Vector_3" d="M16.8581 19.9908H22.5687C23.4228 19.9908 24.0868 19.2474 23.9907 18.3987L23.5981 14.9295H16.2853L16.8581 19.9908Z" fill="url(#paint2_linear_1_673)"/>
<path id="Vector_4" d="M18.9993 19.9908H1.22613C0.494464 19.9908 -0.0743358 19.3541 0.00797012 18.627L1.77649 2.99967C1.86651 2.20433 2.53931 1.60339 3.33969 1.60339H21.2682C21.7741 1.60339 22.1673 2.04362 22.1104 2.54631L20.2641 18.861C20.1913 19.5046 19.6469 19.9908 18.9993 19.9908Z" fill="url(#paint3_linear_1_673)"/>
<path id="Vector_5" d="M21.2682 1.60339H12V19.9908H18.9993C19.6469 19.9908 20.1913 19.5046 20.2641 18.861L22.1104 2.54631C22.1673 2.04367 21.774 1.60339 21.2682 1.60339Z" fill="url(#paint4_linear_1_673)"/>
<path id="Vector_6" d="M0.42637 14.9295L0.00792306 18.627C-0.0743358 19.354 0.494417 19.9908 1.22609 19.9908H18.9992C19.6468 19.9908 20.1913 19.5046 20.2641 18.861L20.709 14.9295H0.42637Z" fill="url(#paint5_linear_1_673)"/>
<path id="Vector_7" d="M21.2682 1.60339H3.33969C2.53926 1.60339 1.86646 2.20433 1.77649 2.99967L1.41428 6.20024H21.6969L22.1104 2.54631C22.1673 2.04367 21.774 1.60339 21.2682 1.60339Z" fill="url(#paint6_linear_1_673)"/>
<path id="Vector_8" d="M9.26246 1.60339H3.80585V3.53275L6.47334 6.20028H9.26246V1.60339Z" fill="url(#paint7_linear_1_673)"/>
<path id="Vector_9" d="M12.9915 1.60339H7.53489V3.53275L10.2024 6.20028H12.9915V1.60339Z" fill="url(#paint8_linear_1_673)"/>
<path id="Vector_10" d="M16.7644 1.60339H11.3078V3.53275L13.9753 6.20028H16.7644V1.60339Z" fill="url(#paint9_linear_1_673)"/>
<path id="Vector_11" d="M20.5155 1.60339H15.0588V3.53275L17.7263 6.20028H20.5155V1.60339Z" fill="url(#paint10_linear_1_673)"/>
<path id="Vector_12" d="M21.2682 1.60339H18.8162V3.53275L21.4837 6.20024H21.6969L22.1104 2.54631C22.1673 2.04367 21.774 1.60339 21.2682 1.60339Z" fill="url(#paint11_linear_1_673)"/>
<path id="Vector_13" d="M2.82486 10.4402H5.28971C5.67211 10.4402 6.02242 10.1302 6.07216 9.74781L6.26449 8.26918C6.31423 7.88678 6.04458 7.5768 5.66218 7.5768H3.19733C2.81493 7.5768 2.46463 7.88678 2.41489 8.26918L2.22256 9.74781C2.17286 10.1302 2.44251 10.4402 2.82486 10.4402Z" fill="url(#paint12_linear_1_673)"/>
<path id="Vector_14" d="M7.45423 10.4402H9.91908C10.3015 10.4402 10.6518 10.1302 10.7015 9.74781L10.8939 8.26918C10.9436 7.88678 10.6739 7.5768 10.2915 7.5768H7.8267C7.4443 7.5768 7.09399 7.88678 7.04425 8.26918L6.85192 9.74781C6.80218 10.1302 7.07183 10.4402 7.45423 10.4402Z" fill="url(#paint13_linear_1_673)"/>
<path id="Vector_15" d="M14.9209 7.5768H12.456C12.0736 7.5768 11.7233 7.88678 11.6736 8.26918L11.4812 9.74781C11.4315 10.1302 11.7011 10.4402 12.0835 10.4402H14.5484C14.9308 10.4402 15.2811 10.1302 15.3308 9.74781L15.5232 8.26918C15.5729 7.88682 15.3033 7.5768 14.9209 7.5768Z" fill="url(#paint14_linear_1_673)"/>
<path id="Vector_16" d="M19.5502 7.5768H17.0854C16.703 7.5768 16.3527 7.88678 16.3029 8.26918L16.1106 9.74781C16.0609 10.1302 16.3305 10.4402 16.7129 10.4402H19.1778C19.5602 10.4402 19.9105 10.1302 19.9602 9.74781L20.1525 8.26918C20.2023 7.88682 19.9326 7.5768 19.5502 7.5768Z" fill="url(#paint15_linear_1_673)"/>
<path id="Vector_17" d="M5.1515 11.5029H2.68665C2.30425 11.5029 1.95395 11.8129 1.90425 12.1953L1.71192 13.6739C1.66218 14.0563 1.93183 14.3663 2.31423 14.3663H4.77908C5.16148 14.3663 5.51178 14.0563 5.56152 13.6739L5.75385 12.1953C5.80355 11.8129 5.5339 11.5029 5.1515 11.5029Z" fill="url(#paint16_linear_1_673)"/>
<path id="Vector_18" d="M9.78087 11.5029H7.31602C6.93362 11.5029 6.58331 11.8129 6.53357 12.1953L6.34124 13.6739C6.2915 14.0563 6.56115 14.3663 6.94355 14.3663H9.40839C9.79079 14.3663 10.1411 14.0563 10.1908 13.6739L10.3832 12.1953C10.4329 11.8129 10.1632 11.5029 9.78087 11.5029Z" fill="url(#paint17_linear_1_673)"/>
<path id="Vector_19" d="M14.4102 11.5029H11.9453C11.5629 11.5029 11.2126 11.8129 11.1629 12.1953L10.9706 13.6739C10.9208 14.0563 11.1905 14.3663 11.5729 14.3663H14.0377C14.4201 14.3663 14.7704 14.0563 14.8202 13.6739L15.0125 12.1953C15.0622 11.8129 14.7926 11.5029 14.4102 11.5029Z" fill="url(#paint18_linear_1_673)"/>
<path id="Vector_20" d="M19.0395 11.5029H16.5747C16.1923 11.5029 15.842 11.8129 15.7923 12.1953L15.5999 13.6739C15.5502 14.0563 15.8198 14.3663 16.2022 14.3663H18.6671C19.0495 14.3663 19.3998 14.0563 19.4495 13.6739L19.6419 12.1953C19.6916 11.8129 19.4219 11.5029 19.0395 11.5029Z" fill="url(#paint19_linear_1_673)"/>
<path id="Vector_21" d="M4.64082 15.429H2.17597C1.79357 15.429 1.44326 15.739 1.39352 16.1214L1.20119 17.6C1.15145 17.9824 1.4211 18.2924 1.8035 18.2924H4.26835C4.65075 18.2924 5.00105 17.9824 5.05079 17.6L5.24312 16.1214C5.29286 15.739 5.02322 15.429 4.64082 15.429Z" fill="url(#paint20_linear_1_673)"/>
<path id="Vector_22" d="M9.27014 15.429H6.80529C6.42289 15.429 6.07258 15.739 6.02284 16.1214L5.83051 17.6C5.78077 17.9824 6.05042 18.2924 6.43282 18.2924H8.89766C9.28006 18.2924 9.63037 17.9824 9.68011 17.6L9.87244 16.1214C9.92218 15.739 9.65254 15.429 9.27014 15.429Z" fill="url(#paint21_linear_1_673)"/>
<path id="Vector_23" d="M13.8995 15.429H11.4347C11.0523 15.429 10.7019 15.739 10.6523 16.1214L10.4599 17.6C10.4102 17.9824 10.6798 18.2924 11.0622 18.2924H13.5271C13.9095 18.2924 14.2598 17.9824 14.3095 17.6L14.5019 16.1214C14.5515 15.739 14.2819 15.429 13.8995 15.429Z" fill="url(#paint22_linear_1_673)"/>
<path id="Vector_24" d="M4.49804 3.80635C3.93832 3.80635 3.48458 3.35261 3.48458 2.79289V1.01346C3.48458 0.453741 3.93832 5.96046e-08 4.49804 5.96046e-08C5.05776 5.96046e-08 5.5115 0.453741 5.5115 1.01346V2.79289C5.5115 3.35261 5.05776 3.80635 4.49804 3.80635Z" fill="url(#paint23_linear_1_673)"/>
<path id="Vector_25" d="M8.24905 3.80635C7.68934 3.80635 7.23559 3.35261 7.23559 2.79289V1.01346C7.23559 0.453741 7.68934 5.96046e-08 8.24905 5.96046e-08C8.80877 5.96046e-08 9.26251 0.453741 9.26251 1.01346V2.79289C9.26247 3.35261 8.80872 3.80635 8.24905 3.80635Z" fill="url(#paint24_linear_1_673)"/>
<path id="Vector_26" d="M12 3.80635C11.4403 3.80635 10.9866 3.35261 10.9866 2.79289V1.01346C10.9866 0.453741 11.4403 5.96046e-08 12 5.96046e-08C12.5597 5.96046e-08 13.0135 0.453741 13.0135 1.01346V2.79289C13.0135 3.35261 12.5597 3.80635 12 3.80635Z" fill="url(#paint25_linear_1_673)"/>
<path id="Vector_27" d="M15.751 3.80635C15.1913 3.80635 14.7376 3.35261 14.7376 2.79289V1.01346C14.7376 0.453741 15.1913 5.96046e-08 15.751 5.96046e-08C16.3107 5.96046e-08 16.7645 0.453741 16.7645 1.01346V2.79289C16.7644 3.35261 16.3107 3.80635 15.751 3.80635Z" fill="url(#paint26_linear_1_673)"/>
<path id="Vector_28" d="M19.502 3.80635C18.9423 3.80635 18.4885 3.35261 18.4885 2.79289V1.01346C18.4885 0.453741 18.9423 5.96046e-08 19.502 5.96046e-08C20.0617 5.96046e-08 20.5155 0.453741 20.5155 1.01346V2.79289C20.5155 3.35261 20.0617 3.80635 19.502 3.80635Z" fill="url(#paint27_linear_1_673)"/>
</g>
<defs>
<linearGradient id="paint0_linear_1_673" x1="17.6732" y1="9.20094" x2="23.562" y2="15.2427" gradientUnits="userSpaceOnUse">
<stop stop-color="#A8D3D8"/>
<stop offset="1" stop-color="#7CA1B1"/>
</linearGradient>
<linearGradient id="paint1_linear_1_673" x1="23.4101" y1="11.6844" x2="19.6627" y2="10.9196" gradientUnits="userSpaceOnUse">
<stop stop-color="#596C76" stop-opacity="0"/>
<stop offset="1" stop-color="#596C76"/>
</linearGradient>
<linearGradient id="paint2_linear_1_673" x1="20.1427" y1="15.9469" x2="20.1427" y2="20.0272" gradientUnits="userSpaceOnUse">
<stop stop-color="#596C76" stop-opacity="0"/>
<stop offset="1" stop-color="#596C76"/>
</linearGradient>
<linearGradient id="paint3_linear_1_673" x1="8.06058" y1="7.68894" x2="17.6203" y2="17.2486" gradientUnits="userSpaceOnUse">
<stop stop-color="#EAF6FF"/>
<stop offset="1" stop-color="#B3DAFE"/>
</linearGradient>
<linearGradient id="paint4_linear_1_673" x1="18.273" y1="10.9785" x2="21.0651" y2="11.2923" gradientUnits="userSpaceOnUse">
<stop stop-color="#7BACDF" stop-opacity="0"/>
<stop offset="1" stop-color="#7BACDF"/>
</linearGradient>
<linearGradient id="paint5_linear_1_673" x1="10.3545" y1="16.7117" x2="10.3545" y2="20.0259" gradientUnits="userSpaceOnUse">
<stop stop-color="#7BACDF" stop-opacity="0"/>
<stop offset="1" stop-color="#7BACDF"/>
</linearGradient>
<linearGradient id="paint6_linear_1_673" x1="11.263" y1="0.593365" x2="12.0788" y2="6.60993" gradientUnits="userSpaceOnUse">
<stop stop-color="#FD4755"/>
<stop offset="1" stop-color="#C41926"/>
</linearGradient>
<linearGradient id="paint7_linear_1_673" x1="7.93381" y1="3.97939" x2="4.1691" y2="0.183294" gradientUnits="userSpaceOnUse">
<stop stop-color="#A72B2B" stop-opacity="0"/>
<stop offset="1" stop-color="#42210B"/>
</linearGradient>
<linearGradient id="paint8_linear_1_673" x1="11.6628" y1="3.97939" x2="7.89814" y2="0.183294" gradientUnits="userSpaceOnUse">
<stop stop-color="#A72B2B" stop-opacity="0"/>
<stop offset="1" stop-color="#42210B"/>
</linearGradient>
<linearGradient id="paint9_linear_1_673" x1="15.4358" y1="3.97939" x2="11.6711" y2="0.183294" gradientUnits="userSpaceOnUse">
<stop stop-color="#A72B2B" stop-opacity="0"/>
<stop offset="1" stop-color="#42210B"/>
</linearGradient>
<linearGradient id="paint10_linear_1_673" x1="19.1867" y1="3.97939" x2="15.422" y2="0.183294" gradientUnits="userSpaceOnUse">
<stop stop-color="#A72B2B" stop-opacity="0"/>
<stop offset="1" stop-color="#42210B"/>
</linearGradient>
<linearGradient id="paint11_linear_1_673" x1="22.5644" y1="4.5456" x2="17.7644" y2="1.65934" gradientUnits="userSpaceOnUse">
<stop stop-color="#A72B2B" stop-opacity="0"/>
<stop offset="1" stop-color="#42210B"/>
</linearGradient>
<linearGradient id="paint12_linear_1_673" x1="3.47677" y1="6.3424" x2="9.03446" y2="25.6669" gradientUnits="userSpaceOnUse">
<stop stop-color="#A8D3D8"/>
<stop offset="1" stop-color="#7CA1B1"/>
</linearGradient>
<linearGradient id="paint13_linear_1_673" x1="7.75244" y1="5.11271" x2="13.3101" y2="24.4372" gradientUnits="userSpaceOnUse">
<stop stop-color="#A8D3D8"/>
<stop offset="1" stop-color="#7CA1B1"/>
</linearGradient>
<linearGradient id="paint14_linear_1_673" x1="12.0282" y1="3.88306" x2="17.5859" y2="23.2075" gradientUnits="userSpaceOnUse">
<stop stop-color="#A8D3D8"/>
<stop offset="1" stop-color="#7CA1B1"/>
</linearGradient>
<linearGradient id="paint15_linear_1_673" x1="16.3038" y1="2.65337" x2="21.8615" y2="21.9778" gradientUnits="userSpaceOnUse">
<stop stop-color="#A8D3D8"/>
<stop offset="1" stop-color="#7CA1B1"/>
</linearGradient>
<linearGradient id="paint16_linear_1_673" x1="1.96223" y1="6.77797" x2="7.51993" y2="26.1025" gradientUnits="userSpaceOnUse">
<stop stop-color="#A8D3D8"/>
<stop offset="1" stop-color="#7CA1B1"/>
</linearGradient>
<linearGradient id="paint17_linear_1_673" x1="6.2379" y1="5.54833" x2="11.7956" y2="24.8728" gradientUnits="userSpaceOnUse">
<stop stop-color="#A8D3D8"/>
<stop offset="1" stop-color="#7CA1B1"/>
</linearGradient>
<linearGradient id="paint18_linear_1_673" x1="10.5136" y1="4.31863" x2="16.0713" y2="23.6431" gradientUnits="userSpaceOnUse">
<stop stop-color="#A8D3D8"/>
<stop offset="1" stop-color="#7CA1B1"/>
</linearGradient>
<linearGradient id="paint19_linear_1_673" x1="14.7893" y1="3.08894" x2="20.347" y2="22.4134" gradientUnits="userSpaceOnUse">
<stop stop-color="#A8D3D8"/>
<stop offset="1" stop-color="#7CA1B1"/>
</linearGradient>
<linearGradient id="paint20_linear_1_673" x1="0.44764" y1="7.21356" x2="6.00533" y2="26.538" gradientUnits="userSpaceOnUse">
<stop stop-color="#A8D3D8"/>
<stop offset="1" stop-color="#7CA1B1"/>
</linearGradient>
<linearGradient id="paint21_linear_1_673" x1="4.72336" y1="5.98391" x2="10.2811" y2="25.3083" gradientUnits="userSpaceOnUse">
<stop stop-color="#A8D3D8"/>
<stop offset="1" stop-color="#7CA1B1"/>
</linearGradient>
<linearGradient id="paint22_linear_1_673" x1="8.99903" y1="4.75421" x2="14.5567" y2="24.0787" gradientUnits="userSpaceOnUse">
<stop stop-color="#A8D3D8"/>
<stop offset="1" stop-color="#7CA1B1"/>
</linearGradient>
<linearGradient id="paint23_linear_1_673" x1="3.13861" y1="1.2688" x2="5.25616" y2="2.25699" gradientUnits="userSpaceOnUse">
<stop stop-color="#FEE45A"/>
<stop offset="1" stop-color="#FEA613"/>
</linearGradient>
<linearGradient id="paint24_linear_1_673" x1="6.88962" y1="1.2688" x2="9.00712" y2="2.25699" gradientUnits="userSpaceOnUse">
<stop stop-color="#FEE45A"/>
<stop offset="1" stop-color="#FEA613"/>
</linearGradient>
<linearGradient id="paint25_linear_1_673" x1="10.6406" y1="1.2688" x2="12.7581" y2="2.25699" gradientUnits="userSpaceOnUse">
<stop stop-color="#FEE45A"/>
<stop offset="1" stop-color="#FEA613"/>
</linearGradient>
<linearGradient id="paint26_linear_1_673" x1="14.3916" y1="1.2688" x2="16.5091" y2="2.25699" gradientUnits="userSpaceOnUse">
<stop stop-color="#FEE45A"/>
<stop offset="1" stop-color="#FEA613"/>
</linearGradient>
<linearGradient id="paint27_linear_1_673" x1="18.1426" y1="1.2688" x2="20.2601" y2="2.25699" gradientUnits="userSpaceOnUse">
<stop stop-color="#FEE45A"/>
<stop offset="1" stop-color="#FEA613"/>
</linearGradient>
</defs>
</svg>
