<svg preserveAspectRatio="none" width="100%" height="100%" overflow="visible" style="display: block;" viewBox="0 0 127 35" fill="none" xmlns="http://www.w3.org/2000/svg">
<path id="Vector" d="M61.4737 3.16123C59.6361 1.82071 57.4352 1.06873 55.1615 1.00449C52.8877 0.940251 50.648 1.56677 48.7375 2.80139C46.8271 4.03602 45.3358 5.82076 44.4604 7.92018C43.5849 10.0196 43.3664 12.3351 43.8337 14.5612C43.8622 14.7167 43.8585 14.8764 43.823 15.0304C43.7875 15.1845 43.7209 15.3296 43.6272 15.457C43.5336 15.5844 43.4149 15.6912 43.2784 15.7711C43.142 15.8509 42.9907 15.902 42.8337 15.9212C41.578 16.1052 40.42 16.7044 39.5445 17.6234C38.6691 18.5423 38.1266 19.728 38.0037 20.9912C37.9973 21.1575 37.9557 21.3205 37.8817 21.4695C37.8078 21.6186 37.7032 21.7503 37.5748 21.8561C37.4463 21.9618 37.297 22.0392 37.1366 22.0832C36.9761 22.1272 36.8082 22.1367 36.6437 22.1112C35.783 21.9797 34.9039 22.0397 34.0691 22.2869C33.2342 22.5341 32.4641 22.9623 31.8137 23.5412C31.6827 23.6622 31.526 23.7519 31.3554 23.8037C31.1847 23.8554 31.0046 23.8677 30.8284 23.8398C30.6523 23.8119 30.4848 23.7445 30.3385 23.6425C30.1922 23.5406 30.0709 23.4068 29.9837 23.2512C25.0937 14.4312 12.5537 17.4012 7.91374 24.2512C5.91374 27.2512 4.10374 30.5112 1.27374 32.5112C1.16175 32.5907 1.07782 32.7037 1.03399 32.8338C0.990157 32.964 0.988684 33.1047 1.02978 33.2357C1.07087 33.3668 1.15241 33.4815 1.26272 33.5633C1.37302 33.6451 1.50641 33.6899 1.64374 33.6912L117.514 32.7512C124.144 32.6912 128.234 25.1112 124.284 19.7512C122.811 17.8441 120.664 16.5737 118.284 16.2012C115.664 15.6712 113.084 17.2012 111.284 19.4012C111.143 19.5784 110.953 19.7109 110.738 19.7825C110.523 19.8541 110.292 19.8618 110.073 19.8046C109.854 19.7474 109.656 19.6278 109.503 19.4604C109.351 19.2929 109.25 19.0848 109.214 18.8612C108.214 11.6312 102.334 5.10122 95.0737 3.86122C87.6037 2.53122 79.6337 6.92122 76.3437 13.6712C76.253 13.8516 76.1171 14.0053 75.9493 14.1176C75.7815 14.2299 75.5875 14.2968 75.3862 14.3119C75.1848 14.327 74.983 14.2898 74.8004 14.2038C74.6177 14.1178 74.4604 13.986 74.3437 13.8212C73.9825 13.3259 73.5269 12.9069 73.0031 12.5884C72.4793 12.2698 71.8977 12.058 71.2917 11.965C70.6858 11.8721 70.0674 11.8999 69.4723 12.0468C68.8771 12.1938 68.3168 12.457 67.8237 12.8212C67.6581 12.9531 67.4596 13.0371 67.2496 13.0642C67.0397 13.0913 66.8263 13.0605 66.6327 12.975C66.439 12.8895 66.2724 12.7526 66.151 12.5792C66.0295 12.4058 65.9579 12.2025 65.9437 11.9912C65.6737 8.58123 64.5537 5.40123 61.4737 3.16123Z" fill="var(--fill-0, white)" fill-opacity="0.05" stroke="var(--stroke-0, white)" stroke-opacity="0.1" stroke-miterlimit="10"/>
</svg>
