<svg preserveAspectRatio="none" width="100%" height="100%" overflow="visible" style="display: block;" viewBox="0 0 64 104" fill="none" xmlns="http://www.w3.org/2000/svg">
<path id="Vector" d="M63.112 97.9719C49.242 102.192 24.232 106.392 1.51197 98.4419C1.60197 91.0619 3.75195 72.8619 4.03195 69.1119C7.35195 52.1119 -0.668037 22.6619 1.32196 14.1119C2.1754 13.0464 3.10447 12.0438 4.10196 11.1119L8.81195 8.69187C9.98195 8.08187 11.182 7.48187 12.342 6.87187C20.0476 2.84112 28.6477 0.825254 37.342 1.01187C40.652 1.09187 50.932 3.44187 54.442 6.08187C57.952 8.72187 61.4419 21.6819 59.7719 28.6119C58.1019 35.5419 51.532 61.0619 51.532 61.0619C51.532 61.0619 59.072 80.4119 61.412 89.4819C62.1287 92.2797 62.6962 95.1137 63.112 97.9719Z" stroke="var(--stroke-0, #263238)" stroke-linecap="round" stroke-linejoin="round"/>
</svg>
