<svg preserveAspectRatio="none" width="100%" height="100%" overflow="visible" style="display: block;" viewBox="0 0 24 22" fill="none" xmlns="http://www.w3.org/2000/svg">
<g id="Group">
<path id="Vector" d="M5.31927 20.3531L0.249148 11.5713C0.0859279 11.2886 0 10.9679 0 10.6414C0 10.315 0.0859279 9.99429 0.249148 9.71158L5.31927 0.929835C5.48249 0.64713 5.71726 0.41237 5.99996 0.24915C6.28267 0.0859303 6.60336 1.39819e-06 6.92981 0H17.0701C17.3965 -3.371e-06 17.7172 0.0859235 17.9999 0.249144C18.2826 0.412364 18.5174 0.647127 18.6806 0.929835L23.7508 9.71158C23.914 9.99429 23.9999 10.315 23.9999 10.6414C23.9999 10.9679 23.914 11.2886 23.7508 11.5713L18.6807 20.3531C18.5175 20.6358 18.2827 20.8705 18 21.0338C17.7173 21.197 17.3966 21.2829 17.0701 21.2829H6.92981C6.60336 21.2829 6.28267 21.197 5.99996 21.0338C5.71726 20.8705 5.48249 20.6358 5.31927 20.3531Z" fill="url(#paint0_linear_1_527)"/>
<path id="Vector_2" d="M7.52468 1.60141C7.06581 1.60141 6.63818 1.84828 6.40872 2.24569L1.93343 9.99718C1.70397 10.3946 1.70397 10.8883 1.93343 11.2857L6.40872 19.0372C6.63814 19.4346 7.06576 19.6815 7.52468 19.6815H16.4753C16.9342 19.6815 17.3618 19.4346 17.5913 19.0372L22.0666 11.2857C22.296 10.8883 22.296 10.3946 22.0666 9.99718L17.5913 2.24569C17.3618 1.84828 16.9342 1.60141 16.4753 1.60141H7.52468Z" fill="url(#paint1_linear_1_527)"/>
<path id="Vector_3" d="M1.53381 13.7965L5.31927 20.353C5.48249 20.6357 5.71726 20.8705 5.99996 21.0337C6.28267 21.1969 6.60336 21.2829 6.92981 21.2829H17.0701C17.3965 21.2829 17.7172 21.1969 17.9999 21.0337C18.2826 20.8705 18.5174 20.6357 18.6806 20.353L22.4661 13.7965H1.53381Z" fill="url(#paint2_linear_1_527)"/>
<path id="Vector_4" d="M16.0387 5.52057L8.84054 17.5397L12.5837 21.2829H17.0701C17.3965 21.2829 17.7172 21.197 17.9999 21.0338C18.2826 20.8706 18.5174 20.6358 18.6806 20.3531L23.1427 12.6246L16.0387 5.52057Z" fill="url(#paint3_linear_1_527)"/>
<path id="Vector_5" d="M19.175 13.0654C19.175 16.4541 16.4279 19.2012 13.0391 19.2012C9.65037 19.2012 6.90327 16.4541 6.90327 13.0654C6.90327 9.67661 9.65037 4.03181 13.0391 4.03181C16.4279 4.03181 19.175 9.67661 19.175 13.0654Z" fill="url(#paint4_linear_1_527)"/>
<path id="Vector_6" d="M10.8495 4.81694C8.54214 6.48569 6.90322 10.4481 6.90322 13.0654C6.90322 16.4541 9.65032 19.2012 13.0391 19.2012C16.4024 19.2012 19.1332 16.4951 19.174 13.1414L10.8495 4.81694Z" fill="url(#paint5_linear_1_527)"/>
<path id="Vector_7" d="M6.90327 13.0654C6.90327 16.4541 9.65037 19.2012 13.0391 19.2012C16.4279 19.2012 19.175 16.4541 19.175 13.0654C19.175 12.733 19.1482 12.3786 19.0973 12.0103H6.98091C6.93004 12.3786 6.90327 12.7329 6.90327 13.0654Z" fill="url(#paint6_linear_1_527)"/>
<path id="Vector_8" d="M16.6883 15.432C15.4785 14.9955 14.5243 14.1222 13.8524 12.8365C13.7957 12.7279 13.742 12.6179 13.6911 12.5064L15.6977 10.9773C15.8528 10.8591 15.8827 10.6376 15.7645 10.4826C15.6463 10.3276 15.4249 10.2976 15.2699 10.4159L13.4201 11.8255C13.2775 11.4079 13.2144 11.1007 13.1978 11.0131V9.64424C13.1978 9.44932 13.0398 9.2913 12.8449 9.2913C12.6499 9.2913 12.4919 9.44932 12.4919 9.64424V11.3913H9.50971C9.31475 11.3913 9.15677 11.5493 9.15677 11.7442C9.15677 11.9392 9.31475 12.0972 9.50971 12.0972H12.158C11.9284 12.7397 11.2572 13.9801 9.41009 14.5234C9.32028 14.5498 9.24465 14.6108 9.19982 14.693C9.15499 14.7752 9.14465 14.8718 9.17105 14.9616C9.19746 15.0514 9.25847 15.1271 9.34064 15.1719C9.42282 15.2167 9.51944 15.2271 9.60924 15.2007C11.2013 14.7324 12.0472 13.8162 12.4919 13.0512V15.8948C12.4919 15.989 12.4315 16.0402 12.4056 16.0579C12.3796 16.0756 12.3099 16.1129 12.2222 16.0784L11.9056 15.9537C11.8185 15.9194 11.7214 15.9211 11.6355 15.9584C11.5497 15.9957 11.4822 16.0656 11.4479 16.1527C11.4135 16.2398 11.4152 16.3369 11.4525 16.4228C11.4899 16.5086 11.5598 16.5761 11.6468 16.6104L11.9634 16.7352C12.1004 16.7892 12.2485 16.8088 12.3948 16.7925C12.5411 16.7762 12.6812 16.7243 12.8028 16.6414C12.9246 16.5586 13.0242 16.4473 13.093 16.3171C13.1619 16.187 13.1978 16.042 13.1978 15.8948V13.107C13.2037 13.1186 13.2094 13.1301 13.2155 13.1418C13.9615 14.5804 15.0795 15.6019 16.4487 16.096C16.4883 16.1103 16.5287 16.117 16.5685 16.117C16.6411 16.117 16.7119 16.0946 16.7713 16.0528C16.8307 16.0111 16.8758 15.9521 16.9005 15.8838C16.9323 15.7957 16.9278 15.6987 16.888 15.614C16.8482 15.5293 16.7764 15.4638 16.6883 15.432Z" fill="url(#paint7_linear_1_527)"/>
<path id="Vector_9" d="M11.289 6.84005C11.289 8.62504 9.842 10.072 8.05701 10.072C6.27202 10.072 4.82501 8.62504 4.82501 6.84005C4.82501 5.05506 6.27202 2.08169 8.05701 2.08169C9.842 2.08169 11.289 5.05506 11.289 6.84005Z" fill="url(#paint8_linear_1_527)"/>
<path id="Vector_10" d="M4.82496 6.84005C4.82496 8.62504 6.27197 10.072 8.05696 10.072C9.84195 10.072 11.289 8.62504 11.289 6.84005C11.289 6.66494 11.2748 6.47831 11.2481 6.28428H4.8659C4.83908 6.47831 4.82496 6.66494 4.82496 6.84005Z" fill="url(#paint9_linear_1_527)"/>
</g>
<defs>
<linearGradient id="paint0_linear_1_527" x1="5.95291" y1="4.5944" x2="15.5788" y2="14.2203" gradientUnits="userSpaceOnUse">
<stop stop-color="#F9F5F3"/>
<stop offset="1" stop-color="#EFE2DD"/>
</linearGradient>
<linearGradient id="paint1_linear_1_527" x1="18.3578" y1="16.9993" x2="7.94364" y2="6.58508" gradientUnits="userSpaceOnUse">
<stop stop-color="#F9F5F3"/>
<stop offset="1" stop-color="#EFE2DD"/>
</linearGradient>
<linearGradient id="paint2_linear_1_527" x1="12" y1="17.3709" x2="12" y2="21.419" gradientUnits="userSpaceOnUse">
<stop stop-color="#9E9797" stop-opacity="0"/>
<stop offset="0.311" stop-color="#979090" stop-opacity="0.311"/>
<stop offset="0.786" stop-color="#817A7A" stop-opacity="0.786"/>
<stop offset="1" stop-color="#766E6E"/>
</linearGradient>
<linearGradient id="paint3_linear_1_527" x1="21.44" y1="19.2154" x2="11.7459" y2="11.3096" gradientUnits="userSpaceOnUse">
<stop stop-color="#9E9797" stop-opacity="0"/>
<stop offset="0.311" stop-color="#979090" stop-opacity="0.311"/>
<stop offset="0.786" stop-color="#817A7A" stop-opacity="0.786"/>
<stop offset="1" stop-color="#766E6E"/>
</linearGradient>
<linearGradient id="paint4_linear_1_527" x1="10.8021" y1="9.89421" x2="14.3279" y2="13.42" gradientUnits="userSpaceOnUse">
<stop stop-color="#B3DAFE"/>
<stop offset="1" stop-color="#7BACDF"/>
</linearGradient>
<linearGradient id="paint5_linear_1_527" x1="15.4442" y1="15.7088" x2="6.25602" y2="8.29261" gradientUnits="userSpaceOnUse">
<stop stop-color="#7BACDF" stop-opacity="0"/>
<stop offset="1" stop-color="#0681AF"/>
</linearGradient>
<linearGradient id="paint6_linear_1_527" x1="13.0391" y1="13.8885" x2="13.0391" y2="18.5212" gradientUnits="userSpaceOnUse">
<stop stop-color="#7BACDF" stop-opacity="0"/>
<stop offset="1" stop-color="#0681AF"/>
</linearGradient>
<linearGradient id="paint7_linear_1_527" x1="6.09705" y1="6.37967" x2="13.0499" y2="13.3326" gradientUnits="userSpaceOnUse">
<stop stop-color="#7BACDF" stop-opacity="0"/>
<stop offset="1" stop-color="#0681AF"/>
</linearGradient>
<linearGradient id="paint8_linear_1_527" x1="7.29752" y1="5.58852" x2="9.3995" y2="7.69049" gradientUnits="userSpaceOnUse">
<stop stop-color="#B3DAFE"/>
<stop offset="1" stop-color="#7BACDF"/>
</linearGradient>
<linearGradient id="paint9_linear_1_527" x1="8.05696" y1="7.94367" x2="8.05696" y2="9.97186" gradientUnits="userSpaceOnUse">
<stop stop-color="#7BACDF" stop-opacity="0"/>
<stop offset="1" stop-color="#0681AF"/>
</linearGradient>
</defs>
</svg>
