<svg preserveAspectRatio="none" width="100%" height="100%" overflow="visible" style="display: block;" viewBox="0 0 24 20" fill="none" xmlns="http://www.w3.org/2000/svg">
<g id="Group">
<path id="Vector" d="M3.80696 5.67187C4.87615 5.67187 5.7429 4.80513 5.7429 3.73594C5.7429 2.66675 4.87615 1.8 3.80696 1.8C2.73777 1.8 1.87103 2.66675 1.87103 3.73594C1.87103 4.80513 2.73777 5.67187 3.80696 5.67187Z" fill="url(#paint0_linear_1_723)"/>
<path id="Vector_2" d="M3.80696 5.67187C4.87615 5.67187 5.7429 4.80513 5.7429 3.73594C5.7429 2.66675 4.87615 1.8 3.80696 1.8C2.73777 1.8 1.87103 2.66675 1.87103 3.73594C1.87103 4.80513 2.73777 5.67187 3.80696 5.67187Z" fill="url(#paint1_linear_1_723)"/>
<path id="Vector_3" d="M1.87103 3.73594C1.87103 4.80469 2.73821 5.67187 3.80696 5.67187C4.87571 5.67187 5.7429 4.80469 5.7429 3.73594C5.7429 3.54375 5.71478 3.35625 5.66321 3.18281H1.95071C1.89915 3.36094 1.87103 3.54375 1.87103 3.73594Z" fill="url(#paint2_linear_1_723)"/>
<path id="Vector_4" d="M3.80696 1.80469C3.58665 1.80469 3.37571 1.84219 3.17415 1.90781V5.56875C3.37102 5.63906 3.58196 5.67187 3.80696 5.67187C4.87571 5.67187 5.7429 4.80469 5.7429 3.73594C5.7429 2.66719 4.87571 1.80469 3.80696 1.80469Z" fill="url(#paint3_linear_1_723)"/>
<path id="Vector_5" d="M5.73821 3.73594C5.73821 2.98125 5.30696 2.325 4.67415 2.00625L2.07728 4.60313C2.39603 5.23594 3.05228 5.66719 3.80696 5.66719C4.87571 5.67187 5.73821 4.80469 5.73821 3.73594Z" fill="url(#paint4_linear_1_723)"/>
<path id="Vector_6" d="M5.73821 3.73594C5.73821 2.98125 5.30696 2.325 4.67415 2.00625L2.07728 4.60313C2.39603 5.23594 3.05228 5.66719 3.80696 5.66719C4.87571 5.67187 5.73821 4.80469 5.73821 3.73594Z" fill="url(#paint5_linear_1_723)"/>
<path id="Vector_7" d="M23.8741 2.64844C22.9132 0.590625 16.8195 1.40156 10.2663 4.45781C3.71321 7.51406 -0.828975 11.6625 0.127275 13.7203C1.08353 15.7781 7.17728 14.9672 13.7351 11.9109C20.2929 8.85469 24.8304 4.70625 23.8741 2.64844ZM12.9288 10.1813C8.26009 12.3563 3.98978 13.0828 3.39446 11.7984C2.79446 10.5141 6.09446 7.71094 10.7632 5.53125C15.432 3.35156 19.7023 2.62969 20.3023 3.91406C20.8976 5.19844 17.5976 8.00156 12.9288 10.1813Z" fill="url(#paint6_linear_1_723)"/>
<path id="Vector_8" d="M12.0007 16.3688C16.5208 16.3688 20.1851 12.7045 20.1851 8.18438C20.1851 3.66427 16.5208 -1.19209e-07 12.0007 -1.19209e-07C7.48061 -1.19209e-07 3.81634 3.66427 3.81634 8.18438C3.81634 12.7045 7.48061 16.3688 12.0007 16.3688Z" fill="url(#paint7_linear_1_723)"/>
<path id="Vector_9" d="M14.6445 13.3312C11.5601 12.8953 10.4257 14.4797 8.60696 15.6375C9.85384 16.2094 11.2601 16.4719 12.7226 16.3406C15.0288 16.1344 17.0304 14.9906 18.3757 13.3219C17.0538 13.5094 15.7366 13.4812 14.6445 13.3312Z" fill="url(#paint8_linear_1_723)"/>
<path id="Vector_10" d="M11.3257 7.03125C13.1773 3.66562 14.832 5.25469 16.7726 4.94531C17.832 4.77656 18.2679 3.9 18.446 3.14062C18.1132 2.71406 17.7382 2.32031 17.3257 1.97344C16.646 2.59219 15.4554 2.92969 14.0632 2.80781C11.4804 2.57812 10.946 7.93594 7.27571 7.80469C5.3304 7.73437 4.61321 6.44063 4.36478 5.23594C3.92415 6.37031 3.73196 7.61719 3.84915 8.90625C3.9054 9.56719 4.04603 10.2 4.24759 10.8047C6.92884 12.7594 9.80228 9.80625 11.3257 7.03125Z" fill="url(#paint9_linear_1_723)"/>
<path id="Vector_11" d="M19.9788 6.36562C19.9835 7.19531 19.6695 8.23594 18.4648 9.17812C14.8882 11.9812 11.846 9.3375 9.25384 11.2031C7.80071 12.2484 6.35696 12.8906 5.38196 12.9984C5.76634 13.5234 6.21165 14.0016 6.70384 14.4187C6.9054 14.3484 7.12103 14.2594 7.35071 14.1375C9.50696 12.9844 10.5429 11.0438 13.9179 11.5219C15.5773 11.7563 17.771 11.7 19.6835 11.0109C20.0913 9.90937 20.2648 8.70469 20.1523 7.4625C20.1195 7.0875 20.0585 6.72187 19.9788 6.36562Z" fill="url(#paint10_linear_1_723)"/>
<path id="Vector_12" d="M13.3741 8.95781C13.2288 8.97187 13.0788 8.97656 12.9335 8.98125C12.8491 8.98125 12.8351 9.09844 12.9148 9.12187C13.6179 9.33281 14.382 9.41719 15.1695 9.34687C17.0585 9.17812 18.6523 8.17031 19.5288 6.77344C19.796 6.34687 19.8476 5.81719 19.6741 5.34375C19.4257 4.67344 19.0929 4.05 18.6945 3.47812C18.7929 6.25312 16.4632 8.68125 13.3741 8.95781Z" fill="url(#paint11_linear_1_723)"/>
<path id="Vector_13" d="M10.9648 2.26406C11.5507 1.54219 12.3054 0.778125 13.1679 0.0843749C12.5538 -0.0046876 11.921 -0.0234377 11.2788 0.0328123C11.2648 0.0328123 11.2554 0.0374999 11.2413 0.0374999C11.171 0.117187 11.1054 0.201562 11.0398 0.28125C9.32415 2.39062 7.65071 2.57812 5.86946 2.76562C5.30696 3.40312 4.8429 4.125 4.50071 4.9125C6.77884 4.5375 8.84134 4.875 10.9648 2.26406Z" fill="url(#paint12_linear_1_723)"/>
<path id="Vector_14" d="M3.81634 8.18437C3.81634 12.7031 7.48196 16.3688 12.0007 16.3688C16.5195 16.3688 20.1851 12.7031 20.1851 8.18437C20.1851 7.36875 20.0632 6.58125 19.8429 5.83594H4.15853C3.93821 6.58125 3.81634 7.36875 3.81634 8.18437Z" fill="url(#paint13_linear_1_723)"/>
<path id="Vector_15" d="M12.0007 0.00468731C11.0679 0.00468731 10.1679 0.159375 9.33352 0.45V15.9281C10.1679 16.2141 11.0679 16.3734 12.0007 16.3734C16.5195 16.3734 20.1851 12.7078 20.1851 8.18906C20.1851 3.67031 16.5195 0.00468731 12.0007 0.00468731Z" fill="url(#paint14_linear_1_723)"/>
<path id="Vector_16" d="M20.1851 8.18437C20.1851 4.9875 18.3523 2.22187 15.6804 0.871875L4.68821 11.8688C6.03353 14.5406 8.80384 16.3734 12.0007 16.3734C16.5195 16.3688 20.1851 12.7031 20.1851 8.18437Z" fill="url(#paint15_linear_1_723)"/>
<path id="Vector_17" d="M19.8851 7.11563C18.1976 8.48906 15.8726 9.89531 13.2898 11.1047C10.707 12.3141 8.13353 13.1859 5.99603 13.5938C5.95853 13.6031 5.92103 13.6078 5.87884 13.6125C7.37884 15.3 9.56321 16.3688 12.0007 16.3688C16.5195 16.3688 20.1851 12.7031 20.1851 8.18438C20.1851 7.7625 20.1523 7.34531 20.0913 6.94219C20.021 7.00313 19.9554 7.05938 19.8851 7.11563Z" fill="url(#paint16_linear_1_723)"/>
<path id="Vector_18" d="M20.0913 6.94688C20.0257 7.00313 19.9554 7.05938 19.8851 7.12031C18.1976 8.49375 15.8726 9.9 13.2898 11.1094C10.707 12.3187 8.13352 13.1906 5.99603 13.5984C5.95853 13.6078 5.92103 13.6125 5.87884 13.6172C4.70228 12.2953 3.95228 10.5891 3.83509 8.70937C5.93978 8.2875 8.4429 7.425 10.9601 6.25313C13.5476 5.04844 15.8679 3.64219 17.5554 2.26406C17.5695 2.25 17.5882 2.24063 17.6023 2.22656C18.9054 3.44531 19.8101 5.09531 20.0913 6.94688Z" fill="url(#paint17_linear_1_723)"/>
<path id="Vector_19" d="M23.8741 2.64844C23.2835 1.37812 20.7335 1.2 17.3257 1.97344C17.7804 2.3625 18.1929 2.80312 18.5492 3.28125C19.4679 3.27656 20.096 3.47812 20.2976 3.91406C20.4898 4.32656 20.2788 4.89844 19.7491 5.55469C19.4445 5.92969 19.0413 6.32812 18.5492 6.74531C17.2179 7.87031 15.2398 9.10313 12.9288 10.1813C10.6179 11.2594 8.4054 11.9812 6.68509 12.2812C6.04759 12.3937 5.4804 12.4453 4.99759 12.4359C4.15384 12.4219 3.58196 12.2156 3.38978 11.8031C3.18821 11.3672 3.43196 10.7578 4.02728 10.0547C3.89603 9.48281 3.82103 8.8875 3.81634 8.27344C1.04134 10.3875 -0.46335 12.45 0.127275 13.7203C0.7179 14.9906 3.2679 15.1688 6.67571 14.4C7.26634 14.2688 7.8804 14.1047 8.5179 13.9172C10.1585 13.4297 11.9304 12.7547 13.7398 11.9109C15.5492 11.0672 17.2038 10.1391 18.6335 9.19688C19.1866 8.83125 19.707 8.46562 20.1851 8.1C22.9601 5.98594 24.4648 3.91875 23.8741 2.64844Z" fill="url(#paint18_linear_1_723)"/>
<path id="Vector_20" d="M23.8741 2.64844C23.2835 1.37812 20.7335 1.2 17.3257 1.97344C17.7804 2.3625 18.1929 2.80312 18.5492 3.28125C19.4679 3.27656 20.096 3.47812 20.2976 3.91406C20.4898 4.32656 20.2788 4.89844 19.7491 5.55469C19.4445 5.92969 19.0413 6.32812 18.5492 6.74531C17.2179 7.87031 15.2398 9.10313 12.9288 10.1813C10.6179 11.2594 8.4054 11.9812 6.68509 12.2812C6.04759 12.3937 5.4804 12.4453 4.99759 12.4359C4.15384 12.4219 3.58196 12.2156 3.38978 11.8031C3.18821 11.3672 3.43196 10.7578 4.02728 10.0547C3.89603 9.48281 3.82103 8.8875 3.81634 8.27344C1.04134 10.3875 -0.46335 12.45 0.127275 13.7203C0.7179 14.9906 3.2679 15.1688 6.67571 14.4C7.26634 14.2688 7.8804 14.1047 8.5179 13.9172C10.1585 13.4297 11.9304 12.7547 13.7398 11.9109C15.5492 11.0672 17.2038 10.1391 18.6335 9.19688C19.1866 8.83125 19.707 8.46562 20.1851 8.1C22.9601 5.98594 24.4648 3.91875 23.8741 2.64844Z" fill="url(#paint19_linear_1_723)"/>
<path id="Vector_21" d="M23.8741 2.64844C23.2835 1.37812 20.7335 1.2 17.3257 1.97344C17.7804 2.3625 18.1929 2.80312 18.5492 3.28125C19.4679 3.27656 20.096 3.47812 20.2976 3.91406C20.4898 4.32656 20.2788 4.89844 19.7491 5.55469C19.4445 5.92969 19.0413 6.32812 18.5492 6.74531C17.2179 7.87031 15.2398 9.10313 12.9288 10.1813C10.6179 11.2594 8.4054 11.9812 6.68509 12.2812C6.04759 12.3937 5.4804 12.4453 4.99759 12.4359C4.15384 12.4219 3.58196 12.2156 3.38978 11.8031C3.18821 11.3672 3.43196 10.7578 4.02728 10.0547C3.89603 9.48281 3.82103 8.8875 3.81634 8.27344C1.04134 10.3875 -0.46335 12.45 0.127275 13.7203C0.7179 14.9906 3.2679 15.1688 6.67571 14.4C7.26634 14.2688 7.8804 14.1047 8.5179 13.9172C10.1585 13.4297 11.9304 12.7547 13.7398 11.9109C15.5492 11.0672 17.2038 10.1391 18.6335 9.19688C19.1866 8.83125 19.707 8.46562 20.1851 8.1C22.9601 5.98594 24.4648 3.91875 23.8741 2.64844Z" fill="url(#paint20_linear_1_723)"/>
<path id="Vector_22" d="M20.1429 7.33594C18.4601 8.69531 16.1492 10.1203 13.4867 11.3625C10.8242 12.6047 8.24603 13.4578 6.12259 13.875C3.38978 14.4094 1.39759 14.2172 0.919463 13.1859C0.431963 12.1406 1.60384 10.4578 3.83509 8.67656C3.86321 9.15 3.92884 9.60937 4.03196 10.0547C3.43665 10.7578 3.1929 11.3672 3.39446 11.8031C3.58665 12.2156 4.15852 12.4219 5.00227 12.4359C5.4804 12.4453 6.05227 12.3937 6.68977 12.2812C8.41009 11.9812 10.6226 11.2594 12.9335 10.1813C15.2445 9.10313 17.2179 7.87031 18.5538 6.74531C19.046 6.32812 19.4538 5.92969 19.7538 5.55469C20.2835 4.89844 20.4945 4.32656 20.3023 3.91406C20.1007 3.47812 19.4726 3.27656 18.5538 3.28125C18.2773 2.91094 17.9632 2.56406 17.6257 2.24062C20.4241 1.67812 22.4679 1.86094 22.9554 2.90625C23.4382 3.9375 22.3038 5.5875 20.1429 7.33594Z" fill="url(#paint21_linear_1_723)"/>
<path id="Vector_23" d="M20.1429 7.33594C18.4601 8.69531 16.1492 10.1203 13.4867 11.3625C10.8242 12.6047 8.24603 13.4578 6.12259 13.875C3.38978 14.4094 1.39759 14.2172 0.919463 13.1859C0.431963 12.1406 1.60384 10.4578 3.83509 8.67656C3.86321 9.15 3.92884 9.60937 4.03196 10.0547C3.43665 10.7578 3.1929 11.3672 3.39446 11.8031C3.58665 12.2156 4.15852 12.4219 5.00227 12.4359C5.4804 12.4453 6.05227 12.3937 6.68977 12.2812C8.41009 11.9812 10.6226 11.2594 12.9335 10.1813C15.2445 9.10313 17.2179 7.87031 18.5538 6.74531C19.046 6.32812 19.4538 5.92969 19.7538 5.55469C20.2835 4.89844 20.4945 4.32656 20.3023 3.91406C20.1007 3.47812 19.4726 3.27656 18.5538 3.28125C18.2773 2.91094 17.9632 2.56406 17.6257 2.24062C20.4241 1.67812 22.4679 1.86094 22.9554 2.90625C23.4382 3.9375 22.3038 5.5875 20.1429 7.33594Z" fill="url(#paint22_linear_1_723)"/>
<path id="Vector_24" d="M20.1429 7.33594C18.4601 8.69531 16.1492 10.1203 13.4867 11.3625C10.8242 12.6047 8.24603 13.4578 6.12259 13.875C3.38978 14.4094 1.39759 14.2172 0.919463 13.1859C0.431963 12.1406 1.60384 10.4578 3.83509 8.67656C3.86321 9.15 3.92884 9.60937 4.03196 10.0547C3.43665 10.7578 3.1929 11.3672 3.39446 11.8031C3.58665 12.2156 4.15852 12.4219 5.00227 12.4359C5.4804 12.4453 6.05227 12.3937 6.68977 12.2812C8.41009 11.9812 10.6226 11.2594 12.9335 10.1813C15.2445 9.10313 17.2179 7.87031 18.5538 6.74531C19.046 6.32812 19.4538 5.92969 19.7538 5.55469C20.2835 4.89844 20.4945 4.32656 20.3023 3.91406C20.1007 3.47812 19.4726 3.27656 18.5538 3.28125C18.2773 2.91094 17.9632 2.56406 17.6257 2.24062C20.4241 1.67812 22.4679 1.86094 22.9554 2.90625C23.4382 3.9375 22.3038 5.5875 20.1429 7.33594Z" fill="url(#paint23_linear_1_723)"/>
<path id="Vector_25" d="M19.9788 6.34687C18.5163 7.77187 16.0929 9.375 13.1866 10.7297C10.2804 12.0844 7.50071 12.9094 5.46634 13.1156C3.81634 13.2797 2.65853 13.0359 2.3304 12.3375C1.98821 11.6063 2.60696 10.5094 3.89134 9.29531C3.92884 9.55312 3.97103 9.80625 4.03196 10.0547C3.43665 10.7578 3.1929 11.3672 3.39446 11.8031C3.58665 12.2156 4.15853 12.4219 5.00228 12.4359C5.4804 12.4453 6.05227 12.3937 6.68977 12.2812C8.41009 11.9812 10.6226 11.2594 12.9335 10.1813C15.2445 9.10313 17.2179 7.87031 18.5538 6.74531C19.046 6.32812 19.4538 5.92969 19.7538 5.55469C20.2835 4.89844 20.4945 4.32656 20.3023 3.91406C20.1007 3.47812 19.4726 3.27656 18.5538 3.28125C18.3991 3.075 18.2351 2.87812 18.0616 2.68594C19.8195 2.47969 21.057 2.71406 21.3945 3.44531C21.7226 4.14375 21.1648 5.18906 19.9788 6.34687Z" fill="url(#paint24_linear_1_723)"/>
<path id="Vector_26" d="M19.9788 6.34687C18.5163 7.77187 16.0929 9.375 13.1866 10.7297C10.2804 12.0844 7.50071 12.9094 5.46634 13.1156C3.81634 13.2797 2.65853 13.0359 2.3304 12.3375C1.98821 11.6063 2.60696 10.5094 3.89134 9.29531C3.92884 9.55312 3.97103 9.80625 4.03196 10.0547C3.43665 10.7578 3.1929 11.3672 3.39446 11.8031C3.58665 12.2156 4.15853 12.4219 5.00228 12.4359C5.4804 12.4453 6.05227 12.3937 6.68977 12.2812C8.41009 11.9812 10.6226 11.2594 12.9335 10.1813C15.2445 9.10313 17.2179 7.87031 18.5538 6.74531C19.046 6.32812 19.4538 5.92969 19.7538 5.55469C20.2835 4.89844 20.4945 4.32656 20.3023 3.91406C20.1007 3.47812 19.4726 3.27656 18.5538 3.28125C18.3991 3.075 18.2351 2.87812 18.0616 2.68594C19.8195 2.47969 21.057 2.71406 21.3945 3.44531C21.7226 4.14375 21.1648 5.18906 19.9788 6.34687Z" fill="url(#paint25_linear_1_723)"/>
<path id="Vector_27" d="M0.427275 11.7609H3.37571C3.20228 11.3297 3.45071 10.7344 4.02728 10.0547C3.89603 9.48281 3.82103 8.8875 3.81634 8.27344C2.20384 9.50156 1.02259 10.7109 0.427275 11.7609Z" fill="url(#paint26_linear_1_723)"/>
<path id="Vector_28" d="M20.1851 1.5375V3.74062C19.9085 3.42656 19.3366 3.28125 18.5538 3.28125C18.1929 2.80312 17.7851 2.3625 17.3304 1.97344C18.371 1.73906 19.332 1.58906 20.1851 1.5375Z" fill="url(#paint27_linear_1_723)"/>
<path id="Vector_29" d="M20.5741 9.44531C21.3353 9.44531 21.9523 8.82831 21.9523 8.06719C21.9523 7.30607 21.3353 6.68906 20.5741 6.68906C19.813 6.68906 19.196 7.30607 19.196 8.06719C19.196 8.82831 19.813 9.44531 20.5741 9.44531Z" fill="url(#paint28_linear_1_723)"/>
<path id="Vector_30" d="M19.196 8.06719C19.196 8.82656 19.8148 9.44531 20.5741 9.44531C21.3335 9.44531 21.9523 8.82656 21.9523 8.06719C21.9523 7.93125 21.9335 7.79531 21.896 7.67344H19.2523C19.2148 7.79531 19.196 7.93125 19.196 8.06719Z" fill="url(#paint29_linear_1_723)"/>
<path id="Vector_31" d="M20.5741 6.68906C20.4148 6.68906 20.2648 6.71719 20.1241 6.76406V9.37031C20.2648 9.41719 20.4148 9.44531 20.5741 9.44531C21.3335 9.44531 21.9523 8.82656 21.9523 8.06719C21.9523 7.30781 21.3382 6.68906 20.5741 6.68906Z" fill="url(#paint30_linear_1_723)"/>
<path id="Vector_32" d="M21.9523 8.06719C21.9523 7.52812 21.6429 7.06406 21.1929 6.83437L19.3413 8.68594C19.5663 9.13594 20.0351 9.44531 20.5741 9.44531C21.3382 9.44531 21.9523 8.82656 21.9523 8.06719Z" fill="url(#paint31_linear_1_723)"/>
<path id="Vector_33" d="M8.60696 19.4156C9.73052 19.4156 10.6413 18.5048 10.6413 17.3813C10.6413 16.2577 9.73052 15.3469 8.60696 15.3469C7.48341 15.3469 6.57259 16.2577 6.57259 17.3813C6.57259 18.5048 7.48341 19.4156 8.60696 19.4156Z" fill="url(#paint32_linear_1_723)"/>
<path id="Vector_34" d="M6.57259 17.3813C6.57259 18.5063 7.48196 19.4156 8.60696 19.4156C9.73196 19.4156 10.6413 18.5063 10.6413 17.3813C10.6413 17.1797 10.6132 16.9828 10.557 16.8H6.65696C6.6054 16.9828 6.57259 17.1797 6.57259 17.3813Z" fill="url(#paint33_linear_1_723)"/>
<path id="Vector_35" d="M8.60696 15.3469C8.37728 15.3469 8.15227 15.3844 7.94602 15.4594V19.3031C8.15227 19.3734 8.37728 19.4156 8.60696 19.4156C9.73196 19.4156 10.6413 18.5063 10.6413 17.3813C10.6413 16.2563 9.72728 15.3469 8.60696 15.3469Z" fill="url(#paint34_linear_1_723)"/>
<path id="Vector_36" d="M10.6413 17.3813C10.6413 16.5891 10.1866 15.9 9.52102 15.5672L6.78821 18.3C7.12102 18.9656 7.81009 19.4203 8.60227 19.4203C9.72727 19.4156 10.6413 18.5016 10.6413 17.3813Z" fill="url(#paint35_linear_1_723)"/>
</g>
<defs>
<linearGradient id="paint0_linear_1_723" x1="2.32145" y1="2.25412" x2="5.2967" y2="5.22937" gradientUnits="userSpaceOnUse">
<stop stop-color="#E5E1E5"/>
<stop offset="0.198" stop-color="#E1DCE1"/>
<stop offset="0.403" stop-color="#D5D0D5"/>
<stop offset="0.612" stop-color="#C2BBC1"/>
<stop offset="0.821" stop-color="#A79EA6"/>
<stop offset="1" stop-color="#8B8089"/>
</linearGradient>
<linearGradient id="paint1_linear_1_723" x1="3.15535" y1="3.21441" x2="5.56131" y2="5.1525" gradientUnits="userSpaceOnUse">
<stop stop-color="#444444" stop-opacity="0"/>
<stop offset="0.238" stop-color="#444444" stop-opacity="0.061"/>
<stop offset="0.484" stop-color="#444444" stop-opacity="0.244"/>
<stop offset="0.734" stop-color="#444444" stop-opacity="0.549"/>
<stop offset="0.986" stop-color="#444444" stop-opacity="0.973"/>
<stop offset="1" stop-color="#444444"/>
</linearGradient>
<linearGradient id="paint2_linear_1_723" x1="3.80523" y1="4.12533" x2="3.80523" y2="6.53419" gradientUnits="userSpaceOnUse">
<stop stop-color="#444444" stop-opacity="0"/>
<stop offset="0.238" stop-color="#444444" stop-opacity="0.061"/>
<stop offset="0.484" stop-color="#444444" stop-opacity="0.244"/>
<stop offset="0.734" stop-color="#444444" stop-opacity="0.549"/>
<stop offset="0.986" stop-color="#444444" stop-opacity="0.973"/>
<stop offset="1" stop-color="#444444"/>
</linearGradient>
<linearGradient id="paint3_linear_1_723" x1="4.17821" y1="3.8138" x2="6.72531" y2="4.33247" gradientUnits="userSpaceOnUse">
<stop stop-color="#444444" stop-opacity="0"/>
<stop offset="0.238" stop-color="#444444" stop-opacity="0.061"/>
<stop offset="0.484" stop-color="#444444" stop-opacity="0.244"/>
<stop offset="0.734" stop-color="#444444" stop-opacity="0.549"/>
<stop offset="0.986" stop-color="#444444" stop-opacity="0.973"/>
<stop offset="1" stop-color="#444444"/>
</linearGradient>
<linearGradient id="paint4_linear_1_723" x1="3.90043" y1="3.83311" x2="5.92942" y2="5.86209" gradientUnits="userSpaceOnUse">
<stop stop-color="#444444" stop-opacity="0"/>
<stop offset="0.238" stop-color="#444444" stop-opacity="0.061"/>
<stop offset="0.484" stop-color="#444444" stop-opacity="0.244"/>
<stop offset="0.734" stop-color="#444444" stop-opacity="0.549"/>
<stop offset="0.986" stop-color="#444444" stop-opacity="0.973"/>
<stop offset="1" stop-color="#444444"/>
</linearGradient>
<linearGradient id="paint5_linear_1_723" x1="4.36913" y1="4.30181" x2="5.39124" y2="5.32392" gradientUnits="userSpaceOnUse">
<stop stop-color="#E5E1E5" stop-opacity="0"/>
<stop offset="0.127" stop-color="#E5E1E5" stop-opacity="0.018"/>
<stop offset="0.259" stop-color="#E5E1E5" stop-opacity="0.073"/>
<stop offset="0.394" stop-color="#E5E1E5" stop-opacity="0.163"/>
<stop offset="0.529" stop-color="#E5E1E5" stop-opacity="0.29"/>
<stop offset="0.666" stop-color="#E5E1E5" stop-opacity="0.454"/>
<stop offset="0.804" stop-color="#E5E1E5" stop-opacity="0.655"/>
<stop offset="0.94" stop-color="#E5E1E5" stop-opacity="0.887"/>
<stop offset="1" stop-color="#E5E1E5"/>
</linearGradient>
<linearGradient id="paint6_linear_1_723" x1="5.78228" y1="-4.02895" x2="16.9507" y2="17.909" gradientUnits="userSpaceOnUse">
<stop stop-color="#E5E1E5"/>
<stop offset="0.198" stop-color="#E1DCE1"/>
<stop offset="0.403" stop-color="#D5D0D5"/>
<stop offset="0.612" stop-color="#C2BBC1"/>
<stop offset="0.821" stop-color="#A79EA6"/>
<stop offset="1" stop-color="#8B8089"/>
</linearGradient>
<linearGradient id="paint7_linear_1_723" x1="5.72467" y1="1.90983" x2="18.3092" y2="14.4944" gradientUnits="userSpaceOnUse">
<stop stop-color="#FEF48B"/>
<stop offset="0.165" stop-color="#FDF286"/>
<stop offset="0.335" stop-color="#FDEE7A"/>
<stop offset="0.509" stop-color="#FCE765"/>
<stop offset="0.684" stop-color="#FCDE48"/>
<stop offset="0.859" stop-color="#FBD123"/>
<stop offset="1" stop-color="#FAC600"/>
</linearGradient>
<linearGradient id="paint8_linear_1_723" x1="-0.399693" y1="1.9634" x2="18.4468" y2="18.9387" gradientUnits="userSpaceOnUse">
<stop stop-color="#FE9738" stop-opacity="0"/>
<stop offset="0.121" stop-color="#FE9738" stop-opacity="0.016"/>
<stop offset="0.246" stop-color="#FE9738" stop-opacity="0.065"/>
<stop offset="0.373" stop-color="#FE9738" stop-opacity="0.147"/>
<stop offset="0.502" stop-color="#FE9738" stop-opacity="0.262"/>
<stop offset="0.632" stop-color="#FE9738" stop-opacity="0.41"/>
<stop offset="0.762" stop-color="#FE9738" stop-opacity="0.59"/>
<stop offset="0.892" stop-color="#FE9738" stop-opacity="0.8"/>
<stop offset="1" stop-color="#FE9738"/>
</linearGradient>
<linearGradient id="paint9_linear_1_723" x1="2.41051" y1="-1.15659" x2="21.257" y2="15.8187" gradientUnits="userSpaceOnUse">
<stop stop-color="#FE9738" stop-opacity="0"/>
<stop offset="0.121" stop-color="#FE9738" stop-opacity="0.016"/>
<stop offset="0.246" stop-color="#FE9738" stop-opacity="0.065"/>
<stop offset="0.373" stop-color="#FE9738" stop-opacity="0.147"/>
<stop offset="0.502" stop-color="#FE9738" stop-opacity="0.262"/>
<stop offset="0.632" stop-color="#FE9738" stop-opacity="0.41"/>
<stop offset="0.762" stop-color="#FE9738" stop-opacity="0.59"/>
<stop offset="0.892" stop-color="#FE9738" stop-opacity="0.8"/>
<stop offset="1" stop-color="#FE9738"/>
</linearGradient>
<linearGradient id="paint10_linear_1_723" x1="1.56128" y1="-0.213751" x2="20.4078" y2="16.7615" gradientUnits="userSpaceOnUse">
<stop stop-color="#FE9738" stop-opacity="0"/>
<stop offset="0.121" stop-color="#FE9738" stop-opacity="0.016"/>
<stop offset="0.246" stop-color="#FE9738" stop-opacity="0.065"/>
<stop offset="0.373" stop-color="#FE9738" stop-opacity="0.147"/>
<stop offset="0.502" stop-color="#FE9738" stop-opacity="0.262"/>
<stop offset="0.632" stop-color="#FE9738" stop-opacity="0.41"/>
<stop offset="0.762" stop-color="#FE9738" stop-opacity="0.59"/>
<stop offset="0.892" stop-color="#FE9738" stop-opacity="0.8"/>
<stop offset="1" stop-color="#FE9738"/>
</linearGradient>
<linearGradient id="paint11_linear_1_723" x1="4.69932" y1="-3.69773" x2="23.5459" y2="13.2775" gradientUnits="userSpaceOnUse">
<stop stop-color="#FE9738" stop-opacity="0"/>
<stop offset="0.121" stop-color="#FE9738" stop-opacity="0.016"/>
<stop offset="0.246" stop-color="#FE9738" stop-opacity="0.065"/>
<stop offset="0.373" stop-color="#FE9738" stop-opacity="0.147"/>
<stop offset="0.502" stop-color="#FE9738" stop-opacity="0.262"/>
<stop offset="0.632" stop-color="#FE9738" stop-opacity="0.41"/>
<stop offset="0.762" stop-color="#FE9738" stop-opacity="0.59"/>
<stop offset="0.892" stop-color="#FE9738" stop-opacity="0.8"/>
<stop offset="1" stop-color="#FE9738"/>
</linearGradient>
<linearGradient id="paint12_linear_1_723" x1="3.46937" y1="-2.33217" x2="22.3159" y2="14.643" gradientUnits="userSpaceOnUse">
<stop stop-color="#FE9738" stop-opacity="0"/>
<stop offset="0.121" stop-color="#FE9738" stop-opacity="0.016"/>
<stop offset="0.246" stop-color="#FE9738" stop-opacity="0.065"/>
<stop offset="0.373" stop-color="#FE9738" stop-opacity="0.147"/>
<stop offset="0.502" stop-color="#FE9738" stop-opacity="0.262"/>
<stop offset="0.632" stop-color="#FE9738" stop-opacity="0.41"/>
<stop offset="0.762" stop-color="#FE9738" stop-opacity="0.59"/>
<stop offset="0.892" stop-color="#FE9738" stop-opacity="0.8"/>
<stop offset="1" stop-color="#FE9738"/>
</linearGradient>
<linearGradient id="paint13_linear_1_723" x1="12.0007" y1="9.82462" x2="12.0007" y2="20.0134" gradientUnits="userSpaceOnUse">
<stop stop-color="#FE9738" stop-opacity="0"/>
<stop offset="0.121" stop-color="#FE9738" stop-opacity="0.016"/>
<stop offset="0.246" stop-color="#FE9738" stop-opacity="0.065"/>
<stop offset="0.373" stop-color="#FE9738" stop-opacity="0.147"/>
<stop offset="0.502" stop-color="#FE9738" stop-opacity="0.262"/>
<stop offset="0.632" stop-color="#FE9738" stop-opacity="0.41"/>
<stop offset="0.762" stop-color="#FE9738" stop-opacity="0.59"/>
<stop offset="0.892" stop-color="#FE9738" stop-opacity="0.8"/>
<stop offset="1" stop-color="#FE9738"/>
</linearGradient>
<linearGradient id="paint14_linear_1_723" x1="13.5782" y1="8.50697" x2="24.3519" y2="10.7007" gradientUnits="userSpaceOnUse">
<stop stop-color="#FE9738" stop-opacity="0"/>
<stop offset="0.121" stop-color="#FE9738" stop-opacity="0.016"/>
<stop offset="0.246" stop-color="#FE9738" stop-opacity="0.065"/>
<stop offset="0.373" stop-color="#FE9738" stop-opacity="0.147"/>
<stop offset="0.502" stop-color="#FE9738" stop-opacity="0.262"/>
<stop offset="0.632" stop-color="#FE9738" stop-opacity="0.41"/>
<stop offset="0.762" stop-color="#FE9738" stop-opacity="0.59"/>
<stop offset="0.892" stop-color="#FE9738" stop-opacity="0.8"/>
<stop offset="1" stop-color="#FE9738"/>
</linearGradient>
<linearGradient id="paint15_linear_1_723" x1="12.4034" y1="8.58853" x2="20.9855" y2="17.1707" gradientUnits="userSpaceOnUse">
<stop stop-color="#FE9738" stop-opacity="0"/>
<stop offset="0.121" stop-color="#FE9738" stop-opacity="0.016"/>
<stop offset="0.246" stop-color="#FE9738" stop-opacity="0.065"/>
<stop offset="0.373" stop-color="#FE9738" stop-opacity="0.147"/>
<stop offset="0.502" stop-color="#FE9738" stop-opacity="0.262"/>
<stop offset="0.632" stop-color="#FE9738" stop-opacity="0.41"/>
<stop offset="0.762" stop-color="#FE9738" stop-opacity="0.59"/>
<stop offset="0.892" stop-color="#FE9738" stop-opacity="0.8"/>
<stop offset="1" stop-color="#FE9738"/>
</linearGradient>
<linearGradient id="paint16_linear_1_723" x1="14.805" y1="14.1813" x2="13.6355" y2="11.6751" gradientUnits="userSpaceOnUse">
<stop stop-color="#FE9738" stop-opacity="0"/>
<stop offset="0.121" stop-color="#FE9738" stop-opacity="0.016"/>
<stop offset="0.246" stop-color="#FE9738" stop-opacity="0.065"/>
<stop offset="0.373" stop-color="#FE9738" stop-opacity="0.147"/>
<stop offset="0.502" stop-color="#FE9738" stop-opacity="0.262"/>
<stop offset="0.632" stop-color="#FE9738" stop-opacity="0.41"/>
<stop offset="0.762" stop-color="#FE9738" stop-opacity="0.59"/>
<stop offset="0.892" stop-color="#FE9738" stop-opacity="0.8"/>
<stop offset="1" stop-color="#FE9738"/>
</linearGradient>
<linearGradient id="paint17_linear_1_723" x1="11.6047" y1="7.3132" x2="12.9079" y2="10.187" gradientUnits="userSpaceOnUse">
<stop stop-color="#FE9738" stop-opacity="0"/>
<stop offset="0.121" stop-color="#FE9738" stop-opacity="0.016"/>
<stop offset="0.246" stop-color="#FE9738" stop-opacity="0.065"/>
<stop offset="0.373" stop-color="#FE9738" stop-opacity="0.147"/>
<stop offset="0.502" stop-color="#FE9738" stop-opacity="0.262"/>
<stop offset="0.632" stop-color="#FE9738" stop-opacity="0.41"/>
<stop offset="0.762" stop-color="#FE9738" stop-opacity="0.59"/>
<stop offset="0.892" stop-color="#FE9738" stop-opacity="0.8"/>
<stop offset="1" stop-color="#FE9738"/>
</linearGradient>
<linearGradient id="paint18_linear_1_723" x1="0.000900196" y1="8.18592" x2="24.0005" y2="8.18592" gradientUnits="userSpaceOnUse">
<stop stop-color="#E5E1E5"/>
<stop offset="0.198" stop-color="#E1DCE1"/>
<stop offset="0.403" stop-color="#D5D0D5"/>
<stop offset="0.612" stop-color="#C2BBC1"/>
<stop offset="0.821" stop-color="#A79EA6"/>
<stop offset="1" stop-color="#8B8089"/>
</linearGradient>
<linearGradient id="paint19_linear_1_723" x1="12.5051" y1="10.4723" x2="13.257" y2="13.8808" gradientUnits="userSpaceOnUse">
<stop stop-color="#444444" stop-opacity="0"/>
<stop offset="0.238" stop-color="#444444" stop-opacity="0.061"/>
<stop offset="0.484" stop-color="#444444" stop-opacity="0.244"/>
<stop offset="0.734" stop-color="#444444" stop-opacity="0.549"/>
<stop offset="0.986" stop-color="#444444" stop-opacity="0.973"/>
<stop offset="1" stop-color="#444444"/>
</linearGradient>
<linearGradient id="paint20_linear_1_723" x1="14.617" y1="10.3749" x2="17.8917" y2="13.115" gradientUnits="userSpaceOnUse">
<stop stop-color="#444444" stop-opacity="0"/>
<stop offset="0.238" stop-color="#444444" stop-opacity="0.061"/>
<stop offset="0.484" stop-color="#444444" stop-opacity="0.244"/>
<stop offset="0.734" stop-color="#444444" stop-opacity="0.549"/>
<stop offset="0.986" stop-color="#444444" stop-opacity="0.973"/>
<stop offset="1" stop-color="#444444"/>
</linearGradient>
<linearGradient id="paint21_linear_1_723" x1="10.9478" y1="-1.57303" x2="12.7523" y2="16.0037" gradientUnits="userSpaceOnUse">
<stop stop-color="#FEF6AD" stop-opacity="0"/>
<stop offset="0.121" stop-color="#FEF6AD" stop-opacity="0.016"/>
<stop offset="0.246" stop-color="#FEF6AD" stop-opacity="0.065"/>
<stop offset="0.373" stop-color="#FEF6AD" stop-opacity="0.147"/>
<stop offset="0.502" stop-color="#FEF6AD" stop-opacity="0.262"/>
<stop offset="0.632" stop-color="#FEF6AD" stop-opacity="0.41"/>
<stop offset="0.762" stop-color="#FEF6AD" stop-opacity="0.59"/>
<stop offset="0.892" stop-color="#FEF6AD" stop-opacity="0.8"/>
<stop offset="1" stop-color="#FEF6AD"/>
</linearGradient>
<linearGradient id="paint22_linear_1_723" x1="9.2597" y1="2.87995" x2="16.0097" y2="15.9121" gradientUnits="userSpaceOnUse">
<stop stop-color="#FE9738" stop-opacity="0"/>
<stop offset="0.121" stop-color="#FE9738" stop-opacity="0.016"/>
<stop offset="0.246" stop-color="#FE9738" stop-opacity="0.065"/>
<stop offset="0.373" stop-color="#FE9738" stop-opacity="0.147"/>
<stop offset="0.502" stop-color="#FE9738" stop-opacity="0.262"/>
<stop offset="0.632" stop-color="#FE9738" stop-opacity="0.41"/>
<stop offset="0.762" stop-color="#FE9738" stop-opacity="0.59"/>
<stop offset="0.892" stop-color="#FE9738" stop-opacity="0.8"/>
<stop offset="1" stop-color="#FE9738"/>
</linearGradient>
<linearGradient id="paint23_linear_1_723" x1="12.2184" y1="9.06914" x2="13.5216" y2="13.7808" gradientUnits="userSpaceOnUse">
<stop stop-color="#444444" stop-opacity="0"/>
<stop offset="0.238" stop-color="#444444" stop-opacity="0.061"/>
<stop offset="0.484" stop-color="#444444" stop-opacity="0.244"/>
<stop offset="0.734" stop-color="#444444" stop-opacity="0.549"/>
<stop offset="0.986" stop-color="#444444" stop-opacity="0.973"/>
<stop offset="1" stop-color="#444444"/>
</linearGradient>
<linearGradient id="paint24_linear_1_723" x1="11.8065" y1="6.63089" x2="12.2193" y2="15.9785" gradientUnits="userSpaceOnUse">
<stop stop-color="#FE9738" stop-opacity="0"/>
<stop offset="0.121" stop-color="#FE9738" stop-opacity="0.016"/>
<stop offset="0.246" stop-color="#FE9738" stop-opacity="0.065"/>
<stop offset="0.373" stop-color="#FE9738" stop-opacity="0.147"/>
<stop offset="0.502" stop-color="#FE9738" stop-opacity="0.262"/>
<stop offset="0.632" stop-color="#FE9738" stop-opacity="0.41"/>
<stop offset="0.762" stop-color="#FE9738" stop-opacity="0.59"/>
<stop offset="0.892" stop-color="#FE9738" stop-opacity="0.8"/>
<stop offset="1" stop-color="#FE9738"/>
</linearGradient>
<linearGradient id="paint25_linear_1_723" x1="12.3196" y1="5.35823" x2="13.4557" y2="-0.923954" gradientUnits="userSpaceOnUse">
<stop stop-color="#FEF6AD" stop-opacity="0"/>
<stop offset="0.121" stop-color="#FEF6AD" stop-opacity="0.016"/>
<stop offset="0.246" stop-color="#FEF6AD" stop-opacity="0.065"/>
<stop offset="0.373" stop-color="#FEF6AD" stop-opacity="0.147"/>
<stop offset="0.502" stop-color="#FEF6AD" stop-opacity="0.262"/>
<stop offset="0.632" stop-color="#FEF6AD" stop-opacity="0.41"/>
<stop offset="0.762" stop-color="#FEF6AD" stop-opacity="0.59"/>
<stop offset="0.892" stop-color="#FEF6AD" stop-opacity="0.8"/>
<stop offset="1" stop-color="#FEF6AD"/>
</linearGradient>
<linearGradient id="paint26_linear_1_723" x1="3.06006" y1="10.2412" x2="4.55265" y2="9.61739" gradientUnits="userSpaceOnUse">
<stop stop-color="#444444" stop-opacity="0"/>
<stop offset="0.238" stop-color="#444444" stop-opacity="0.061"/>
<stop offset="0.484" stop-color="#444444" stop-opacity="0.244"/>
<stop offset="0.734" stop-color="#444444" stop-opacity="0.549"/>
<stop offset="0.986" stop-color="#444444" stop-opacity="0.973"/>
<stop offset="1" stop-color="#444444"/>
</linearGradient>
<linearGradient id="paint27_linear_1_723" x1="19.1302" y1="2.50439" x2="18.316" y2="3.26662" gradientUnits="userSpaceOnUse">
<stop stop-color="#444444" stop-opacity="0"/>
<stop offset="0.238" stop-color="#444444" stop-opacity="0.061"/>
<stop offset="0.484" stop-color="#444444" stop-opacity="0.244"/>
<stop offset="0.734" stop-color="#444444" stop-opacity="0.549"/>
<stop offset="0.986" stop-color="#444444" stop-opacity="0.973"/>
<stop offset="1" stop-color="#444444"/>
</linearGradient>
<linearGradient id="paint28_linear_1_723" x1="19.5173" y1="7.00898" x2="21.6376" y2="9.12938" gradientUnits="userSpaceOnUse">
<stop stop-color="#E5E1E5"/>
<stop offset="0.198" stop-color="#E1DCE1"/>
<stop offset="0.403" stop-color="#D5D0D5"/>
<stop offset="0.612" stop-color="#C2BBC1"/>
<stop offset="0.821" stop-color="#A79EA6"/>
<stop offset="1" stop-color="#8B8089"/>
</linearGradient>
<linearGradient id="paint29_linear_1_723" x1="20.5747" y1="8.34258" x2="20.5747" y2="10.0593" gradientUnits="userSpaceOnUse">
<stop stop-color="#444444" stop-opacity="0"/>
<stop offset="0.238" stop-color="#444444" stop-opacity="0.061"/>
<stop offset="0.484" stop-color="#444444" stop-opacity="0.244"/>
<stop offset="0.734" stop-color="#444444" stop-opacity="0.549"/>
<stop offset="0.986" stop-color="#444444" stop-opacity="0.973"/>
<stop offset="1" stop-color="#444444"/>
</linearGradient>
<linearGradient id="paint30_linear_1_723" x1="20.8405" y1="8.12058" x2="22.6558" y2="8.49019" gradientUnits="userSpaceOnUse">
<stop stop-color="#444444" stop-opacity="0"/>
<stop offset="0.238" stop-color="#444444" stop-opacity="0.061"/>
<stop offset="0.484" stop-color="#444444" stop-opacity="0.244"/>
<stop offset="0.734" stop-color="#444444" stop-opacity="0.549"/>
<stop offset="0.986" stop-color="#444444" stop-opacity="0.973"/>
<stop offset="1" stop-color="#444444"/>
</linearGradient>
<linearGradient id="paint31_linear_1_723" x1="20.6425" y1="8.13431" x2="22.0886" y2="9.58031" gradientUnits="userSpaceOnUse">
<stop stop-color="#444444" stop-opacity="0"/>
<stop offset="0.238" stop-color="#444444" stop-opacity="0.061"/>
<stop offset="0.484" stop-color="#444444" stop-opacity="0.244"/>
<stop offset="0.734" stop-color="#444444" stop-opacity="0.549"/>
<stop offset="0.986" stop-color="#444444" stop-opacity="0.973"/>
<stop offset="1" stop-color="#444444"/>
</linearGradient>
<linearGradient id="paint32_linear_1_723" x1="7.25809" y1="16.0321" x2="9.23668" y2="18.0107" gradientUnits="userSpaceOnUse">
<stop stop-color="#FE860A"/>
<stop offset="0.356" stop-color="#FC8108"/>
<stop offset="0.725" stop-color="#F87504"/>
<stop offset="1" stop-color="#F46700"/>
</linearGradient>
<linearGradient id="paint33_linear_1_723" x1="8.60649" y1="16.9252" x2="8.60649" y2="19.3994" gradientUnits="userSpaceOnUse">
<stop stop-color="#F46700" stop-opacity="0"/>
<stop offset="0.128" stop-color="#F36500" stop-opacity="0.018"/>
<stop offset="0.26" stop-color="#F26103" stop-opacity="0.073"/>
<stop offset="0.394" stop-color="#F15B07" stop-opacity="0.164"/>
<stop offset="0.53" stop-color="#EF520D" stop-opacity="0.292"/>
<stop offset="0.668" stop-color="#EC4614" stop-opacity="0.456"/>
<stop offset="0.806" stop-color="#E9371D" stop-opacity="0.657"/>
<stop offset="0.942" stop-color="#E52628" stop-opacity="0.891"/>
<stop offset="1" stop-color="#E41F2D"/>
</linearGradient>
<linearGradient id="paint34_linear_1_723" x1="8.11604" y1="17.2244" x2="10.3215" y2="17.9261" gradientUnits="userSpaceOnUse">
<stop stop-color="#F46700" stop-opacity="0"/>
<stop offset="0.128" stop-color="#F36500" stop-opacity="0.018"/>
<stop offset="0.26" stop-color="#F26103" stop-opacity="0.073"/>
<stop offset="0.394" stop-color="#F15B07" stop-opacity="0.164"/>
<stop offset="0.53" stop-color="#EF520D" stop-opacity="0.292"/>
<stop offset="0.668" stop-color="#EC4614" stop-opacity="0.456"/>
<stop offset="0.806" stop-color="#E9371D" stop-opacity="0.657"/>
<stop offset="0.942" stop-color="#E52628" stop-opacity="0.891"/>
<stop offset="1" stop-color="#E41F2D"/>
</linearGradient>
<linearGradient id="paint35_linear_1_723" x1="8.70652" y1="17.4805" x2="10.8386" y2="19.6126" gradientUnits="userSpaceOnUse">
<stop stop-color="#F46700" stop-opacity="0"/>
<stop offset="0.128" stop-color="#F36500" stop-opacity="0.018"/>
<stop offset="0.26" stop-color="#F26103" stop-opacity="0.073"/>
<stop offset="0.394" stop-color="#F15B07" stop-opacity="0.164"/>
<stop offset="0.53" stop-color="#EF520D" stop-opacity="0.292"/>
<stop offset="0.668" stop-color="#EC4614" stop-opacity="0.456"/>
<stop offset="0.806" stop-color="#E9371D" stop-opacity="0.657"/>
<stop offset="0.942" stop-color="#E52628" stop-opacity="0.891"/>
<stop offset="1" stop-color="#E41F2D"/>
</linearGradient>
</defs>
</svg>
