<svg preserveAspectRatio="none" width="100%" height="100%" overflow="visible" style="display: block;" viewBox="0 0 20 17" fill="none" xmlns="http://www.w3.org/2000/svg">
<g id="Group">
<path id="Vector" d="M1.99574 6.61194C3.09796 6.61194 3.99148 5.71841 3.99148 4.61619C3.99148 3.51398 3.09796 2.62045 1.99574 2.62045C0.893524 2.62045 0 3.51398 0 4.61619C0 5.71841 0.893524 6.61194 1.99574 6.61194Z" fill="url(#paint0_linear_1_761)"/>
<path id="Vector_2" d="M0 4.61619C0 5.71842 0.893516 6.61194 1.99574 6.61194C3.09797 6.61194 3.99148 5.71842 3.99148 4.61619C3.99148 4.561 3.98914 4.50639 3.98477 4.45233H0.00671875C0.00227303 4.50684 3.1621e-05 4.5615 0 4.61619Z" fill="url(#paint1_linear_1_761)"/>
<path id="Vector_3" d="M1.99574 2.62041C1.86719 2.62041 1.74148 2.63272 1.61969 2.65596V6.57639C1.74148 6.59963 1.86719 6.61194 1.99574 6.61194C3.09797 6.61194 3.99148 5.71842 3.99148 4.61619C3.99148 3.51397 3.09797 2.62041 1.99574 2.62041Z" fill="url(#paint2_linear_1_761)"/>
<path id="Vector_4" d="M3.39855 3.19674L0.576328 6.01897C0.938125 6.38502 1.44039 6.61194 1.99574 6.61194C3.09797 6.61194 3.99148 5.71842 3.99148 4.61619C3.99148 4.06084 3.76461 3.55854 3.39855 3.19674Z" fill="url(#paint3_linear_1_761)"/>
<path id="Vector_5" d="M18.858 5.02514C19.4887 5.02514 20 4.51387 20 3.88319C20 3.2525 19.4887 2.74123 18.858 2.74123C18.2274 2.74123 17.7161 3.2525 17.7161 3.88319C17.7161 4.51387 18.2274 5.02514 18.858 5.02514Z" fill="url(#paint4_linear_1_761)"/>
<path id="Vector_6" d="M17.7161 3.88319C17.7161 4.51389 18.2274 5.02514 18.858 5.02514C19.4887 5.02514 20 4.51385 20 3.88319C20 3.85162 19.9987 3.82037 19.9961 3.78943H17.7199C17.7174 3.82062 17.7161 3.8519 17.7161 3.88319Z" fill="url(#paint5_linear_1_761)"/>
<path id="Vector_7" d="M18.858 2.74123C18.7845 2.74123 18.7126 2.74826 18.6429 2.76158V5.00483C18.7126 5.01811 18.7845 5.02518 18.858 5.02518C19.4888 5.02518 20 4.51389 20 3.88322C20 3.25248 19.4887 2.74123 18.858 2.74123Z" fill="url(#paint6_linear_1_761)"/>
<path id="Vector_8" d="M19.6607 3.071L18.0459 4.68584C18.2529 4.89529 18.5403 5.02514 18.858 5.02514C19.4888 5.02514 20 4.51385 20 3.88319C20 3.56541 19.8702 3.27799 19.6607 3.071Z" fill="url(#paint7_linear_1_761)"/>
<path id="Vector_9" d="M13.1949 13.7266C13.9655 12.1769 15.2586 10.911 16.8773 10.1896C18.0619 9.66154 18.7573 8.41678 18.5802 7.13194C18.2452 4.70143 15.2402 3.75229 13.5659 5.54569C13.3877 5.73656 13.2195 5.93646 13.0619 6.14459C11.3582 8.39299 11.108 11.2886 12.1553 13.7045C12.3493 14.152 12.9778 14.1633 13.1949 13.7266Z" fill="url(#paint8_linear_1_761)"/>
<path id="Vector_10" d="M18.5802 7.13194C18.7573 8.41678 18.0619 9.66154 16.8773 10.1896C15.2586 10.911 13.9654 12.1769 13.1949 13.7266C12.9778 14.1633 12.3493 14.152 12.1553 13.7045C11.5107 12.2175 11.3585 10.549 11.7333 8.96131L17.4546 5.20486C18.0362 5.63904 18.4653 6.29834 18.5802 7.13194Z" fill="url(#paint9_linear_1_761)"/>
<path id="Vector_11" d="M13.5659 5.54569C13.3877 5.73657 13.2195 5.93647 13.0618 6.14459C12.9334 6.31457 12.8122 6.48984 12.6985 6.66994L15.5233 10.9723C15.9461 10.6649 16.3998 10.4025 16.8772 10.1896C18.0618 9.66158 18.7572 8.41682 18.5801 7.13197C18.2452 4.70143 15.2402 3.75229 13.5659 5.54569Z" fill="url(#paint10_linear_1_761)"/>
<path id="Vector_12" d="M13.5659 5.54569C13.3877 5.73657 13.2195 5.93647 13.0618 6.14459C12.9334 6.31457 12.8122 6.48984 12.6985 6.66994L15.5233 10.9723C15.9461 10.6649 16.3998 10.4025 16.8772 10.1896C18.0618 9.66158 18.7572 8.41682 18.5801 7.13197C18.2452 4.70143 15.2402 3.75229 13.5659 5.54569Z" fill="url(#paint11_linear_1_761)"/>
<path id="Vector_13" d="M10.3831 16.584C8.95531 14.9676 6.9902 13.8617 4.8091 13.5161C3.21285 13.2631 1.97402 11.9895 1.7723 10.386C1.3907 7.35256 4.70078 5.23994 7.295 6.85772C7.57104 7.02992 7.83806 7.21618 8.095 7.41576C10.8714 9.5717 12.1075 12.9759 11.6272 16.2217C11.5382 16.8229 10.7854 17.0395 10.3831 16.584Z" fill="url(#paint12_linear_1_761)"/>
<path id="Vector_14" d="M1.77227 10.386C1.97398 11.9895 3.21285 13.2631 4.80906 13.5161C6.99016 13.8617 8.95527 14.9676 10.383 16.584C10.7854 17.0395 11.5382 16.8229 11.6272 16.2217C11.9229 14.2239 11.5672 12.1666 10.6035 10.3768L2.50465 7.70315C1.94484 8.41354 1.64141 9.34557 1.77227 10.386Z" fill="url(#paint13_linear_1_761)"/>
<path id="Vector_15" d="M8.095 7.41576C7.89388 7.25971 7.68659 7.11178 7.47363 6.97233L5.28414 13.6046C7.27473 14.0268 9.05977 15.0859 10.383 16.584C10.7854 17.0395 11.5382 16.8229 11.6272 16.2217C12.1075 12.9759 10.8714 9.57166 8.095 7.41576Z" fill="url(#paint14_linear_1_761)"/>
<path id="Vector_16" d="M12.4903 5.47862C13.1271 4.58526 14.0629 3.92166 15.1481 3.63131C15.9423 3.41881 16.5017 2.70885 16.5189 1.88686C16.5514 0.331896 14.7648 -0.561776 13.5379 0.394084C13.4073 0.49583 13.2821 0.604202 13.1627 0.718771C11.872 1.95654 11.4268 3.74436 11.8417 5.36111C11.9185 5.66065 12.3109 5.73037 12.4903 5.47862Z" fill="url(#paint15_linear_1_761)"/>
<path id="Vector_17" d="M16.5189 1.88686C16.5017 2.70885 15.9423 3.41881 15.1481 3.63131C14.0629 3.92166 13.1271 4.58522 12.4903 5.47862C12.3109 5.73037 11.9185 5.66065 11.8417 5.36115C11.5863 4.36604 11.6573 3.30631 12.0502 2.34975L16.0063 0.568302C16.3271 0.898068 16.53 1.35358 16.5189 1.88686Z" fill="url(#paint16_linear_1_761)"/>
<path id="Vector_18" d="M13.5379 0.394084C13.4073 0.49583 13.2821 0.604202 13.1627 0.718771C13.0654 0.812377 12.972 0.910014 12.8829 1.01143L14.2225 3.98639C14.5178 3.83605 14.828 3.71704 15.1481 3.63131C15.9423 3.41881 16.5017 2.70885 16.5189 1.88686C16.5514 0.331896 14.7648 -0.561737 13.5379 0.394084Z" fill="url(#paint17_linear_1_761)"/>
</g>
<defs>
<linearGradient id="paint0_linear_1_761" x1="0.915937" y1="3.53639" x2="3.15539" y2="5.77584" gradientUnits="userSpaceOnUse">
<stop stop-color="#99E6FC"/>
<stop offset="0.133" stop-color="#8EE1FB"/>
<stop offset="0.363" stop-color="#71D5F9"/>
<stop offset="0.663" stop-color="#43C2F5"/>
<stop offset="1" stop-color="#08A9F1"/>
</linearGradient>
<linearGradient id="paint1_linear_1_761" x1="1.99574" y1="4.93783" x2="1.99574" y2="6.62916" gradientUnits="userSpaceOnUse">
<stop stop-color="#0593FC" stop-opacity="0"/>
<stop offset="0.101" stop-color="#0492FC" stop-opacity="0.021"/>
<stop offset="0.225" stop-color="#0491FC" stop-opacity="0.082"/>
<stop offset="0.363" stop-color="#048FFC" stop-opacity="0.182"/>
<stop offset="0.509" stop-color="#038DFC" stop-opacity="0.322"/>
<stop offset="0.663" stop-color="#028AFC" stop-opacity="0.501"/>
<stop offset="0.823" stop-color="#0286FC" stop-opacity="0.721"/>
<stop offset="0.985" stop-color="#0182FC" stop-opacity="0.976"/>
<stop offset="1" stop-color="#0182FC"/>
</linearGradient>
<linearGradient id="paint2_linear_1_761" x1="2.31027" y1="4.61619" x2="4.00395" y2="4.61619" gradientUnits="userSpaceOnUse">
<stop stop-color="#0593FC" stop-opacity="0"/>
<stop offset="0.101" stop-color="#0492FC" stop-opacity="0.021"/>
<stop offset="0.225" stop-color="#0491FC" stop-opacity="0.082"/>
<stop offset="0.363" stop-color="#048FFC" stop-opacity="0.182"/>
<stop offset="0.509" stop-color="#038DFC" stop-opacity="0.322"/>
<stop offset="0.663" stop-color="#028AFC" stop-opacity="0.501"/>
<stop offset="0.823" stop-color="#0286FC" stop-opacity="0.721"/>
<stop offset="0.985" stop-color="#0182FC" stop-opacity="0.976"/>
<stop offset="1" stop-color="#0182FC"/>
</linearGradient>
<linearGradient id="paint3_linear_1_761" x1="2.75805" y1="5.3785" x2="3.5659" y2="6.18631" gradientUnits="userSpaceOnUse">
<stop stop-color="#99E6FC" stop-opacity="0"/>
<stop offset="0.165" stop-color="#99E6FC" stop-opacity="0.013"/>
<stop offset="0.296" stop-color="#99E6FC" stop-opacity="0.052"/>
<stop offset="0.416" stop-color="#99E6FC" stop-opacity="0.119"/>
<stop offset="0.529" stop-color="#99E6FC" stop-opacity="0.213"/>
<stop offset="0.637" stop-color="#99E6FC" stop-opacity="0.334"/>
<stop offset="0.742" stop-color="#99E6FC" stop-opacity="0.484"/>
<stop offset="0.843" stop-color="#99E6FC" stop-opacity="0.661"/>
<stop offset="0.94" stop-color="#99E6FC" stop-opacity="0.86"/>
<stop offset="1" stop-color="#99E6FC"/>
</linearGradient>
<linearGradient id="paint4_linear_1_761" x1="18.2402" y1="3.26533" x2="19.5216" y2="4.54674" gradientUnits="userSpaceOnUse">
<stop stop-color="#99E6FC"/>
<stop offset="0.133" stop-color="#8EE1FB"/>
<stop offset="0.363" stop-color="#71D5F9"/>
<stop offset="0.663" stop-color="#43C2F5"/>
<stop offset="1" stop-color="#08A9F1"/>
</linearGradient>
<linearGradient id="paint5_linear_1_761" x1="18.858" y1="4.06721" x2="18.858" y2="5.03502" gradientUnits="userSpaceOnUse">
<stop stop-color="#0593FC" stop-opacity="0"/>
<stop offset="0.101" stop-color="#0492FC" stop-opacity="0.021"/>
<stop offset="0.225" stop-color="#0491FC" stop-opacity="0.082"/>
<stop offset="0.363" stop-color="#048FFC" stop-opacity="0.182"/>
<stop offset="0.509" stop-color="#038DFC" stop-opacity="0.322"/>
<stop offset="0.663" stop-color="#028AFC" stop-opacity="0.501"/>
<stop offset="0.823" stop-color="#0286FC" stop-opacity="0.721"/>
<stop offset="0.985" stop-color="#0182FC" stop-opacity="0.976"/>
<stop offset="1" stop-color="#0182FC"/>
</linearGradient>
<linearGradient id="paint6_linear_1_761" x1="19.038" y1="3.88319" x2="20.0071" y2="3.88319" gradientUnits="userSpaceOnUse">
<stop stop-color="#0593FC" stop-opacity="0"/>
<stop offset="0.101" stop-color="#0492FC" stop-opacity="0.021"/>
<stop offset="0.225" stop-color="#0491FC" stop-opacity="0.082"/>
<stop offset="0.363" stop-color="#048FFC" stop-opacity="0.182"/>
<stop offset="0.509" stop-color="#038DFC" stop-opacity="0.322"/>
<stop offset="0.663" stop-color="#028AFC" stop-opacity="0.501"/>
<stop offset="0.823" stop-color="#0286FC" stop-opacity="0.721"/>
<stop offset="0.985" stop-color="#0182FC" stop-opacity="0.976"/>
<stop offset="1" stop-color="#0182FC"/>
</linearGradient>
<linearGradient id="paint7_linear_1_761" x1="19.2942" y1="4.31936" x2="19.7565" y2="4.78158" gradientUnits="userSpaceOnUse">
<stop stop-color="#99E6FC" stop-opacity="0"/>
<stop offset="0.165" stop-color="#99E6FC" stop-opacity="0.013"/>
<stop offset="0.296" stop-color="#99E6FC" stop-opacity="0.052"/>
<stop offset="0.416" stop-color="#99E6FC" stop-opacity="0.119"/>
<stop offset="0.529" stop-color="#99E6FC" stop-opacity="0.213"/>
<stop offset="0.637" stop-color="#99E6FC" stop-opacity="0.334"/>
<stop offset="0.742" stop-color="#99E6FC" stop-opacity="0.484"/>
<stop offset="0.843" stop-color="#99E6FC" stop-opacity="0.661"/>
<stop offset="0.94" stop-color="#99E6FC" stop-opacity="0.86"/>
<stop offset="1" stop-color="#99E6FC"/>
</linearGradient>
<linearGradient id="paint8_linear_1_761" x1="13.0452" y1="7.45359" x2="16.0256" y2="10.8061" gradientUnits="userSpaceOnUse">
<stop stop-color="#99E6FC"/>
<stop offset="0.133" stop-color="#8EE1FB"/>
<stop offset="0.363" stop-color="#71D5F9"/>
<stop offset="0.663" stop-color="#43C2F5"/>
<stop offset="1" stop-color="#08A9F1"/>
</linearGradient>
<linearGradient id="paint9_linear_1_761" x1="14.9622" y1="9.60626" x2="16.2249" y2="11.1116" gradientUnits="userSpaceOnUse">
<stop stop-color="#0593FC" stop-opacity="0"/>
<stop offset="0.101" stop-color="#0492FC" stop-opacity="0.021"/>
<stop offset="0.225" stop-color="#0491FC" stop-opacity="0.082"/>
<stop offset="0.363" stop-color="#048FFC" stop-opacity="0.182"/>
<stop offset="0.509" stop-color="#038DFC" stop-opacity="0.322"/>
<stop offset="0.663" stop-color="#028AFC" stop-opacity="0.501"/>
<stop offset="0.823" stop-color="#0286FC" stop-opacity="0.721"/>
<stop offset="0.985" stop-color="#0182FC" stop-opacity="0.976"/>
<stop offset="1" stop-color="#0182FC"/>
</linearGradient>
<linearGradient id="paint10_linear_1_761" x1="15.87" y1="7.81503" x2="18.5183" y2="8.50166" gradientUnits="userSpaceOnUse">
<stop stop-color="#0593FC" stop-opacity="0"/>
<stop offset="0.101" stop-color="#0492FC" stop-opacity="0.021"/>
<stop offset="0.225" stop-color="#0491FC" stop-opacity="0.082"/>
<stop offset="0.363" stop-color="#048FFC" stop-opacity="0.182"/>
<stop offset="0.509" stop-color="#038DFC" stop-opacity="0.322"/>
<stop offset="0.663" stop-color="#028AFC" stop-opacity="0.501"/>
<stop offset="0.823" stop-color="#0286FC" stop-opacity="0.721"/>
<stop offset="0.985" stop-color="#0182FC" stop-opacity="0.976"/>
<stop offset="1" stop-color="#0182FC"/>
</linearGradient>
<linearGradient id="paint11_linear_1_761" x1="17.01" y1="8.20029" x2="18.5554" y2="8.7433" gradientUnits="userSpaceOnUse">
<stop stop-color="#99E6FC" stop-opacity="0"/>
<stop offset="0.165" stop-color="#99E6FC" stop-opacity="0.013"/>
<stop offset="0.296" stop-color="#99E6FC" stop-opacity="0.052"/>
<stop offset="0.416" stop-color="#99E6FC" stop-opacity="0.119"/>
<stop offset="0.529" stop-color="#99E6FC" stop-opacity="0.213"/>
<stop offset="0.637" stop-color="#99E6FC" stop-opacity="0.334"/>
<stop offset="0.742" stop-color="#99E6FC" stop-opacity="0.484"/>
<stop offset="0.843" stop-color="#99E6FC" stop-opacity="0.661"/>
<stop offset="0.94" stop-color="#99E6FC" stop-opacity="0.86"/>
<stop offset="1" stop-color="#99E6FC"/>
</linearGradient>
<linearGradient id="paint12_linear_1_761" x1="8.03264" y1="8.08207" x2="6.50836" y2="13.4534" gradientUnits="userSpaceOnUse">
<stop stop-color="#99E6FC"/>
<stop offset="0.133" stop-color="#8EE1FB"/>
<stop offset="0.363" stop-color="#71D5F9"/>
<stop offset="0.663" stop-color="#43C2F5"/>
<stop offset="1" stop-color="#08A9F1"/>
</linearGradient>
<linearGradient id="paint13_linear_1_761" x1="6.9257" y1="12.1893" x2="5.891" y2="14.4082" gradientUnits="userSpaceOnUse">
<stop stop-color="#0593FC" stop-opacity="0"/>
<stop offset="0.101" stop-color="#0492FC" stop-opacity="0.021"/>
<stop offset="0.225" stop-color="#0491FC" stop-opacity="0.082"/>
<stop offset="0.363" stop-color="#048FFC" stop-opacity="0.182"/>
<stop offset="0.509" stop-color="#038DFC" stop-opacity="0.322"/>
<stop offset="0.663" stop-color="#028AFC" stop-opacity="0.501"/>
<stop offset="0.823" stop-color="#0286FC" stop-opacity="0.721"/>
<stop offset="0.985" stop-color="#0182FC" stop-opacity="0.976"/>
<stop offset="1" stop-color="#0182FC"/>
</linearGradient>
<linearGradient id="paint14_linear_1_761" x1="10.4417" y1="12.1183" x2="12.0557" y2="12.4006" gradientUnits="userSpaceOnUse">
<stop stop-color="#0593FC" stop-opacity="0"/>
<stop offset="0.101" stop-color="#0492FC" stop-opacity="0.021"/>
<stop offset="0.225" stop-color="#0491FC" stop-opacity="0.082"/>
<stop offset="0.363" stop-color="#048FFC" stop-opacity="0.182"/>
<stop offset="0.509" stop-color="#038DFC" stop-opacity="0.322"/>
<stop offset="0.663" stop-color="#028AFC" stop-opacity="0.501"/>
<stop offset="0.823" stop-color="#0286FC" stop-opacity="0.721"/>
<stop offset="0.985" stop-color="#0182FC" stop-opacity="0.976"/>
<stop offset="1" stop-color="#0182FC"/>
</linearGradient>
<linearGradient id="paint15_linear_1_761" x1="13.0136" y1="1.52837" x2="14.5455" y2="3.92402" gradientUnits="userSpaceOnUse">
<stop stop-color="#99E6FC"/>
<stop offset="0.133" stop-color="#8EE1FB"/>
<stop offset="0.363" stop-color="#71D5F9"/>
<stop offset="0.663" stop-color="#43C2F5"/>
<stop offset="1" stop-color="#08A9F1"/>
</linearGradient>
<linearGradient id="paint16_linear_1_761" x1="14.0014" y1="3.07545" x2="14.6425" y2="4.14378" gradientUnits="userSpaceOnUse">
<stop stop-color="#0593FC" stop-opacity="0"/>
<stop offset="0.101" stop-color="#0492FC" stop-opacity="0.021"/>
<stop offset="0.225" stop-color="#0491FC" stop-opacity="0.082"/>
<stop offset="0.363" stop-color="#048FFC" stop-opacity="0.182"/>
<stop offset="0.509" stop-color="#038DFC" stop-opacity="0.322"/>
<stop offset="0.663" stop-color="#028AFC" stop-opacity="0.501"/>
<stop offset="0.823" stop-color="#0286FC" stop-opacity="0.721"/>
<stop offset="0.985" stop-color="#0182FC" stop-opacity="0.976"/>
<stop offset="1" stop-color="#0182FC"/>
</linearGradient>
<linearGradient id="paint17_linear_1_761" x1="14.746" y1="2.036" x2="16.3356" y2="2.72963" gradientUnits="userSpaceOnUse">
<stop stop-color="#0593FC" stop-opacity="0"/>
<stop offset="0.101" stop-color="#0492FC" stop-opacity="0.021"/>
<stop offset="0.225" stop-color="#0491FC" stop-opacity="0.082"/>
<stop offset="0.363" stop-color="#048FFC" stop-opacity="0.182"/>
<stop offset="0.509" stop-color="#038DFC" stop-opacity="0.322"/>
<stop offset="0.663" stop-color="#028AFC" stop-opacity="0.501"/>
<stop offset="0.823" stop-color="#0286FC" stop-opacity="0.721"/>
<stop offset="0.985" stop-color="#0182FC" stop-opacity="0.976"/>
<stop offset="1" stop-color="#0182FC"/>
</linearGradient>
</defs>
</svg>
