<svg preserveAspectRatio="none" width="100%" height="100%" overflow="visible" style="display: block;" viewBox="0 0 200 101" fill="none" xmlns="http://www.w3.org/2000/svg">
<g id="freepik--Hearts--inject-81">
<path id="Vector" d="M45.7053 13.3117C43.6253 11.7317 41.0452 10.5717 39.8352 8.26168C39.4386 7.50073 39.2205 6.65943 39.1974 5.80161C39.1744 4.94379 39.3471 4.092 39.7024 3.31087C40.0576 2.52974 40.5861 1.8398 41.2478 1.29339C41.9095 0.746993 42.687 0.358492 43.5212 0.15737C44.3554 -0.0437514 45.2245 -0.0522067 46.0625 0.132643C46.9005 0.317493 47.6853 0.690797 48.3575 1.22422C49.0297 1.75764 49.5716 2.43716 49.942 3.21123C50.3124 3.9853 50.5016 4.83358 50.4952 5.69168C52.3452 3.98168 54.6152 2.15168 57.0752 2.69168C59.7252 3.24168 61.0752 6.49168 60.4452 9.11168C59.8152 11.7317 57.6452 13.7317 55.3652 15.1917C53.5152 16.3817 50.9452 18.3417 48.8352 18.5417C48.5086 16.4588 47.3865 14.5839 45.7053 13.3117Z" fill="var(--fill-0, white)"/>
<path id="Vector_2" d="M20.7652 63.5517C21.1136 62.7842 21.2943 61.9513 21.2954 61.1085C21.2965 60.2657 21.118 59.4323 20.7716 58.6639C20.4253 57.8956 19.9192 57.2098 19.287 56.6525C18.6547 56.0951 17.911 55.679 17.1052 55.4317C13.7852 54.6217 9.34523 56.8517 9.35523 60.2617C7.71523 57.6317 5.22523 57.6917 3.52523 57.9117C0.845232 58.2517 -0.474763 61.7117 0.155237 64.3417C0.785237 66.9717 2.95524 68.9517 5.23524 70.4117C7.08524 71.6117 11.7652 73.7617 11.7652 73.7617C12.1252 71.6917 19.5552 65.8617 20.7652 63.5517Z" fill="var(--fill-0, white)"/>
<path id="Vector_3" d="M21.4252 27.6917C21.5835 27.3097 21.6611 26.8992 21.6532 26.4859C21.6452 26.0725 21.5519 25.6653 21.3792 25.2897C21.2064 24.9141 20.9579 24.5783 20.6492 24.3033C20.3404 24.0283 19.9782 23.8201 19.5852 23.6917C17.9252 23.2817 15.7152 24.3917 15.7152 26.1017C15.4127 25.6272 14.97 25.2587 14.4486 25.0473C13.9271 24.8358 13.3528 24.7919 12.8052 24.9217C11.4652 25.1017 10.8052 26.8317 11.1152 28.1417C11.5618 29.4214 12.4667 30.4902 13.6552 31.1417C14.5852 31.7317 16.9252 32.8117 16.9252 32.8117C17.1052 31.6917 20.8152 28.8117 21.4252 27.6917Z" fill="var(--fill-0, white)"/>
<path id="Vector_4" d="M150.485 41.4817C150.654 41.0972 150.74 40.6817 150.737 40.262C150.735 39.8423 150.645 39.4277 150.472 39.045C150.3 38.6624 150.049 38.3202 149.736 38.0406C149.423 37.7609 149.055 37.5501 148.655 37.4217C146.995 37.0217 144.785 38.1317 144.785 39.8417C144.482 39.3713 144.04 39.0075 143.52 38.8012C143 38.595 142.428 38.5567 141.885 38.6917C140.535 38.8617 139.885 40.5917 140.195 41.9117C140.638 43.1938 141.544 44.264 142.735 44.9117C143.665 45.5117 145.995 46.5917 145.995 46.5917C146.165 45.5517 149.885 42.6917 150.485 41.4817Z" fill="var(--fill-0, white)"/>
<path id="Vector_5" d="M177.745 95.1917C177.914 94.8072 178 94.3917 177.997 93.972C177.995 93.5523 177.905 93.1377 177.732 92.7551C177.56 92.3724 177.309 92.0302 176.996 91.7506C176.683 91.4709 176.315 91.2601 175.915 91.1317C174.255 90.7217 172.035 91.8417 172.035 93.5417C171.733 93.0669 171.29 92.6986 170.768 92.4887C170.246 92.2788 169.672 92.2379 169.125 92.3717C167.785 92.5417 167.125 94.2717 167.435 95.5817C167.879 96.8628 168.785 97.9325 169.975 98.5817C170.905 99.1717 173.245 100.252 173.245 100.252C173.425 99.2617 177.135 96.3417 177.745 95.1917Z" fill="var(--fill-0, white)"/>
<path id="Vector_6" d="M198.815 42.8817C199.112 42.2181 199.265 41.499 199.262 40.772C199.26 40.045 199.104 39.3267 198.803 38.6649C198.502 38.003 198.065 37.4125 197.518 36.9327C196.972 36.4529 196.33 36.0946 195.635 35.8817C192.755 35.1717 188.905 37.1117 188.915 40.0717C187.495 37.7917 185.335 37.8417 183.855 38.0717C181.525 38.3617 180.355 41.3717 180.925 43.6417C181.495 45.9117 183.365 47.6417 185.335 48.9217C186.945 49.9217 191.005 51.8317 191.005 51.8317C191.315 49.9517 197.765 44.8817 198.815 42.8817Z" fill="var(--fill-0, white)"/>
</g>
</svg>
