<svg preserveAspectRatio="none" width="100%" height="100%" overflow="visible" style="display: block;" viewBox="0 0 19 30" fill="none" xmlns="http://www.w3.org/2000/svg">
<path id="Vector" d="M2.8336 29.0881C2.8336 29.0881 1.06359 28.7481 1.00359 27.5081C0.943593 26.2681 1.62359 25.1181 3.90359 23.6781L6.15359 21.4681L6.6836 18.8181L5.47359 15.2081C5.47359 15.2081 6.3436 20.3581 4.3536 20.8481C3.3536 21.0981 2.7436 20.1681 2.4136 17.1981C2.0836 14.2281 1.58359 8.94814 3.81359 3.85814C6.04359 -1.23186 13.2136 2.02812 13.2136 2.02812L15.9436 7.78813C17.9399 12.0085 18.2371 16.8348 16.7736 21.2681L16.1936 21.8481L12.8136 27.1681L7.3336 29.4681C7.3336 29.4681 4.98359 28.9481 6.89359 27.2881C7.80914 26.4194 8.86808 25.7157 10.0236 25.2081L2.8336 29.0881Z" fill="var(--fill-0, white)" stroke="var(--stroke-0, #263238)" stroke-linecap="round" stroke-linejoin="round"/>
</svg>
