<svg preserveAspectRatio="none" width="100%" height="100%" overflow="visible" style="display: block;" viewBox="0 0 54 61" fill="none" xmlns="http://www.w3.org/2000/svg">
<g id="Group">
<path id="Vector" opacity="0.2" d="M36.474 14.3478C38.2308 13.2124 39.7187 11.7074 40.834 9.93775C40.834 14.5078 37.644 18.5978 33.714 20.9378C29.784 23.2778 25.204 24.1778 20.714 25.0378L7.47398 27.5978L11.914 29.4078L8.43397 33.9778C18.164 30.3078 29.044 26.6178 38.684 30.5478C32.454 30.6178 37.774 41.8078 53.854 57.2978C38.304 48.6178 11.854 49.5478 0.0839656 60.3578C1.70397 50.6178 0.323966 44.5678 0.0839656 37.7178C-0.266034 27.5578 0.343979 17.4678 4.50398 5.99777C8.03398 -8.00223 4.50399 5.99777 11.454 12.7478C18.944 20.0078 27.874 20.2578 36.474 14.3478Z" fill="var(--fill-0, black)"/>
</g>
</svg>
